<svg width="170" height="60" viewBox="0 0 170 60" fill="none" xmlns="http://www.w3.org/2000/svg">
<rect width="32" height="32" rx="4.12903" fill="#E33629"/>
<path d="M14.9135 5.63091C15.2556 4.57798 16.7452 4.57798 17.0873 5.63091L18.8229 10.9723C18.9759 11.4432 19.4147 11.762 19.9098 11.762H25.5261C26.6332 11.762 27.0936 13.1787 26.1979 13.8295L21.6542 17.1307C21.2536 17.4217 21.086 17.9376 21.239 18.4084L22.9746 23.7499C23.3167 24.8028 22.1115 25.6784 21.2159 25.0276L16.6722 21.7264C16.2716 21.4354 15.7292 21.4354 15.3287 21.7264L10.785 25.0276C9.88929 25.6784 8.68417 24.8028 9.02629 23.7499L10.7618 18.4084C10.9148 17.9376 10.7472 17.4217 10.3467 17.1307L5.80296 13.8295C4.90728 13.1787 5.3676 11.762 6.47471 11.762H12.091C12.5862 11.762 13.025 11.4432 13.178 10.9723L14.9135 5.63091Z" fill="white"/>
<rect x="34.2861" width="32" height="32" rx="4.12903" fill="#E33629"/>
<path d="M49.1996 5.63091C49.5417 4.57798 51.0314 4.57798 51.3735 5.63091L53.109 10.9723C53.262 11.4432 53.7008 11.762 54.1959 11.762H59.8123C60.9194 11.762 61.3797 13.1787 60.484 13.8295L55.9403 17.1307C55.5398 17.4217 55.3721 17.9376 55.5251 18.4084L57.2607 23.7499C57.6028 24.8028 56.3977 25.6784 55.502 25.0276L50.9583 21.7264C50.5577 21.4354 50.0154 21.4354 49.6148 21.7264L45.0711 25.0276C44.1754 25.6784 42.9703 24.8028 43.3124 23.7499L45.048 18.4084C45.201 17.9376 45.0333 17.4217 44.6328 17.1307L40.0891 13.8295C39.1934 13.1787 39.6537 11.762 40.7608 11.762H46.3772C46.8723 11.762 47.3111 11.4432 47.4641 10.9723L49.1996 5.63091Z" fill="white"/>
<rect x="68.5713" width="32" height="32" rx="4.12903" fill="#E33629"/>
<path d="M83.4838 5.63091C83.8259 4.57798 85.3155 4.57798 85.6577 5.63091L87.3932 10.9723C87.5462 11.4432 87.985 11.762 88.4801 11.762H94.0964C95.2036 11.762 95.6639 13.1787 94.7682 13.8295L90.2245 17.1307C89.8239 17.4217 89.6563 17.9376 89.8093 18.4084L91.5449 23.7499C91.887 24.8028 90.6819 25.6784 89.7862 25.0276L85.2425 21.7264C84.8419 21.4354 84.2995 21.4354 83.899 21.7264L79.3553 25.0276C78.4596 25.6784 77.2545 24.8028 77.5966 23.7499L79.3321 18.4084C79.4851 17.9376 79.3175 17.4217 78.917 17.1307L74.3733 13.8295C73.4776 13.1787 73.9379 11.762 75.045 11.762H80.6613C81.1565 11.762 81.5953 11.4432 81.7483 10.9723L83.4838 5.63091Z" fill="white"/>
<rect x="102.857" width="32" height="32" rx="4.12903" fill="#E33629"/>
<path d="M117.77 5.63091C118.112 4.57798 119.602 4.57798 119.944 5.63091L121.679 10.9723C121.832 11.4432 122.271 11.762 122.766 11.762H128.383C129.49 11.762 129.95 13.1787 129.054 13.8295L124.511 17.1307C124.11 17.4217 123.942 17.9376 124.095 18.4084L125.831 23.7499C126.173 24.8028 124.968 25.6784 124.072 25.0276L119.529 21.7264C119.128 21.4354 118.586 21.4354 118.185 21.7264L113.641 25.0276C112.746 25.6784 111.541 24.8028 111.883 23.7499L113.618 18.4084C113.771 17.9376 113.604 17.4217 113.203 17.1307L108.659 13.8295C107.764 13.1787 108.224 11.762 109.331 11.762H114.947C115.443 11.762 115.881 11.4432 116.034 10.9723L117.77 5.63091Z" fill="white"/>
<rect x="137.143" width="32" height="32" rx="4.12903" fill="#E33629"/>
<path d="M152.056 5.63091C152.398 4.57798 153.888 4.57798 154.23 5.63091L155.965 10.9723C156.118 11.4432 156.557 11.762 157.052 11.762H162.669C163.776 11.762 164.236 13.1787 163.34 13.8295L158.797 17.1307C158.396 17.4217 158.229 17.9376 158.382 18.4084L160.117 23.7499C160.459 24.8028 159.254 25.6784 158.358 25.0276L153.815 21.7264C153.414 21.4354 152.872 21.4354 152.471 21.7264L147.928 25.0276C147.032 25.6784 145.827 24.8028 146.169 23.7499L147.904 18.4084C148.057 17.9376 147.89 17.4217 147.489 17.1307L142.946 13.8295C142.05 13.1787 142.51 11.762 143.617 11.762H149.234C149.729 11.762 150.168 11.4432 150.321 10.9723L152.056 5.63091Z" fill="white"/>
<path d="M13.9712 55.24C12.9612 55.24 12.0912 55.02 11.3612 54.58C10.6412 54.13 10.0862 53.49 9.69618 52.66C9.30618 51.83 9.11118 50.84 9.11118 49.69C9.11118 48.54 9.30618 47.55 9.69618 46.72C10.0862 45.88 10.6412 45.235 11.3612 44.785C12.0912 44.335 12.9612 44.11 13.9712 44.11C14.9912 44.11 15.8612 44.335 16.5812 44.785C17.3112 45.235 17.8712 45.88 18.2612 46.72C18.6512 47.55 18.8462 48.54 18.8462 49.69C18.8462 50.84 18.6512 51.83 18.2612 52.66C17.8712 53.49 17.3112 54.13 16.5812 54.58C15.8612 55.02 14.9912 55.24 13.9712 55.24ZM13.9712 53.98C14.7112 53.98 15.3412 53.81 15.8612 53.47C16.3912 53.13 16.7962 52.64 17.0762 52C17.3562 51.36 17.4962 50.59 17.4962 49.69C17.4962 48.79 17.3562 48.02 17.0762 47.38C16.7962 46.73 16.3912 46.235 15.8612 45.895C15.3412 45.545 14.7112 45.37 13.9712 45.37C13.2412 45.37 12.6112 45.545 12.0812 45.895C11.5612 46.235 11.1612 46.73 10.8812 47.38C10.6012 48.02 10.4612 48.79 10.4612 49.69C10.4612 50.59 10.6012 51.36 10.8812 52C11.1612 52.64 11.5612 53.13 12.0812 53.47C12.6112 53.81 13.2412 53.98 13.9712 53.98ZM23.335 55.18C22.545 55.18 21.91 54.915 21.43 54.385C20.96 53.845 20.725 53.105 20.725 52.165V47.05H21.985V51.82C21.985 52.59 22.12 53.16 22.39 53.53C22.67 53.89 23.095 54.07 23.665 54.07C24.295 54.07 24.79 53.87 25.15 53.47C25.51 53.06 25.69 52.5 25.69 51.79V47.05H26.95V55H25.75V53.035L25.945 53.14C25.785 53.79 25.48 54.295 25.03 54.655C24.58 55.005 24.015 55.18 23.335 55.18ZM29.353 55V47.05H30.463L30.523 49.06L30.403 49.015C30.503 48.335 30.718 47.84 31.048 47.53C31.388 47.21 31.838 47.05 32.398 47.05H33.178V48.25H32.413C32.013 48.25 31.678 48.325 31.408 48.475C31.148 48.615 30.948 48.83 30.808 49.12C30.678 49.4 30.613 49.76 30.613 50.2V55H29.353ZM38.7866 55V47.05H39.8966L39.9566 49.06L39.8366 49.015C39.9366 48.335 40.1516 47.84 40.4816 47.53C40.8216 47.21 41.2716 47.05 41.8316 47.05H42.6116V48.25H41.8466C41.4466 48.25 41.1116 48.325 40.8416 48.475C40.5816 48.615 40.3816 48.83 40.2416 49.12C40.1116 49.4 40.0466 49.76 40.0466 50.2V55H38.7866ZM46.0146 55.18C45.1946 55.18 44.5396 54.99 44.0496 54.61C43.5696 54.23 43.3296 53.7 43.3296 53.02C43.3296 52.34 43.5296 51.805 43.9296 51.415C44.3296 51.025 44.9646 50.75 45.8346 50.59L48.6546 50.065C48.6546 49.395 48.4946 48.895 48.1746 48.565C47.8646 48.235 47.3946 48.07 46.7646 48.07C46.2146 48.07 45.7796 48.195 45.4596 48.445C45.1396 48.685 44.9196 49.035 44.7996 49.495L43.4646 49.39C43.6146 48.64 43.9746 48.035 44.5446 47.575C45.1246 47.105 45.8646 46.87 46.7646 46.87C47.7846 46.87 48.5646 47.16 49.1046 47.74C49.6446 48.31 49.9146 49.1 49.9146 50.11V53.395C49.9146 53.575 49.9446 53.705 50.0046 53.785C50.0746 53.855 50.1846 53.89 50.3346 53.89H50.6496V55C50.6096 55.01 50.5446 55.015 50.4546 55.015C50.3646 55.025 50.2696 55.03 50.1696 55.03C49.8096 55.03 49.5146 54.975 49.2846 54.865C49.0646 54.745 48.9046 54.565 48.8046 54.325C48.7046 54.075 48.6546 53.75 48.6546 53.35L48.8046 53.38C48.7346 53.72 48.5646 54.03 48.2946 54.31C48.0246 54.58 47.6896 54.795 47.2896 54.955C46.8896 55.105 46.4646 55.18 46.0146 55.18ZM46.1346 54.07C46.6646 54.07 47.1146 53.97 47.4846 53.77C47.8646 53.56 48.1546 53.28 48.3546 52.93C48.5546 52.57 48.6546 52.17 48.6546 51.73V51.16L46.0746 51.64C45.5346 51.74 45.1596 51.895 44.9496 52.105C44.7496 52.305 44.6496 52.57 44.6496 52.9C44.6496 53.27 44.7796 53.56 45.0396 53.77C45.3096 53.97 45.6746 54.07 46.1346 54.07ZM54.5872 55C53.8672 55 53.3322 54.835 52.9822 54.505C52.6422 54.175 52.4722 53.66 52.4722 52.96V45.19H53.7322V52.93C53.7322 53.29 53.8122 53.54 53.9722 53.68C54.1322 53.82 54.3772 53.89 54.7072 53.89H55.8472V55H54.5872ZM51.3022 48.16V47.05H55.8472V48.16H51.3022ZM57.4633 55V47.05H58.7233V55H57.4633ZM57.4333 45.805V44.335H58.7533V45.805H57.4333ZM61.2719 55V47.05H62.4269L62.4719 49.075L62.3219 48.94C62.4219 48.47 62.5969 48.085 62.8469 47.785C63.0969 47.475 63.3969 47.245 63.7469 47.095C64.1069 46.945 64.4919 46.87 64.9019 46.87C65.5119 46.87 66.0119 47.005 66.4019 47.275C66.8019 47.545 67.0969 47.91 67.2869 48.37C67.4869 48.82 67.5869 49.325 67.5869 49.885V55H66.3269V50.245C66.3269 49.755 66.2669 49.345 66.1469 49.015C66.0369 48.675 65.8569 48.42 65.6069 48.25C65.3569 48.07 65.0319 47.98 64.6319 47.98C64.0219 47.98 63.5169 48.175 63.1169 48.565C62.7269 48.945 62.5319 49.505 62.5319 50.245V55H61.2719ZM72.827 57.43C72.257 57.43 71.742 57.335 71.282 57.145C70.822 56.955 70.437 56.685 70.127 56.335C69.817 55.985 69.607 55.58 69.497 55.12L70.817 55.03C70.937 55.4 71.147 55.69 71.447 55.9C71.757 56.12 72.217 56.23 72.827 56.23C73.547 56.23 74.097 56.085 74.477 55.795C74.867 55.505 75.062 55.07 75.062 54.49V53.2C74.872 53.62 74.567 53.955 74.147 54.205C73.727 54.455 73.257 54.58 72.737 54.58C72.067 54.58 71.467 54.415 70.937 54.085C70.417 53.755 70.007 53.3 69.707 52.72C69.417 52.14 69.272 51.475 69.272 50.725C69.272 49.965 69.417 49.3 69.707 48.73C69.997 48.15 70.397 47.695 70.907 47.365C71.427 47.035 72.017 46.87 72.677 46.87C73.237 46.87 73.737 47 74.177 47.26C74.627 47.52 74.942 47.87 75.122 48.31V47.05H76.322V54.46C76.322 55.08 76.182 55.61 75.902 56.05C75.622 56.5 75.222 56.84 74.702 57.07C74.182 57.31 73.557 57.43 72.827 57.43ZM72.797 53.38C73.477 53.38 74.022 53.145 74.432 52.675C74.842 52.195 75.052 51.545 75.062 50.725C75.072 50.175 74.982 49.705 74.792 49.315C74.612 48.915 74.347 48.61 73.997 48.4C73.657 48.18 73.257 48.07 72.797 48.07C72.097 48.07 71.552 48.31 71.162 48.79C70.782 49.26 70.592 49.905 70.592 50.725C70.592 51.545 70.787 52.195 71.177 52.675C71.577 53.145 72.117 53.38 72.797 53.38ZM85.5732 55.18C84.8432 55.18 84.2032 55.01 83.6532 54.67C83.1032 54.33 82.6782 53.85 82.3782 53.23C82.0782 52.6 81.9282 51.865 81.9282 51.025C81.9282 50.175 82.0782 49.44 82.3782 48.82C82.6782 48.2 83.1032 47.72 83.6532 47.38C84.2032 47.04 84.8432 46.87 85.5732 46.87C86.3032 46.87 86.9382 47.04 87.4782 47.38C88.0282 47.72 88.4532 48.2 88.7532 48.82C89.0532 49.44 89.2032 50.175 89.2032 51.025C89.2032 51.865 89.0532 52.6 88.7532 53.23C88.4532 53.85 88.0282 54.33 87.4782 54.67C86.9382 55.01 86.3032 55.18 85.5732 55.18ZM85.5732 53.98C86.3032 53.98 86.8682 53.72 87.2682 53.2C87.6782 52.67 87.8832 51.945 87.8832 51.025C87.8832 50.105 87.6782 49.385 87.2682 48.865C86.8682 48.335 86.3032 48.07 85.5732 48.07C84.8432 48.07 84.2732 48.335 83.8632 48.865C83.4532 49.385 83.2482 50.105 83.2482 51.025C83.2482 51.945 83.4532 52.67 83.8632 53.2C84.2732 53.72 84.8432 53.98 85.5732 53.98ZM90.9204 55V47.05H92.0754L92.1204 49.075L91.9704 48.94C92.0704 48.47 92.2454 48.085 92.4954 47.785C92.7454 47.475 93.0454 47.245 93.3954 47.095C93.7554 46.945 94.1404 46.87 94.5504 46.87C95.1604 46.87 95.6604 47.005 96.0504 47.275C96.4504 47.545 96.7454 47.91 96.9354 48.37C97.1354 48.82 97.2354 49.325 97.2354 49.885V55H95.9754V50.245C95.9754 49.755 95.9154 49.345 95.7954 49.015C95.6854 48.675 95.5054 48.42 95.2554 48.25C95.0054 48.07 94.6804 47.98 94.2804 47.98C93.6704 47.98 93.1654 48.175 92.7654 48.565C92.3754 48.945 92.1804 49.505 92.1804 50.245V55H90.9204ZM105.861 55V50.65L102.096 44.35H103.626L106.506 49.33L109.386 44.35H110.916L107.151 50.65V55H105.861ZM114.079 55.18C113.329 55.18 112.679 55.01 112.129 54.67C111.589 54.33 111.169 53.85 110.869 53.23C110.579 52.6 110.434 51.865 110.434 51.025C110.434 50.185 110.579 49.455 110.869 48.835C111.169 48.215 111.584 47.735 112.114 47.395C112.654 47.045 113.289 46.87 114.019 46.87C114.709 46.87 115.319 47.035 115.849 47.365C116.379 47.685 116.789 48.155 117.079 48.775C117.379 49.395 117.529 50.15 117.529 51.04V51.415H111.754C111.804 52.265 112.029 52.905 112.429 53.335C112.839 53.765 113.389 53.98 114.079 53.98C114.599 53.98 115.024 53.86 115.354 53.62C115.694 53.37 115.929 53.045 116.059 52.645L117.409 52.75C117.199 53.46 116.799 54.045 116.209 54.505C115.629 54.955 114.919 55.18 114.079 55.18ZM111.754 50.305H116.149C116.089 49.535 115.864 48.97 115.474 48.61C115.094 48.25 114.609 48.07 114.019 48.07C113.409 48.07 112.904 48.26 112.504 48.64C112.114 49.01 111.864 49.565 111.754 50.305ZM120.869 55C120.409 55 120.034 54.88 119.744 54.64C119.454 54.4 119.309 54.02 119.309 53.5V44.35H120.569V53.395C120.569 53.555 120.609 53.68 120.689 53.77C120.779 53.85 120.904 53.89 121.064 53.89H121.754V55H120.869ZM123.249 57.25V47.05H124.419L124.449 48.76L124.269 48.67C124.469 48.08 124.799 47.635 125.259 47.335C125.729 47.025 126.269 46.87 126.879 46.87C127.669 46.87 128.314 47.065 128.814 47.455C129.324 47.845 129.699 48.355 129.939 48.985C130.189 49.615 130.314 50.295 130.314 51.025C130.314 51.755 130.189 52.435 129.939 53.065C129.699 53.695 129.324 54.205 128.814 54.595C128.314 54.985 127.669 55.18 126.879 55.18C126.469 55.18 126.084 55.11 125.724 54.97C125.374 54.83 125.074 54.635 124.824 54.385C124.584 54.135 124.419 53.84 124.329 53.5L124.509 53.29V57.25H123.249ZM126.759 53.98C127.449 53.98 127.994 53.72 128.394 53.2C128.794 52.68 128.994 51.955 128.994 51.025C128.994 50.095 128.794 49.37 128.394 48.85C127.994 48.33 127.449 48.07 126.759 48.07C126.299 48.07 125.899 48.18 125.559 48.4C125.229 48.62 124.969 48.95 124.779 49.39C124.599 49.83 124.509 50.375 124.509 51.025C124.509 51.675 124.599 52.22 124.779 52.66C124.959 53.1 125.219 53.43 125.559 53.65C125.899 53.87 126.299 53.98 126.759 53.98ZM139.4 55.24C138.65 55.24 138 55.115 137.45 54.865C136.91 54.615 136.48 54.265 136.16 53.815C135.85 53.365 135.67 52.845 135.62 52.255L136.97 52.165C137.05 52.765 137.305 53.22 137.735 53.53C138.175 53.83 138.73 53.98 139.4 53.98C140.15 53.98 140.745 53.77 141.185 53.35C141.625 52.92 141.845 52.33 141.845 51.58C141.845 51.08 141.745 50.65 141.545 50.29C141.355 49.92 141.075 49.635 140.705 49.435C140.335 49.235 139.89 49.135 139.37 49.135C138.88 49.135 138.435 49.24 138.035 49.45C137.635 49.66 137.35 49.955 137.18 50.335H135.8L136.505 44.35H142.475V45.61H137.69L137.21 49.54L136.97 49.3C137.13 48.99 137.34 48.735 137.6 48.535C137.87 48.325 138.175 48.17 138.515 48.07C138.865 47.96 139.23 47.905 139.61 47.905C140.32 47.905 140.945 48.065 141.485 48.385C142.025 48.695 142.445 49.13 142.745 49.69C143.045 50.24 143.195 50.87 143.195 51.58C143.195 52.29 143.035 52.925 142.715 53.485C142.395 54.035 141.95 54.465 141.38 54.775C140.81 55.085 140.15 55.24 139.4 55.24ZM144.71 56.65L149.135 43.75H150.335L145.91 56.65H144.71ZM155.997 55.24C155.247 55.24 154.597 55.115 154.047 54.865C153.507 54.615 153.077 54.265 152.757 53.815C152.447 53.365 152.267 52.845 152.217 52.255L153.567 52.165C153.647 52.765 153.902 53.22 154.332 53.53C154.772 53.83 155.327 53.98 155.997 53.98C156.747 53.98 157.342 53.77 157.782 53.35C158.222 52.92 158.442 52.33 158.442 51.58C158.442 51.08 158.342 50.65 158.142 50.29C157.952 49.92 157.672 49.635 157.302 49.435C156.932 49.235 156.487 49.135 155.967 49.135C155.477 49.135 155.032 49.24 154.632 49.45C154.232 49.66 153.947 49.955 153.777 50.335H152.397L153.102 44.35H159.072V45.61H154.287L153.807 49.54L153.567 49.3C153.727 48.99 153.937 48.735 154.197 48.535C154.467 48.325 154.772 48.17 155.112 48.07C155.462 47.96 155.827 47.905 156.207 47.905C156.917 47.905 157.542 48.065 158.082 48.385C158.622 48.695 159.042 49.13 159.342 49.69C159.642 50.24 159.792 50.87 159.792 51.58C159.792 52.29 159.632 52.925 159.312 53.485C158.992 54.035 158.547 54.465 157.977 54.775C157.407 55.085 156.747 55.24 155.997 55.24Z" fill="black"/>
</svg>
