<svg width="140" height="33" viewBox="0 0 140 33" fill="none" xmlns="http://www.w3.org/2000/svg">
<g clip-path="url(#clip0_277_586)">
<path d="M0.00384521 32.9336H31.9955V0.933594H0.00384521V32.9336ZM20.5091 3.37746C26.1637 5.23116 30.25 10.5932 30.2654 16.9275C30.2807 23.1588 26.277 28.508 20.5091 30.4846V3.37746ZM15.9946 2.65223C17.0161 2.65223 18.1043 2.78857 19.0107 2.96908C19.0107 10.2187 12.0004 16.185 4.76547 16.185L1.74041 16.1805C2.23648 8.74909 8.38454 2.65223 15.9946 2.65223ZM4.76803 17.6943C12.0017 17.6943 19.0094 23.6542 19.0094 30.8968C18.1043 31.0818 16.9617 31.2194 15.9946 31.2194C8.38198 31.2092 2.02589 25.0938 1.73849 17.6943H4.76803ZM42.7049 19.7452V17.7283H49.3618V15.157H42.7036V11.4131H49.7862V8.84766H39.9787V19.6287C39.9787 22.3542 41.1392 24.2181 43.8634 24.6009C43.9178 24.6143 43.9716 24.6246 44.0215 24.6259H44.0708C44.3499 24.6572 44.6347 24.6777 44.9336 24.6777H49.975V22.1154H44.9561C44.09 22.1154 42.7049 21.6879 42.7049 19.7452ZM51.9113 24.6816H54.6374V8.84382H51.9113V24.6816ZM62.6404 12.8674C59.1948 12.8674 56.6159 15.2415 56.6159 18.938V19.0296C56.6159 22.6358 59.1033 24.9638 62.7089 24.9638C64.4429 24.9638 66.063 24.4851 67.5461 22.9092L65.903 21.3121C65.0357 22.1794 64.1914 22.6358 62.7998 22.6358C60.7688 22.6358 59.4227 21.4491 59.3312 19.6229H68.2758C68.3212 19.1665 68.3212 18.6647 68.3212 18.6647C68.3225 15.4463 66.063 12.8674 62.6404 12.8674ZM59.4003 17.7059C59.5142 16.313 60.9295 15.1948 62.6404 15.1948C64.2375 15.1948 65.5381 16.3361 65.5381 17.7059H59.4003ZM75.9825 15.3094C77.2146 15.3094 78.1281 15.7664 78.9032 16.5646L80.5918 14.8069C79.2681 13.3917 77.6941 12.8213 75.9825 12.8213C72.5138 12.8213 69.7301 15.4003 69.7301 18.915C69.7301 22.4297 72.5138 25.0093 75.9825 25.0093C77.6941 25.0093 79.2687 24.439 80.5918 23.0237L78.9032 21.266C78.1281 22.0649 77.2146 22.5213 75.9825 22.5213C73.9739 22.5213 72.4453 20.9914 72.4453 18.915C72.4453 16.8385 73.9739 15.3094 75.9825 15.3094ZM85.0148 19.7497H85.0116V15.7062H87.4906V13.2291H85.0148V8.84446H82.2886V19.9103L82.2963 19.9097C82.3744 22.4829 83.5432 24.2354 86.1733 24.6047C86.2277 24.6182 86.2815 24.6284 86.3314 24.6291H86.3807C86.6598 24.6604 86.9446 24.6816 87.2436 24.6816H87.5322L87.5418 22.1193H87.266C86.3999 22.1193 85.0148 21.6923 85.0148 19.7497ZM92.4885 14.9324V13.2297H89.7847V24.6816H92.4885V18.6596C92.4885 16.7739 93.6925 15.5916 95.5775 15.5916C96.009 15.5916 96.3956 15.6365 96.7137 15.7056V13.0703C96.5998 13.0479 96.1914 13.0018 95.8963 13.0018C94.2602 13.0025 93.0338 13.7527 92.4885 14.9324ZM103.38 12.8885C99.9033 12.8885 97.131 15.5232 97.131 18.9553C97.131 22.3856 99.9033 25.0221 103.38 25.0221C106.832 25.0221 109.627 22.3856 109.627 18.9553C109.626 15.5238 106.832 12.8885 103.38 12.8885ZM103.38 22.5456C101.358 22.5456 99.8361 20.9767 99.8361 18.9553C99.8361 16.9326 101.358 15.3651 103.38 15.3651C105.379 15.3651 106.923 16.9326 106.923 18.9553C106.922 20.9774 105.379 22.5456 103.38 22.5456ZM111.303 24.6816H114.03V8.84382H111.303V24.6816ZM123.862 19.8866C123.862 21.7039 122.795 22.4777 121.363 22.4777C119.932 22.4777 118.865 21.7039 118.865 19.911V13.2297H116.115V20.1376C116.115 23.4097 118.5 24.9773 121.34 24.9773C124.203 24.9773 126.61 23.3867 126.61 20.0691V13.2297H123.862V19.8866ZM136.925 21.0196L135.206 18.6148L137.335 15.7139L139.158 13.2297H136.182L133.705 16.6606L131.206 13.2297H128.253L129.947 15.5462L132.206 18.6372L129.838 21.9356L127.867 24.6816H130.797L133.704 20.6368L136.613 24.6816H139.544L136.925 21.0196Z" fill="#242424"/>
</g>
<defs>
<clipPath id="clip0_277_586">
<rect width="139.541" height="32" fill="white" transform="translate(0.00384521 0.933594)"/>
</clipPath>
</defs>
</svg>
