<svg width="191" height="24" viewBox="0 0 191 24" fill="none" xmlns="http://www.w3.org/2000/svg">
<g clip-path="url(#clip0_277_699)">
<mask id="mask0_277_699" style="mask-type:luminance" maskUnits="userSpaceOnUse" x="0" y="0" width="190" height="56">
<path d="M0.970825 55.6831H189.922V0.547134H0.970825V55.6831Z" fill="white"/>
</mask>
<g mask="url(#mask0_277_699)">
<path fill-rule="evenodd" clip-rule="evenodd" d="M110.577 23.4158H132.473L121.526 0.547155L110.577 23.4158ZM188.424 21.6962C188.63 21.6962 188.752 21.5893 188.752 21.4207C188.752 21.2342 188.63 21.1372 188.424 21.1372H188.012V21.6962H188.424ZM187.698 20.8347H188.438C188.656 20.8347 188.827 20.9045 188.941 21.0255C189.027 21.1134 189.076 21.2395 189.076 21.3932C189.076 21.6871 188.92 21.8643 188.692 21.9332L189.138 22.6008H188.761L188.359 21.9899H188.012V22.6008H187.698V20.8347ZM189.754 21.7662C189.754 20.9234 189.146 20.2473 188.342 20.2473C187.531 20.2473 186.917 20.9317 186.917 21.7662C186.917 22.6098 187.526 23.2846 188.332 23.2846C189.142 23.2846 189.754 22.6008 189.754 21.7662ZM186.751 21.775C186.751 20.8478 187.452 20.0793 188.342 20.0793C189.23 20.0793 189.921 20.8385 189.921 21.7569C189.921 22.6846 189.22 23.4526 188.332 23.4526C187.444 23.4526 186.751 22.6932 186.751 21.775ZM151.36 12.3135V4.9244H156.648C159.337 4.9244 160.934 6.2121 160.934 8.57187C160.934 10.867 159.277 12.3135 156.679 12.3135H151.36ZM159.692 15.0823C162.586 14.2016 164.626 12.0321 164.626 8.41529C164.626 6.43127 164.004 4.79723 162.913 3.6014C161.582 2.21991 159.542 1.40306 156.945 1.40306H147.725V23.4158H151.36V15.7434H155.851L160.99 23.4158H165.277L159.692 15.0823ZM105.299 12.4711C105.299 16.7781 102.461 19.8896 98.1221 19.8896H94.0439V4.9244H98.1221C102.461 4.9244 105.299 8.1 105.299 12.4075V12.4711ZM98.1221 1.40306H90.4052V23.4158H98.1221C104.62 23.4158 109.115 18.604 109.115 12.4075C109.115 6.14909 104.62 1.40306 98.1221 1.40306ZM79.4093 12.3915V23.4158H83.0453V1.40306H79.4093V12.3915ZM44.2722 12.0246V23.4158H47.9065V1.40306H44.2722V12.0246ZM25.0175 12.3135V4.9244H30.3084C32.996 4.9244 34.5916 6.2121 34.5916 8.57187C34.5916 10.867 32.9373 12.3135 30.3371 12.3135H25.0175ZM33.351 15.0823C36.2451 14.2016 38.2857 12.0321 38.2857 8.41529C38.2857 6.43127 37.6644 4.79723 36.5719 3.6014C35.2423 2.21991 33.2018 1.40306 30.6049 1.40306H21.3849V23.4158H25.0175V15.7434H29.5103L34.6509 23.4158H38.9361L33.351 15.0823ZM0.969482 23.4158H4.60254V14.4522H16.359V10.9338H4.60254V4.9244H16.3646V1.40306H0.969482V23.4158ZM174.298 19.9561V14.0421H185.997V10.5833H174.298V4.85948H185.997V1.40306H170.664V23.4158H186.002V19.9561H174.298ZM64.0979 14.1057H69.3824V18.2267C68.1161 19.2327 66.3419 19.8914 64.3926 19.8914C60.1678 19.8914 57.3605 16.5598 57.3605 12.0321C57.3605 7.7529 60.2547 4.20078 64.0658 4.20078C66.697 4.20078 68.2605 5.11279 69.8567 6.55844L72.1616 3.63164C70.0378 1.71514 67.8157 0.646822 64.215 0.646822C57.9797 0.646822 53.5473 5.86821 53.5473 12.0321C53.5473 18.508 57.8041 23.4158 64.2719 23.4158C67.9364 23.4158 70.8605 21.8424 72.901 19.9855V10.7377H64.0979V14.1057ZM136.715 12.3915V23.4158H140.35V1.40306H136.715V12.3915Z" fill="#242424"/>
<path fill-rule="evenodd" clip-rule="evenodd" d="M116.09 19.8828L121.504 8.2977L126.96 19.8828H116.09Z" fill="#ED114C"/>
</g>
</g>
<defs>
<clipPath id="clip0_277_699">
<rect width="190" height="24" fill="white" transform="translate(0.446045)"/>
</clipPath>
</defs>
</svg>
