<svg width="197" height="18" viewBox="0 0 197 18" fill="none" xmlns="http://www.w3.org/2000/svg">
<path d="M17.2176 6.82621L22.529 1.22314H16.5098L12.2064 6.67151C11.7989 7.13951 11.0096 7.47882 10.4092 7.47882H9.40262V1.22314H1.12445V16.224H9.37546V11.622H10.6836C11.2827 11.622 11.5815 11.7793 11.9089 12.3526L14.2236 16.224H24.1903L19.5608 8.70343C19.1791 8.07942 18.144 7.55682 17.0559 7.55682C16.7842 7.55682 16.5098 7.58412 17.2176 6.82621Z" fill="#242424"/>
<path d="M26.857 16.2085H34.6475V7.50488H26.857V16.2085Z" fill="#242424"/>
<path d="M30.8807 6.77201C33.0351 6.62641 34.7114 5.5539 34.6258 4.37608C34.5375 3.19957 32.7213 2.36106 30.5683 2.50666C28.4138 2.65226 26.7375 3.72478 26.8245 4.89999C26.9114 6.0778 28.7276 6.91501 30.8807 6.77201Z" fill="#242424"/>
<path d="M37.6958 7.45174H40.3107V4.5332H47.6625V7.45174H50.7135V10.3183H47.7725V12.0382C47.7725 13.7581 49.8414 13.6528 50.7665 12.8741V15.322C47.9355 16.5206 43.2789 16.8339 41.4002 15.608C40.4194 14.958 40.3107 14.4354 40.3107 13.6528V10.3703H37.6958" fill="#242424"/>
<path d="M68.658 7.9481C64.6276 6.01888 59.1396 6.35818 56.4323 7.7661C52.0881 10.0203 52.1547 13.6994 56.3766 15.7911C59.4262 17.3043 66.6693 16.8857 68.6309 15.1658V12.7439C65.7456 14.1505 63.7378 13.9464 62.5316 13.5512C60.6529 12.9376 60.6081 10.3999 63.0206 9.95402C64.5719 9.66802 66.5348 9.69402 68.658 10.7626" fill="#242424"/>
<path d="M71.2731 2.47656V16.2099H78.5976V11.9862C78.7063 9.32764 82.1934 9.82295 82.1934 11.7795V16.2099H89.4894V10.7902C89.4894 8.23433 84.6983 5.3678 78.6533 8.28503L78.7606 2.47656" fill="#242424"/>
<path d="M113.071 7.47901V16.2086H120.915V11.5182C120.915 9.90094 124.454 9.12093 124.454 11.5702V16.1566H131.372V10.8408C131.372 8.34742 127.651 5.12858 120.915 8.44362V7.47901" fill="#242424"/>
<path d="M159.285 16.1994H167.072V7.49707H159.285V16.1994Z" fill="#242424"/>
<path d="M163.31 6.76292C165.463 6.61862 167.138 5.54741 167.052 4.36699C166.967 3.19048 165.149 2.35327 162.995 2.49887C160.841 2.64317 159.167 3.71569 159.253 4.8922C159.338 6.07131 161.154 6.90852 163.31 6.76292Z" fill="#242424"/>
<path fill-rule="evenodd" clip-rule="evenodd" d="M192.259 5.01547V4.03396H192.943C193.291 4.03396 193.663 4.10806 193.663 4.49937C193.663 4.98557 193.284 5.01547 192.861 5.01547H192.259ZM192.867 7.95871C194.431 7.95871 195.768 6.79519 195.768 5.20527C195.768 3.62836 194.431 2.46484 192.867 2.46484C191.286 2.46484 189.952 3.62836 189.952 5.20527C189.952 6.79519 191.286 7.95871 192.867 7.95871ZM190.528 5.20527C190.528 3.90396 191.554 2.92245 192.867 2.92245C194.166 2.92245 195.192 3.90396 195.192 5.20527C195.192 6.52739 194.166 7.5011 192.867 7.5011C191.554 7.5011 190.528 6.52739 190.528 5.20527ZM192.259 5.42238H192.836L193.711 6.79519H194.272L193.329 5.40158C193.815 5.34308 194.188 5.09477 194.188 4.52927C194.188 3.90396 193.802 3.62836 193.018 3.62836H191.759V6.79519H192.259" fill="#242424"/>
<path fill-rule="evenodd" clip-rule="evenodd" d="M100.473 10.6355H103.389C103.436 9.74884 102.65 9.30554 101.815 9.30554C101.119 9.30554 100.473 9.88014 100.473 10.6355ZM110.405 12.8741C105.449 12.5088 100.165 12.8208 100.165 12.8208C101.689 15.218 107.9 14.854 109.967 13.2901L109.75 15.322C105.611 17.6685 92.9763 17.5645 92.7576 12.0915C92.5647 7.25931 100.056 6.56641 101.689 6.56641C105.555 6.56641 111.22 8.28633 110.405 12.8741Z" fill="#242424"/>
<path fill-rule="evenodd" clip-rule="evenodd" d="M140.468 10.2156L142.754 6.14911L144.606 10.2156H140.468ZM133.088 16.1709H137.335L139.161 12.8221H145.805L147.386 16.1709H157.459L149.617 1.25195H139.594C140.577 1.61726 140.848 2.24126 140.577 2.76127" fill="#242424"/>
<path fill-rule="evenodd" clip-rule="evenodd" d="M181.031 10.6563C179.721 9.72548 177.203 9.95819 177.203 11.448C177.203 13.5878 180.193 13.2147 181.031 12.5634V10.6563ZM188.395 2.5V16.1567H181.044V15.218C177.395 17.9286 169.223 16.4687 169.223 12.0915C169.223 6.72115 178.1 5.99314 181.095 7.86906V2.5" fill="#242424"/>
</svg>
