<svg width="197" height="26" viewBox="0 0 197 26" fill="none" xmlns="http://www.w3.org/2000/svg">
<path d="M193.375 7.13851V7.56954H192.736V9.81922H192.298V7.56954H191.672V7.13851H193.375ZM193.824 7.02196C193.837 7.03955 193.86 7.07913 193.903 7.13851C193.943 7.20008 193.994 7.27265 194.054 7.35842C194.115 7.44638 194.181 7.54314 194.256 7.6465C194.33 7.75206 194.407 7.85982 194.484 7.96757C194.56 8.07753 194.635 8.18308 194.709 8.28864C194.784 8.39419 194.85 8.48876 194.909 8.57453C194.969 8.6603 195.02 8.73286 195.06 8.79004C195.101 8.84722 195.126 8.8846 195.137 8.89779C195.141 8.8912 195.165 8.85821 195.201 8.80543C195.237 8.75046 195.286 8.68008 195.344 8.59652C195.403 8.51295 195.469 8.41839 195.541 8.31063C195.616 8.20508 195.693 8.09511 195.769 7.98516C195.848 7.8752 195.925 7.76525 195.999 7.65749C196.074 7.54974 196.142 7.45078 196.206 7.36282C196.267 7.27486 196.32 7.20008 196.365 7.13851L196.446 7.01976V9.81922H195.98V8.45138C195.98 8.43159 195.984 8.41179 195.988 8.3898C195.993 8.36781 195.995 8.35462 195.995 8.35022L195.137 9.6257C195.124 9.6125 195.097 9.57072 195.052 9.50475C195.005 9.43878 194.95 9.35961 194.884 9.26944C194.822 9.17928 194.754 9.08032 194.684 8.97696C194.611 8.8736 194.545 8.77684 194.484 8.68667C194.42 8.59651 194.367 8.52175 194.322 8.45797C194.279 8.3964 194.254 8.35901 194.252 8.34802C194.252 8.35241 194.252 8.36561 194.258 8.3876C194.262 8.40959 194.264 8.43159 194.264 8.44918V9.81702H193.826V7.01756L193.824 7.02196ZM186.838 13.87L183.252 17.4633L179.74 13.848V20.2804H176.92V7.09892H177.542L183.256 12.8584L189.056 7.09892H189.659V20.2804H186.838V13.8678V13.87ZM58.3087 13.87L54.7245 17.4633L51.2126 13.848V20.2804H48.3925V7.09892H49.014L54.7287 12.8584L60.5286 7.09892H61.1288V20.2804H58.3087V13.8678V13.87ZM67.1671 13.793C67.1671 10.0721 69.6999 7.02196 73.8673 7.02196C78.0347 7.02196 80.6101 10.0721 80.6101 13.793C80.6101 17.5139 78.0773 20.5641 73.8673 20.5641C69.6573 20.5641 67.1671 17.5139 67.1671 13.793ZM77.4664 13.793C77.4664 11.5433 75.8957 10.0501 73.8652 10.0501C71.8347 10.0501 70.3065 11.5433 70.3065 13.793C70.3065 16.0427 71.8772 17.5359 73.8652 17.5359C75.8531 17.5359 77.4664 16.0427 77.4664 13.793ZM98.28 20.2826H97.7841L89.6621 13.5247V20.2826H86.842V7.10113H87.3379L95.4599 13.9799V7.12311H98.28V20.2826ZM104.514 13.793C104.514 10.0721 107.049 7.02196 111.214 7.02196C115.38 7.02196 117.955 10.0721 117.955 13.793C117.955 17.5139 115.422 20.5641 111.214 20.5641C107.006 20.5641 104.514 17.5139 104.514 13.793ZM114.816 13.793C114.816 11.5433 113.245 10.0501 111.214 10.0501C109.184 10.0501 107.656 11.5433 107.656 13.793C107.656 16.0427 109.226 17.5359 111.214 17.5359C113.202 17.5359 114.816 16.0427 114.816 13.793ZM130.232 12.5593H135.97V14.0085C135.97 17.7954 133.98 20.5641 129.961 20.5641C125.943 20.5641 123.436 17.5139 123.436 13.793C123.436 10.0721 125.775 7.02196 129.961 7.02196C133.29 7.02196 134.584 8.82742 134.584 8.82742L132.843 11.1277C132.843 11.1277 131.7 10.0281 129.921 10.0281C127.89 10.0281 126.383 11.5433 126.383 13.793C126.383 16.0427 127.89 17.5579 129.921 17.5579C131.721 17.5579 132.664 16.4319 132.705 15.1565V15.0267H130.234V12.5615L130.232 12.5593ZM142.131 7.12311H147.861C151.043 7.12311 152.805 8.99015 152.805 11.8226C152.805 13.6391 152.009 14.9366 150.711 15.6952L150.577 15.781L153.538 20.0649V20.2804H150.277L147.806 16.4935H144.896V20.2804H142.055L142.127 7.12091L142.131 7.12311ZM147.661 10.0061H144.898V13.8986H147.682C149.085 13.8986 149.86 13.2498 149.86 11.9524C149.86 10.6549 149.064 10.0061 147.661 10.0061ZM164.552 7.10113H165.054L171.65 20.2826H168.215L167.413 18.5761H162.155L161.391 20.2826H157.979L164.554 7.10113H164.552ZM164.782 12.6143L163.056 16.3704H166.491L164.782 12.6143ZM4.175 0.635742L1.20588 7.51456H7.11645L14.1721 23.8891L18.2267 14.4791L12.2608 0.637943H4.17287L4.175 0.635742ZM25.2355 0.686331L21.1937 10.0589L27.7896 25.3647H35.8796L25.2355 0.686331ZM4.14094 16.7948L0.446045 25.3647H7.83585L4.14094 16.7948Z" fill="#242424"/>
</svg>
