<svg width="132" height="32" viewBox="0 0 132 32" fill="none" xmlns="http://www.w3.org/2000/svg">
<path d="M1.04741 23.2067L11.2907 13.4387V26.2185C11.2907 26.4895 11.8335 26.7092 12.5028 26.7092C13.1722 26.7092 13.7191 26.4897 13.7191 26.2185V0.45459L23.9762 10.2269V30.5127C23.9762 31.0779 23.5221 31.5364 22.9591 31.5452L2.08043 31.5459C1.50979 31.5459 1.0473 31.0833 1.0473 30.5128L1.04741 23.2067Z" fill="#242424"/>
<path d="M58.4274 13.6284H49.259C49.2188 13.6284 49.1859 13.6628 49.1859 13.7016V26.4878C49.1859 26.528 49.2202 26.561 49.259 26.561H57.446C57.4735 26.561 57.4982 26.5472 57.5109 26.5215L58.4921 24.6074C58.5161 24.5586 58.4818 24.5009 58.4275 24.5009H51.5811V21.0745H54.6904C54.7179 21.0745 54.744 21.0573 54.7561 21.0332L55.7465 19.1008C55.7706 19.0524 55.7328 18.9964 55.6809 18.9964H51.5812V15.6884H57.433C57.4605 15.6884 57.4852 15.6747 57.4979 15.6493L58.4922 13.7352C58.5162 13.6867 58.4817 13.6284 58.4274 13.6284Z" fill="#242424"/>
<path d="M87.5987 21.3952L79.3397 13.4226C79.2494 13.3261 79.0873 13.3917 79.0873 13.5222V26.4875C79.0873 26.5277 79.1217 26.5603 79.1602 26.5603H81.3908C81.431 26.5603 81.4636 26.5259 81.4636 26.4875L81.4648 18.8026L89.7224 26.7878C89.8131 26.8843 89.9749 26.8187 89.9749 26.6878V15.6041C89.9749 15.5835 89.968 15.5642 89.9508 15.5505L87.7203 13.3956C87.6736 13.3523 87.5977 13.3853 87.5977 13.4488L87.5987 21.3952Z" fill="#242424"/>
<path d="M96.3382 26.518C96.3279 26.5454 96.3 26.5606 96.2718 26.5606H93.5176C93.465 26.5606 93.4292 26.5056 93.4512 26.4572L100.212 13.4614C100.264 13.3484 100.425 13.3481 100.477 13.4608L107.24 26.4568C107.264 26.5052 107.226 26.5605 107.174 26.5605H104.489C104.462 26.5605 104.435 26.5434 104.423 26.5176C104.423 26.5176 100.384 18.4588 100.374 18.4588L96.3382 26.518Z" fill="#242424"/>
<path d="M128.409 26.4446L123.748 22.0752C125.18 21.2839 126.137 19.7478 126.085 17.9991C126.012 15.5476 123.919 13.6284 121.448 13.6284H116.365C116.307 13.6284 116.272 13.6937 116.304 13.7421L118.686 15.9977C118.7 16.0183 118.722 16.0321 118.747 16.0321H121.483C122.615 16.0321 123.591 16.9099 123.646 18.0318C123.706 19.2144 122.767 20.1972 121.594 20.2244H118.559C118.499 20.2244 118.464 20.2917 118.499 20.3404L124.985 26.5333C124.999 26.5505 125.02 26.5642 125.044 26.5642H128.349C128.409 26.564 128.443 26.4965 128.409 26.4481V26.4446Z" fill="#242424"/>
<path d="M113.203 13.449V26.4873C113.203 26.5278 113.168 26.5601 113.129 26.5601H110.813C110.773 26.5601 110.74 26.5292 110.74 26.4873V15.6582C110.74 15.6375 110.75 15.6183 110.764 15.6046L113.08 13.3953C113.128 13.3527 113.203 13.3848 113.203 13.449Z" fill="#242424"/>
<path d="M71.5859 21.395L63.3272 13.4224C63.2365 13.3259 63.0747 13.3915 63.0747 13.5224V26.4876C63.0747 26.5278 63.1091 26.5604 63.1476 26.5604H65.3781C65.4187 26.5604 65.451 26.5261 65.451 26.4876L65.4524 18.8026L73.71 26.788C73.8003 26.8845 73.9621 26.8189 73.9621 26.6881V15.6042C73.9621 15.5836 73.9553 15.5647 73.9381 15.5506L71.7075 13.3956C71.6608 13.3523 71.5849 13.3853 71.5849 13.4488L71.5859 21.395Z" fill="#242424"/>
<path d="M34.0256 23.3462C34.0256 25.1085 35.4846 26.5314 37.246 26.5459L37.2458 26.5494H37.2733H40.8184H40.8459L40.8455 26.5459C42.607 26.5322 44.066 25.1085 44.066 23.3462V13.4469C44.066 13.3837 43.9671 13.3528 43.9204 13.3961L41.637 15.5617C41.6232 15.5754 41.6026 15.5961 41.6026 15.6153V22.8376C41.6026 23.7233 40.9036 24.465 40.0169 24.465H38.074C37.1873 24.465 36.4883 23.7713 36.4883 22.8376V21.1357C36.4883 21.0725 36.3877 21.0382 36.341 21.0808L34.0631 23.2391C34.0494 23.2528 34.026 23.27 34.026 23.292L34.0256 23.3462Z" fill="#242424"/>
<path d="M130.991 14.8787C130.991 15.5882 130.435 16.1446 129.711 16.1446C128.994 16.1446 128.423 15.5882 128.423 14.8787C128.423 14.1853 128.994 13.6284 129.711 13.6284C130.435 13.6283 130.991 14.1852 130.991 14.8787ZM128.742 14.8787C128.742 15.4356 129.155 15.8776 129.718 15.8776C130.267 15.8776 130.672 15.4357 130.672 14.8866C130.672 14.3298 130.267 13.8804 129.711 13.8804C129.155 13.8803 128.742 14.3298 128.742 14.8787ZM129.513 15.5348H129.223V14.2846C129.337 14.2605 129.498 14.2458 129.703 14.2458C129.94 14.2458 130.045 14.2846 130.138 14.3378C130.207 14.3907 130.259 14.4897 130.259 14.6123C130.259 14.7493 130.153 14.8561 130.001 14.9018V14.9155C130.122 14.9615 130.191 15.0525 130.229 15.2201C130.267 15.4111 130.29 15.4874 130.321 15.5331H130.008C129.97 15.4874 129.948 15.373 129.91 15.2277C129.885 15.0904 129.811 15.0295 129.651 15.0295H129.513L129.513 15.5348ZM129.52 14.8259H129.657C129.817 14.8259 129.947 14.7727 129.947 14.6429C129.947 14.5285 129.864 14.4522 129.68 14.4522C129.604 14.4522 129.55 14.4591 129.52 14.466V14.8259Z" fill="#242424"/>
</svg>
