<svg width="121" height="22" viewBox="0 0 121 22" fill="none" xmlns="http://www.w3.org/2000/svg">
<path fill-rule="evenodd" clip-rule="evenodd" d="M107.367 9.97166V12.1049H110.751V9.97166C110.751 9.05838 109.987 8.29571 109.073 8.29571C108.128 8.29571 107.367 9.05838 107.367 9.97166ZM116.359 6.95413C111.755 4.66888 106.94 4.51551 102.215 6.5272C98.3145 8.17275 96.4866 12.6852 98.1612 16.587C99.015 18.5987 100.446 19.9997 102.49 20.7624C107.154 22.5295 111.755 22.4079 116.297 20.3354C118.278 19.4512 119.651 17.988 120.382 15.9459H114.408C113.737 18.0806 111.451 19.2978 109.289 18.6291C109.105 18.5683 108.95 18.5061 108.739 18.4149C107.884 18.0184 107.367 17.1963 107.367 16.2513V14.7273H120.534C120.929 11.4652 119.314 8.44631 116.359 6.95413ZM69.6909 9.97166C69.6909 9.05838 68.9614 8.29571 68.0177 8.29571C67.1017 8.29571 66.3418 9.05838 66.3418 9.97166V12.1049H69.6909V9.97166ZM79.4771 14.7273C79.8736 11.4652 78.2571 8.44631 75.3018 6.95413C70.7285 4.66888 65.883 4.51551 61.1592 6.5272C57.256 8.17275 55.4599 12.6852 57.1026 16.587C57.9565 18.5987 59.4197 19.9997 61.4618 20.7624C66.0958 22.5295 70.7285 22.4079 75.2714 20.3354C77.2209 19.4512 78.5942 17.988 79.3251 15.9459H73.3495C72.7098 18.0806 70.4245 19.2978 68.2581 18.6291C68.0771 18.5683 67.8933 18.5061 67.7123 18.4149C66.8571 18.0184 66.3418 17.1963 66.3418 16.2513V14.7273H79.4771ZM82.8884 17.8968V4.21155H80.5133V0.85828H94.1696V17.8968H96.5764V21.2501H80.5133V17.8968H82.8884ZM46.2829 5.52136L51.1919 2.96115L49.6362 0.00441933L44.7286 2.53422L46.2829 5.52136ZM53.1428 17.8968V5.91789H39.9439V9.27116H42.3494V17.8968H39.9439V21.2501H55.5483V17.8968H53.1428ZM20.0081 8.81383L25.771 0.85828H37.7803V4.21155H35.372V17.8968H37.7803V21.2501H22.1731V17.8968H24.5814V9.02661L15.7112 21.2501L6.81057 9.02661V17.8968H9.21878V21.2501H0.59314V17.8968H2.96958V4.21155H0.59314V0.85828H14.2176L20.0081 8.81383Z" fill="#242424"/>
</svg>
