<svg width="98" height="32" viewBox="0 0 98 32" fill="none" xmlns="http://www.w3.org/2000/svg">
<path fill-rule="evenodd" clip-rule="evenodd" d="M88.5769 28.5423H4.84694C3.69903 28.5423 2.51698 27.3751 2.51698 26.1142V4.80588C2.51698 4.0226 3.06089 3.33764 3.57261 2.93731C3.91129 2.67218 4.42379 2.47671 4.89669 2.47671H88.6762C89.1469 2.47671 89.6337 2.72076 89.9657 2.97165L90.2671 3.21551C90.6448 3.57682 91.0063 4.31797 91.0063 5.05346V25.9653C91.0063 26.7088 90.675 27.3659 90.3077 27.7448C90.3007 27.7522 90.2903 27.7625 90.2831 27.7697C90.2759 27.777 90.2652 27.7869 90.2579 27.7941C89.7977 28.2317 89.2716 28.5423 88.5769 28.5423ZM89.4692 0.155326L89.3783 0.0981646L7.92059 0.0486122C5.48898 0.0486122 4.0777 -0.321278 2.10983 0.979582C1.37863 1.46282 0.74966 2.36219 0.413129 3.19834C-0.120247 4.52398 0.0879157 6.06207 0.0879157 7.7295V23.2401C0.0879157 25.636 -0.255443 27.2362 1.086 29.0314C1.18081 29.1584 1.20734 29.1828 1.31483 29.2981L1.78442 29.7702C3.5691 31.3245 5.46304 31.0201 7.87103 31.0201H85.5032C86.6306 31.0201 88.3892 31.1079 89.317 30.9175C91.3177 30.507 92.7824 29.2072 93.3144 27.1332C93.5382 26.2607 93.4352 20.8561 93.4352 19.5233V7.87797C93.4352 5.69686 93.744 3.75259 92.465 2.05882C91.9582 1.38752 92.1462 1.59841 91.5134 1.07752C91.0561 0.701387 90.0143 0.134256 89.4692 0.155326Z" fill="#242424"/>
<path fill-rule="evenodd" clip-rule="evenodd" d="M28.4934 20.5643V11.8922C28.4934 11.7361 28.5546 11.5418 28.611 11.4154L29.102 10.717C29.2866 10.5146 30.7162 9.41453 30.8727 9.41453C31.3596 9.41453 32.03 9.86441 32.3403 10.2764C32.6197 10.6471 32.9547 11.4169 32.9547 12.0408V20.5148C32.9547 22.5035 30.7843 23.4973 29.5213 22.3611C28.9801 21.8741 28.4934 21.4024 28.4934 20.5643ZM54.0734 20.4652V12.2392C54.0734 11.2283 54.8284 10.4815 55.5502 9.99882C56.1999 9.56455 56.3559 9.35971 57.1388 9.8687C57.75 10.2661 58.188 11.2903 58.188 12.041V20.7625C58.188 21.8318 57.3169 22.2754 56.641 22.7345C56.1862 23.0433 56.4328 22.9737 55.9297 22.7723C54.9782 22.3917 54.0734 21.5905 54.0734 20.4652ZM47.0835 9.36498C47.9372 9.36498 48.6848 9.46486 49.2816 10.1908C49.6462 10.6344 49.9589 11.3563 49.9589 12.1401V20.6141C49.9589 21.6646 49.1335 22.42 48.405 22.6783C46.9793 23.1838 46.89 22.8065 46.4881 21.9032L42.0271 12.9332C42.4202 12.3463 43.0252 11.7115 43.5849 11.2692C44.257 10.738 44.72 10.3968 45.5304 9.99297C45.8191 9.8488 46.7614 9.36498 47.0835 9.36498ZM6.03654 5.69806C5.83638 6.55685 6.89123 5.72343 7.96111 7.29273C8.58091 8.20205 11.095 14.7618 11.7544 16.2362C11.8553 16.4618 11.9234 16.6346 12.0213 16.8615L13.3723 20.1197C13.5557 20.5347 13.7089 20.952 13.8907 21.3856C14.0674 21.8076 15.3031 24.9839 15.555 25.2227C15.912 25.1396 15.9727 24.6661 16.0989 24.3789L16.5324 23.3752C17.1196 21.8853 17.8073 20.4131 18.4447 18.9437C18.8159 18.0882 19.1041 17.2651 19.5044 16.435C19.9574 15.4955 20.3852 14.4198 20.7887 13.4572L21.6361 11.4796C21.8008 11.1368 21.9255 10.8402 22.0704 10.4766C22.2009 10.1494 22.4169 9.80158 22.4953 9.46427C23.5611 9.71243 24.3296 10.9331 24.3296 12.041V20.7625C24.3296 21.5458 23.7923 22.0347 23.3172 22.3771C22.3192 23.0964 21.7903 22.652 21.778 23.1758C21.7758 23.2644 21.7308 23.3395 21.9005 23.3395H39.1026C39.8568 23.3395 39.2596 22.9196 38.9707 22.7776C38.6049 22.5979 38.3035 22.4481 38.0237 22.1881C36.7523 21.0054 37.1304 20.2992 37.1199 18.7313C37.1132 17.7338 37.3631 17.9037 37.8557 17.2864C37.9634 17.1514 38.0951 17.0379 38.2233 16.9105C38.4699 16.665 38.6661 16.3465 38.9537 16.1541C39.0826 16.3978 41.2837 20.7319 41.2837 21.1096C41.2837 21.5519 41.0655 21.9814 40.8878 22.2501C40.6832 22.5597 40.3324 22.7554 40.2427 23.1413L40.3078 23.2248C40.3786 23.2958 40.3648 23.3395 40.4904 23.3395H62.3524C62.6739 23.3395 62.6739 23.1598 62.5356 22.9628C62.2338 22.5328 61.4134 22.7903 60.5673 20.9615C60.4037 20.608 60.4688 19.931 60.4688 19.4246C60.4688 17.2772 60.4688 15.1299 60.4688 12.9825C60.4766 12.9913 60.4875 12.9942 60.4905 13.0102L61.1791 14.2543C61.6134 15.1324 62.1476 15.938 62.5842 16.8143L63.998 19.415C64.0698 19.5331 64.1014 19.6125 64.1708 19.7377C64.4432 20.2282 66.0484 23.071 66.12 23.3395H70.2346V12.041C70.2346 11.3233 70.8618 10.6752 71.2752 10.3556C71.5415 10.1498 71.785 9.9678 72.0792 9.77174C72.2355 9.66756 72.3229 9.5946 72.4866 9.48515C72.6604 9.36908 72.7423 9.31425 72.7628 9.06766C72.6655 9.01615 72.6167 8.96855 72.4653 8.96855H66.1198C65.8582 8.96855 65.7743 9.43228 66.2956 9.58562C66.5041 9.64688 66.6077 9.69917 66.7806 9.79457C67.0997 9.97054 67.2773 10.1888 67.4792 10.4836C67.9464 11.1659 67.9538 11.7345 67.9538 12.8337C67.9538 14.7003 67.9538 16.5667 67.9538 18.4333C67.7219 18.1665 64.1773 10.9327 63.7731 10.1247C63.6788 9.9362 63.2763 8.96836 63.0955 8.96836H40.6884C40.5546 8.96836 40.5517 8.99196 40.4407 9.01791C40.4407 9.70463 40.9772 9.48378 41.4592 9.63498C42.1932 9.86499 42.1969 10.5804 41.691 11.0609C41.6756 11.0755 41.5899 11.1543 41.5882 11.1563L41.5447 11.2119C41.0813 11.8354 39.8654 12.9139 39.2276 13.6033C39.084 13.7586 38.9408 13.8351 38.7972 14.0155C38.6449 14.2067 37.3627 15.5932 37.1191 15.6582C37.1191 14.9149 37.1191 14.1716 37.1191 13.4283C37.1191 12.7338 37.0055 11.7765 37.2868 11.3167C37.9388 10.2511 39.3378 9.7017 39.6472 9.11701L39.4879 8.97909L22.7425 8.96855C22.7819 8.49565 23.3927 7.60448 23.7051 7.20533C23.9111 6.94196 24.1198 6.75155 24.3982 6.56017C24.663 6.37815 25.0239 6.2252 25.1718 5.94583C25.0842 5.7802 24.9831 5.64851 24.7256 5.64851H16.8434C16.6635 5.64851 16.5665 5.69006 16.4467 5.74762C16.5055 6.4515 18.2314 6.58065 18.2314 8.22526C18.2314 8.93519 17.3582 10.5488 17.0697 11.2761C16.8155 11.9169 15.086 16.0012 14.91 16.2035C14.8131 15.7873 12.9572 10.6344 12.8134 10.2714C12.6661 9.89913 12.1339 8.43362 12.1339 8.22506C12.1339 7.90629 12.1799 7.56332 12.3212 7.32199L12.7217 6.78082C13.0824 6.45209 13.7699 6.18969 13.7699 5.89589C13.7699 5.78039 13.6376 5.64812 13.5221 5.64812C12.6341 5.64851 6.36137 5.57203 6.03654 5.69806Z" fill="#242424"/>
<path fill-rule="evenodd" clip-rule="evenodd" d="M79.5544 8.62159C77.6963 8.62159 76.4259 8.87248 74.8551 9.7219C74.2167 10.067 73.6552 10.4796 73.147 10.9878C72.7896 11.3451 72.5161 11.6238 72.2268 12.0501C70.6546 14.368 70.4086 17.7787 71.438 20.3524C72.1152 22.045 73.3501 23.4863 74.9099 24.4141C76.6501 25.4491 77.3748 25.6725 79.0875 25.301C79.2832 25.2585 79.3878 25.2142 79.5579 25.1765C81.1801 24.8195 82.6083 24.2469 84.1626 25.1748C84.3009 25.2573 84.3497 25.2952 84.4749 25.4077C85.8997 26.6893 85.6517 26.3079 85.6517 23.7854V20.0191C85.6507 19.2193 85.6806 19.0893 86.2175 18.7017C86.7604 18.3096 87.1884 18.2577 87.1884 17.7397C86.65 17.6143 80.847 17.6902 79.8019 17.6902C79.2413 17.6902 80.2315 18.3057 80.2891 18.3429C81.2786 18.982 81.6309 20.1206 81.4745 21.3937C81.38 22.1624 81.0562 22.8534 80.5337 23.377C80.2826 23.6287 80.0351 23.806 79.6824 23.9631C78.4896 24.4949 77.8189 24.3925 76.8141 23.3526C76.4905 23.0179 76.0213 22.1456 75.8533 21.6372C74.8716 18.6668 74.6765 13.0261 77.3645 10.8928C78.4344 10.0436 79.5343 9.86412 80.8119 10.2385C82.5716 10.7541 83.8005 12.3166 84.6113 13.8736C84.7551 14.1497 84.8807 14.6177 85.156 14.6177C85.4976 14.6177 85.4168 14.1413 85.3897 13.9388C85.3528 13.6627 85.3283 13.3299 85.2838 13.0033L84.6538 7.83519C84.6324 7.63132 84.6056 7.57259 84.5116 7.43213C83.9199 7.58996 84.1433 9.28295 82.611 9.39298C82.0781 9.43122 81.6362 9.07479 81.1699 8.939C80.7134 8.80615 80.0989 8.62159 79.5544 8.62159Z" fill="#242424"/>
<path fill-rule="evenodd" clip-rule="evenodd" d="M93.7323 29.8312C93.7323 28.9609 94.3736 28.0988 95.3925 28.027C96.3046 27.9626 97.1528 28.7518 97.1528 29.9303C97.1528 31.7257 94.6092 32.3071 93.9003 30.5552C93.8388 30.4032 93.7323 30.0076 93.7323 29.8312ZM93.2861 29.7817C93.2861 31.4128 94.8242 32.4306 96.3194 31.8225C96.5287 31.7374 96.8192 31.5316 96.9692 31.3818C98.1632 30.1886 97.6589 27.6509 95.3188 27.6509C94.2864 27.6509 93.2861 28.647 93.2861 29.7817Z" fill="#242424"/>
<path fill-rule="evenodd" clip-rule="evenodd" d="M95.071 29.732V28.9392H95.418C95.6578 28.9392 95.8642 29.0798 95.8642 29.3356C95.8642 29.7098 95.4465 29.732 95.071 29.732ZM94.6248 28.7905V30.9709C94.6248 31.147 94.7214 31.1195 94.9223 31.1195C95.4344 31.1195 94.6106 29.884 95.4237 30.0674C96.0035 30.1981 95.6713 30.6097 96.0129 31.1195H96.4095L96.2558 30.4308C96.1824 30.0075 96.0287 30.0756 95.9633 29.8311C96.4823 29.6926 96.6703 28.3506 94.9032 28.6227C94.7432 28.6473 94.6248 28.6179 94.6248 28.7905Z" fill="#242424"/>
<path fill-rule="evenodd" clip-rule="evenodd" d="M89.469 0.155247C89.4308 0.0824788 89.5375 0.0980861 89.3781 0.0980861L89.469 0.155247Z" fill="#242424"/>
</svg>
