<svg width="170" height="26" viewBox="0 0 170 26" fill="none" xmlns="http://www.w3.org/2000/svg">
<path fill-rule="evenodd" clip-rule="evenodd" d="M165.498 9.34917C165.147 9.70076 164.948 10.1753 164.942 10.6717C164.942 11.2287 165.15 11.6471 165.498 12.0645C165.845 12.4127 166.334 12.6215 166.82 12.6215C167.378 12.6215 167.796 12.4127 168.143 12.0645C168.562 11.6471 168.701 11.2287 168.701 10.6717C168.701 10.185 168.561 9.69737 168.143 9.34917C167.796 9.00097 167.378 8.79224 166.82 8.79224C166.324 8.79752 165.849 8.99749 165.498 9.34917ZM168.423 12.2733C167.934 12.6907 167.447 12.8994 166.82 12.8994C166.536 12.9007 166.255 12.8461 165.992 12.7387C165.73 12.6312 165.491 12.4731 165.289 12.2733C164.872 11.7856 164.664 11.2979 164.664 10.6717C164.664 10.1148 164.872 9.55789 165.289 9.14044C165.491 8.94062 165.73 8.78248 165.992 8.67504C166.255 8.5676 166.536 8.51296 166.82 8.51426C167.447 8.51426 167.934 8.72299 168.423 9.14044C168.84 9.55885 169.048 10.1158 169.048 10.6717C169.048 11.2979 168.839 11.7856 168.423 12.2733ZM167.239 9.83587C167.169 9.83587 166.959 9.76566 166.75 9.76566H166.403V10.6708H166.75C166.959 10.6708 167.099 10.6015 167.169 10.6015C167.309 10.5323 167.378 10.3928 167.378 10.1841C167.378 10.0446 167.378 9.90609 167.239 9.83587ZM166.82 9.48768C167.1 9.48768 167.309 9.48768 167.447 9.5579C167.725 9.69737 167.795 9.90609 167.795 10.1841C167.797 10.2755 167.78 10.3664 167.744 10.4505C167.708 10.5345 167.654 10.6097 167.586 10.6708C167.517 10.741 167.377 10.741 167.239 10.741C167.447 10.8103 167.586 10.8805 167.656 11.0199C167.725 11.1594 167.796 11.2287 167.796 11.3672V11.8549H167.448L167.379 11.7856V11.5769C167.379 11.2979 167.31 11.0902 167.17 11.0199C167.101 10.9507 166.96 10.9507 166.682 10.9507H166.404V11.8549H165.986V9.48768H166.82ZM22.0197 0.507619C22.7854 0.507619 22.7161 1.06455 22.5766 1.69073L22.3679 2.73436C22.089 3.7097 21.6715 3.50001 21.2541 3.50001H18.33C15.2664 3.50001 14.7095 5.65846 14.2218 7.60722L10.2541 24.5949C10.0453 25.3596 9.55767 25.4981 8.86128 25.4981H3.91821C2.52637 25.4981 3.01308 24.5949 3.01308 24.2448L6.98081 7.60722C7.95519 3.63949 6.42389 3.50001 2.94286 3.50001H0.857522C0.440068 3.50001 -0.116857 3.36054 0.0216525 2.80361L0.440068 1.13284C0.57954 0.436442 1.13646 0.506657 1.62317 0.506657L22.0197 0.507619ZM73.6752 9.2097H92.0528C94.0025 9.2097 96.2312 10.185 95.4646 13.2467L92.8194 24.5958C92.68 25.4298 91.9836 25.4298 91.3574 25.499H87.5291C87.18 25.499 86.2758 25.499 86.4845 24.6651L89.1297 13.2467C89.4077 12.1338 88.7122 11.5769 87.9466 11.5769C87.1809 11.5769 86.4845 12.0645 86.2768 12.9687L83.5614 24.5958C83.4219 25.4298 82.7957 25.499 82.2388 25.499H78.3403C77.9921 25.499 77.087 25.499 77.2265 24.5958L79.9419 13.2467C80.2208 12.1338 79.3849 11.5769 78.6885 11.5769C77.9921 11.5769 77.2967 12.0645 77.087 12.9687L74.3716 24.5958C74.2322 25.0825 74.0927 25.499 73.1183 25.499H69.0804C68.5927 25.499 67.7578 25.3596 67.9665 24.5958L71.4475 9.83683C71.5168 9.48864 71.7957 9.2097 72.2834 9.2097H73.6752ZM132.431 0.507619C133.474 0.507619 133.196 1.20402 133.127 1.69073L127.767 24.5949C127.559 25.3596 126.931 25.4981 126.305 25.4981H115.792C113.355 25.4981 113.077 22.5749 113.564 20.6945L115.584 11.9231C115.931 10.2524 117.395 9.20777 119.343 9.20777H123.38C124.147 9.20777 123.729 10.1129 123.591 10.6698C123.45 11.3662 123.242 11.3662 122.893 11.3662C121.71 11.3662 121.431 12.1319 121.224 12.8283L119.134 21.8083C118.856 22.9222 119.552 23.4801 120.248 23.4801C120.945 23.4801 121.64 23.1309 121.849 22.2267L126.792 1.27135C127.001 0.436439 127.697 0.505696 128.184 0.505696H132.431V0.507619ZM99.9902 9.2097C99.2236 9.2097 98.8071 9.20969 98.5984 9.76662L98.4589 10.5323C98.3877 10.741 98.3185 11.2287 98.8764 11.2287H105.907C107.09 11.2287 106.812 11.9943 106.395 13.8738L104.446 22.1584C104.237 23.0616 103.612 23.481 102.914 23.481C102.217 23.481 101.522 22.9231 101.8 21.8093L102.984 16.797C103.123 16.241 103.262 15.8216 104.237 15.8216C104.446 15.8216 105.073 15.8216 105.212 15.2657C105.352 14.9184 105.699 14.0825 105.073 14.0825H99.8517C97.4845 14.0825 97.2046 15.8226 96.9959 16.797L96.0927 20.6252C95.6041 22.7144 96.0927 25.4981 98.4599 25.4981H108.832C109.457 25.4981 110.154 25.4288 110.363 24.5949L113.008 13.2457C113.775 10.1831 111.546 9.20873 109.527 9.20873H99.9902V9.2097ZM46.107 18.3302C45.9675 18.7476 46.1762 18.9554 46.5244 18.9554H51.606C54.0424 18.9554 54.2512 17.0769 54.3906 16.241L55.1563 12.9687C55.7825 10.5323 54.3204 9.2097 52.5804 9.2097H48.8906H42.625C41.9988 9.2097 40.8157 9.62811 40.3973 11.2287L38.0301 21.4621C37.2645 24.5247 39.5624 25.499 41.5111 25.499H51.2569C52.0927 25.499 52.3005 25.4298 52.44 24.9431L52.6487 24.1765C52.7179 23.9677 52.7882 23.4118 52.2303 23.481H45.1297C43.9466 23.481 44.1544 22.8539 44.642 20.7647L46.5908 12.5503C46.7995 11.6461 47.4267 11.2277 48.1221 11.2277C49.0272 11.2277 49.5149 11.7846 49.236 12.8985L48.5396 16.1708C48.3308 16.796 48.1914 17.2154 47.217 17.2154C46.938 17.2154 46.3821 17.2154 46.2426 17.7713L46.107 18.3302ZM30.0264 9.2097H34.3423C36.3613 9.2097 38.5187 10.2543 37.8233 13.3179L35.1782 24.5958C34.9694 25.3605 34.273 25.499 33.7161 25.499H29.8176C29.4704 25.499 28.6345 25.499 28.8433 24.5958L31.4884 13.038C31.8366 11.9241 31.07 11.2979 30.3053 11.2979C28.7038 11.2979 28.4951 11.7163 28.2171 12.6205L25.4324 24.5958C25.2237 25.3605 24.6668 25.499 23.9011 25.499H19.793C18.6791 25.499 18.8888 24.8738 18.9581 24.3159L24.3879 1.27327C24.6668 0.369107 25.3622 0.507619 25.8499 0.507619H30.0966C30.9324 0.507619 30.9324 1.1338 30.793 1.62147L29.1915 8.37479C29.052 9.07022 29.1905 9.2097 30.0264 9.2097ZM145.24 9.2097C147.189 9.2097 149.485 10.185 148.721 13.2467L146.284 23.482C145.937 25.0825 144.682 25.5 144.057 25.5H133.893C131.804 25.5 129.717 24.5247 130.412 21.463L132.849 11.1604C133.196 9.55886 134.449 9.21066 135.077 9.21066L145.24 9.2097ZM137.094 21.8093C136.816 22.9231 137.582 23.481 138.277 23.481C139.391 23.481 139.948 22.9924 140.226 21.9478L142.316 12.9677C142.594 11.9241 141.827 11.3662 141.062 11.3662C139.948 11.3662 139.391 11.8539 139.182 12.759L137.094 21.8093ZM55.6449 25.499C55.1572 25.499 54.3916 25.4298 54.6003 24.5237L58.0111 9.90514C58.1506 9.55694 58.4286 9.20873 58.9163 9.20873H69.4978C69.9845 9.20873 69.7758 9.69641 69.7066 9.90514L69.5671 10.741C69.4276 11.2979 69.0102 11.2277 68.7312 11.2277C66.7122 11.297 64.2056 10.6708 63.2322 14.7789L60.9343 24.5949C60.7948 25.0816 60.6563 25.4981 59.681 25.4981L55.6449 25.499ZM149.138 25.499C148.651 25.499 147.885 25.4298 148.094 24.5237L151.505 9.90514C151.575 9.55694 151.923 9.20873 152.41 9.20873H162.922C163.41 9.20873 163.269 9.69641 163.2 9.90514L162.991 10.741C162.852 11.2979 162.435 11.2277 162.226 11.2277C160.137 11.297 157.701 10.6708 156.725 14.7789L154.427 24.5949C154.288 25.0816 154.149 25.4981 153.174 25.4981L149.138 25.499Z" fill="#242424"/>
</svg>
