<svg width="118" height="30" viewBox="0 0 118 30" fill="none" xmlns="http://www.w3.org/2000/svg">
<g clip-path="url(#clip0_277_648)">
<path d="M113.558 27.1211C113.558 28.7049 112.257 30 110.666 30H2.89012C1.30089 30 0 28.7049 0 27.1211V2.92863C0 1.34488 1.30089 0.0498047 2.89012 0.0498047H110.666C112.257 0.0498047 113.558 1.34488 113.558 2.92863V27.1211ZM110.666 28.7816C111.586 28.7816 112.334 28.0357 112.334 27.1211V2.92863C112.334 2.01238 111.586 1.26807 110.666 1.26807H2.89012C1.97147 1.26807 1.2221 2.01238 1.2221 2.92863V27.1211C1.2221 28.0357 1.97147 28.7816 2.89012 28.7816H110.666Z" fill="#242424"/>
<path d="M115.227 1.38186C115.227 0.620849 115.853 0 116.624 0C117.388 0 118 0.620849 118 1.38186C118 2.14949 117.388 2.77034 116.624 2.77034C115.853 2.77034 115.227 2.14949 115.227 1.38186ZM117.782 1.38186C117.782 0.709265 117.298 0.181926 116.624 0.181926C115.943 0.181926 115.449 0.709265 115.449 1.38186C115.449 2.06108 115.943 2.58679 116.624 2.58679C117.298 2.58679 117.782 2.06108 117.782 1.38186ZM117.316 2.15622H117.09L116.645 1.44359H116.295V2.15622H116.106V0.609135H116.785C117.195 0.609135 117.336 0.764373 117.336 1.01974C117.336 1.32176 117.122 1.43697 116.847 1.44359L117.316 2.15622ZM116.587 1.29334C116.808 1.29334 117.132 1.33011 117.132 1.01638C117.132 0.774355 116.932 0.744306 116.739 0.744306H116.295V1.29334H116.587Z" fill="#242424"/>
<path d="M51.9646 6.75098C41.9917 6.75098 41.69 7.71225 41.69 14.9486C41.69 22.2033 41.9917 23.1663 51.9646 23.1663C61.961 23.1663 62.2829 22.2033 62.2829 14.9486C62.2829 7.71225 61.961 6.75098 51.9646 6.75098ZM56.4155 20.0221C55.6527 20.5963 54.372 20.7247 51.9646 20.7247C49.554 20.7247 48.29 20.5963 47.5289 20.0221C46.7929 19.473 46.7041 17.7424 46.7041 14.9554C46.7041 12.1883 46.7929 10.4543 47.5289 9.90025C48.29 9.33949 49.554 9.19587 51.9646 9.19587C54.372 9.19587 55.6527 9.33949 56.4155 9.90025C57.1749 10.4543 57.2436 12.1883 57.2436 14.9554C57.2436 17.7424 57.1749 19.473 56.4155 20.0221Z" fill="#242424"/>
<path d="M72.4366 19.9066C72.2404 19.9066 72.0945 19.7298 72.0945 19.5295V12.1863C72.0945 9.04209 70.3762 7.19788 67.3855 7.05934C67.2648 7.05934 67.0502 7.02267 66.9379 7.10111C66.8239 7.19788 66.7753 7.31807 66.7753 7.4616V20.3305C66.7753 21.931 67.7761 22.8656 69.5632 22.8656H81.2427C82.0574 22.8656 82.7213 22.1847 82.7213 21.3603C82.7213 20.5609 82.0574 19.9066 81.2427 19.9066H72.4366Z" fill="#242424"/>
<path d="M24.1734 20.5463C26.1616 20.5463 33.9552 22.6057 34.2218 22.6875C35.0751 22.8995 35.8546 22.6057 36.3056 22.2586C36.7397 21.8898 37.194 21.2339 37.194 20.4027V7.46209C37.194 7.31693 37.132 7.19836 37.0197 7.1016C36.9057 7.02316 36.6995 7.05983 36.5687 7.05983C33.6032 7.19836 31.8849 9.04258 31.8849 12.1868V18.6471C31.8849 18.854 31.682 19.0694 31.4423 19.0159C30.0743 18.6621 26.2421 17.7425 24.1734 17.7192C22.0913 17.7425 18.2389 18.6621 16.8827 19.0159C16.6514 19.0694 16.4385 18.854 16.4385 18.6471V12.1868C16.4385 9.04258 14.7252 7.19836 11.7647 7.05983C11.6155 7.05983 11.4043 7.02316 11.2902 7.1016C11.1696 7.19836 11.1126 7.31693 11.1126 7.46209V20.4027C11.1126 21.2339 11.5736 21.8898 12.0044 22.2586C12.4654 22.6057 13.2466 22.8995 14.11 22.6875C14.3581 22.6057 22.1483 20.5463 24.1734 20.5463Z" fill="#242424"/>
<path d="M84.5395 9.61083C84.5395 8.21236 85.6962 7.05908 87.091 7.05908H102.767C102.861 7.05908 102.987 7.10085 103.069 7.19935C103.124 7.28776 103.124 7.46134 103.117 7.60486C102.987 10.1249 101.379 11.5452 98.6699 11.5652H90.0213C89.8101 11.5652 89.6525 11.7421 89.6525 11.949V14.3573C89.6525 14.5558 89.8101 14.721 90.0213 14.721H99.1276C99.9339 14.721 100.616 15.387 100.616 16.1847C100.616 17.0158 99.9339 17.6951 99.1276 17.6951H90.0213C89.8101 17.6951 89.6525 17.8536 89.6525 18.0389V20.307C89.6525 21.7071 88.5126 22.8653 87.091 22.8653C85.6962 22.8653 84.5395 21.7071 84.5395 20.307V9.61083Z" fill="#242424"/>
<path fill-rule="evenodd" clip-rule="evenodd" d="M24.5174 4.40336C24.6482 4.27828 24.8644 4.35834 24.8879 4.53864C24.9767 5.17945 25.3154 6.45955 26.5978 7.77123C28.3195 9.53201 30.2926 11.5697 28.2156 14.0413C28.0881 14.1966 27.835 14.1064 27.8266 13.9062C27.8048 13.3154 27.6439 12.4075 26.9298 11.8618C26.9298 11.8618 26.7688 11.7249 26.5509 11.8117C26.4553 11.8501 26.3682 11.9402 26.333 12.1421C26.234 12.7012 26.7956 15.3398 24.0631 15.8855C21.3306 16.4296 19.9375 14.285 19.9375 14.285C19.9375 14.285 17.7414 11.2776 21.0975 8.0433C21.2216 7.9231 21.4295 7.99828 21.4395 8.17012C21.4781 8.91117 21.6524 10.3697 22.4051 10.6418C23.25 10.9472 23.7563 10.1561 23.8452 9.78229C23.934 9.40846 23.9441 8.50891 23.5116 6.93178C23.2132 5.84206 24.0262 4.87071 24.5174 4.40336Z" fill="#BF311A"/>
</g>
<defs>
<clipPath id="clip0_277_648">
<rect width="118" height="30" fill="white"/>
</clipPath>
</defs>
</svg>
