<svg width="120" height="26" viewBox="0 0 120 26" fill="none" xmlns="http://www.w3.org/2000/svg">
<g clip-path="url(#clip0_277_634)">
<path d="M0 0C14.7094 2.02431 41.2636 2.25671 58.5203 2.25671C75.777 2.25671 102.331 2.02431 117.041 0C115.37 3.4826 114.21 7.99109 114.21 12.9994C114.21 18.0089 115.37 22.5175 117.041 26C102.331 23.9758 75.777 23.7421 58.5203 23.7421C41.2636 23.7421 14.7094 23.9758 0 26C1.67064 22.5175 2.82898 18.0089 2.82898 12.9994C2.82898 7.99109 1.67064 3.4826 0 0ZM113.337 12.9994C113.337 8.86293 114.136 4.694 115.604 1.08256C104.331 2.46986 85.6199 3.14538 58.5203 3.14538C31.4206 3.14538 12.7098 2.46986 1.43637 1.08256C2.9047 4.694 3.70218 8.86293 3.70218 12.9994C3.70218 17.1359 2.9047 21.306 1.43637 24.9174C12.7121 23.529 31.423 22.8534 58.5203 22.8534C85.6176 22.8534 104.327 23.529 115.604 24.9174C114.136 21.306 113.337 17.1359 113.337 12.9994Z" fill="#242424"/>
<path d="M56.4443 12.6304H54.7523L55.7521 10.8674H53.7525L54.5973 9.37783L53.9347 8.9877L53.0888 10.4785L52.089 8.71436L51.0892 10.4785L50.2432 8.98652L49.5794 9.37665L50.4254 10.8674H48.4247L49.4245 12.6304H47.7349V13.4107H49.4256L48.4247 15.1725L50.4254 15.1737L49.5794 16.6633L50.2432 17.0546L51.0892 15.5639L52.089 17.3268L53.0888 15.5627L53.9347 17.0546L54.5973 16.6633L53.7525 15.1725L55.7521 15.1737L54.7523 13.4107H56.4443V12.6304ZM50.8703 14.3885H49.7628L50.3166 13.4107H51.4252L50.8703 14.3885ZM50.3166 12.6304L49.7628 11.6538L50.8703 11.6526L51.4252 12.6304H50.3166ZM52.089 15.7541L51.5353 14.7775L52.089 13.8009L52.6427 14.7775L52.089 15.7541ZM52.089 12.2402L51.5353 11.2637L52.089 10.287L52.6427 11.2637L52.089 12.2402ZM53.3065 14.3885L52.7527 13.4107H53.8614L54.4151 14.3885H53.3065ZM53.8614 12.6304H52.7527L53.3065 11.6538H54.4151L53.8614 12.6304Z" fill="#0080C5"/>
<path d="M17.086 11.8473H11.951C11.4493 11.8461 11.0399 11.4294 11.0399 10.9201V10.6058C11.0399 10.0928 11.4481 9.67738 11.951 9.67738H19.521V7.27734H11.951C10.1478 7.27734 8.68182 8.76937 8.68182 10.6058V10.9201C8.68182 12.7541 10.1478 14.2473 11.951 14.2473H17.086C17.5889 14.2485 17.9982 14.664 17.9994 15.1745V15.4876C17.9982 15.9995 17.5889 16.4173 17.086 16.4185H9.20127V18.8173H17.086C17.9604 18.8173 18.7815 18.4692 19.3991 17.8418C20.0168 17.2156 20.3551 16.38 20.3551 15.4889V15.1745C20.3551 14.2847 20.0168 13.4489 19.3991 12.8203C18.7815 12.1929 17.9592 11.8473 17.086 11.8473Z" fill="#242424"/>
<path d="M30.8842 15.4883C30.8842 16.0013 30.4665 16.418 29.953 16.418H25.2262C24.7257 16.4168 24.3163 16.0001 24.3163 15.4883V7.27686H21.957V15.4883C21.957 17.3236 23.423 18.8168 25.2262 18.8168H29.953C30.8356 18.8168 31.6627 18.4712 32.2815 17.8425C32.9003 17.2164 33.241 16.3806 33.241 15.4883V7.27686H30.8842V15.4883Z" fill="#242424"/>
<path d="M43.4023 7.27686H35.4063V18.8168H43.4023C44.2849 18.8168 45.1108 18.4699 45.7284 17.8425C46.3484 17.2164 46.6892 16.3806 46.6892 15.4884V15.0272C46.6892 14.2336 46.4241 13.4846 45.939 12.8957C46.4241 12.2924 46.6892 11.5398 46.6892 10.7534V10.6053C46.6892 9.71415 46.3484 8.87729 45.7284 8.25108C45.1108 7.6237 44.2838 7.27686 43.4023 7.27686ZM37.7632 14.0999H43.4023C43.9146 14.0999 44.3323 14.5153 44.3323 15.0272V15.4884C44.3323 16.0013 43.9146 16.4192 43.4023 16.4192H37.7632V14.0999ZM43.4023 11.6806H37.7632V9.67806H43.4023C43.9146 9.67806 44.3323 10.0935 44.3323 10.6053V10.7534C44.3323 11.2724 43.9229 11.6794 43.4023 11.6806Z" fill="#242424"/>
<path d="M70.3266 8.25226C69.7078 8.87972 69.3682 9.71422 69.3682 10.6053V15.4884C69.3682 16.3795 69.7078 17.2152 70.3266 17.8414C70.9419 18.47 71.7642 18.8168 72.6386 18.8168H80.6535V16.418H72.6397C72.1357 16.4168 71.7263 16.0001 71.7263 15.4884V14.2456H79.307V11.8469H71.7263V10.6053C71.7263 10.0936 72.1357 9.67806 72.6386 9.67806H80.6535V7.27686H72.6386C71.7642 7.27686 70.9419 7.6237 70.3266 8.25226Z" fill="#242424"/>
<path d="M94.4146 12.1221V10.6048C94.4146 9.71484 94.0738 8.87916 93.455 8.25052C92.8362 7.62313 92.0092 7.27637 91.1265 7.27637H83.1306V18.8163H85.4887V15.4674H88.533L91.8281 18.8163H95.2097L91.8305 15.3927C93.3261 15.0652 94.4122 13.7273 94.4146 12.1221ZM85.4887 9.6775H91.1265C91.6483 9.6775 92.0565 10.0845 92.0565 10.6048V12.1221C92.0565 12.6327 91.64 13.0481 91.1265 13.0493H85.4887V9.6775Z" fill="#242424"/>
<path d="M107.131 8.25157C106.514 7.62294 105.687 7.27734 104.804 7.27734H100.078C99.203 7.27734 98.3818 7.62294 97.7654 8.25275C97.1478 8.88013 96.8082 9.71464 96.8082 10.6057V15.4889C96.8082 16.3787 97.1478 17.2145 97.7654 17.8407C98.3806 18.4692 99.2018 18.8161 100.078 18.8161H104.804C105.687 18.8161 106.514 18.4704 107.13 17.843C107.75 17.2181 108.091 16.3824 108.091 15.4889V10.6057C108.091 9.71229 107.75 8.87653 107.131 8.25157ZM99.1675 10.6057C99.1686 10.094 99.5768 9.6773 100.078 9.6773H104.804C105.316 9.6773 105.734 10.0928 105.734 10.6057V15.4889C105.734 16.0006 105.316 16.4185 104.804 16.4185H100.078C99.5768 16.4173 99.1686 15.9994 99.1675 15.4889V10.6057Z" fill="#242424"/>
<path d="M59.881 16.4184C59.7567 16.4184 59.6585 16.3173 59.6585 16.192C59.6585 16.1162 59.6952 16.0488 59.752 16.0066L66.4689 11.769C67.27 11.2247 67.7136 10.4179 67.7113 9.58095C67.7113 8.97282 67.4604 8.38277 67.0226 7.9661C66.5588 7.52055 65.9034 7.27734 65.1793 7.27734H56.6935V9.6773H64.4835C64.6078 9.6773 64.7072 9.77844 64.7072 9.90368C64.7072 9.97953 64.6693 10.0482 64.6125 10.0891L57.6802 14.4676C56.9325 14.9445 56.5195 15.6899 56.5207 16.4859C56.5195 17.094 56.781 17.6889 57.2377 18.1152C57.7252 18.5679 58.4138 18.8172 59.177 18.8172H67.5279V16.4184H59.881Z" fill="#242424"/>
<path d="M117.883 1.14705C117.883 0.554575 118.36 0.0693359 118.948 0.0693359C119.533 0.0693359 120 0.554575 120 1.14705C120 1.7468 119.533 2.23204 118.948 2.23204C118.36 2.23204 117.883 1.7468 117.883 1.14705ZM119.833 1.14705C119.833 0.622047 119.464 0.211409 118.948 0.211409C118.43 0.211409 118.051 0.622047 118.051 1.14705C118.051 1.67815 118.43 2.08879 118.948 2.08879C119.464 2.08879 119.833 1.67815 119.833 1.14705ZM119.478 1.75158H119.304L118.966 1.19526H118.699V1.75158H118.553V0.544947H119.071C119.385 0.544947 119.492 0.665412 119.492 0.864079C119.492 1.10133 119.329 1.19041 119.12 1.19526L119.478 1.75158ZM118.921 1.0784C119.089 1.0784 119.336 1.10736 119.336 0.861653C119.336 0.67379 119.184 0.650932 119.038 0.650932H118.699V1.0784H118.921Z" fill="#242424"/>
</g>
<defs>
<clipPath id="clip0_277_634">
<rect width="120" height="26" fill="white"/>
</clipPath>
</defs>
</svg>
