<svg width="96" height="36" viewBox="0 0 96 36" fill="none" xmlns="http://www.w3.org/2000/svg">
<g clip-path="url(#clip0_277_588)">
<path d="M92.8514 35.2173C94.1554 35.2173 95.2124 34.1521 95.2124 32.8376" stroke="#242424" stroke-width="0.835935" stroke-miterlimit="2.6131"/>
<path d="M95.2106 32.8374V3.02911V32.8374Z" fill="#242424"/>
<path d="M95.2106 32.8374V3.02911" stroke="#242424" stroke-width="0.835935" stroke-miterlimit="2.6131"/>
<path d="M95.2107 3.03076C95.2107 1.71679 94.1537 0.651717 92.8497 0.651717" stroke="#242424" stroke-width="0.835935" stroke-miterlimit="2.6131"/>
<path d="M92.8514 0.650879H3.12279H92.8514Z" fill="#242424"/>
<path d="M92.8514 0.650879H3.12279" stroke="#242424" stroke-width="0.835935" stroke-miterlimit="2.6131"/>
<path d="M3.12205 0.651224C1.81815 0.651224 0.760925 1.7163 0.760925 3.03027" stroke="#242424" stroke-width="0.835935" stroke-miterlimit="2.6131"/>
<path d="M0.760925 3.03106V32.8394V3.03106Z" fill="#242424"/>
<path d="M0.760925 3.03106V32.8394" stroke="#242424" stroke-width="0.835935" stroke-miterlimit="2.6131"/>
<path d="M0.760956 32.8376C0.760956 34.1521 1.81818 35.2173 3.12208 35.2173" stroke="#242424" stroke-width="0.835935" stroke-miterlimit="2.6131"/>
<path d="M3.12199 35.2173H92.8506H3.12199Z" fill="#242424"/>
<path d="M3.12199 35.2173H92.8506" stroke="#242424" stroke-width="0.835935" stroke-miterlimit="2.6131"/>
<path fill-rule="evenodd" clip-rule="evenodd" d="M39.7054 3.82937C27.5789 6.22889 16.1554 10.5745 6.7644 17.1749L6.80616 17.2731C29.1873 5.70107 52.669 4.99949 62.3222 4.99949C70.3137 4.99949 79.0947 6.10251 79.0947 8.4554C79.0947 10.3768 75.106 12.0351 72.823 12.9114L72.8472 12.9886C75.1312 12.6279 83.7822 10.8206 83.7822 6.92522C83.7822 5.67481 82.7068 4.64415 80.8425 3.83002L89.7798 3.83109C91.0589 3.83109 92.1655 4.94643 92.1655 6.23543V20.6599C92.1655 21.9493 91.0589 23.064 89.7798 23.064H6.18866C4.90932 23.064 3.80238 21.9493 3.80238 20.6599V6.23543C3.80238 4.94643 4.90932 3.83109 6.18866 3.83109L39.7054 3.82937ZM24.3296 12.2869H21.065L18.7395 20.82H22.0044L22.9884 17.1566L25.4927 20.82H29.2716L25.9623 16.3374L30.9043 12.2869H27.4383L23.3908 15.6088L24.3296 12.2869ZM34.7234 14.2861C32.5989 14.2861 29.9536 15.052 29.2465 17.6371C28.5735 20.0991 30.9096 20.9788 32.9 20.9788C35.3879 20.9788 37.1992 19.8644 37.7246 18.9884H34.6277C34.6277 18.9884 34.1573 19.9757 33.1731 19.9757C31.8098 19.9757 32.3132 18.0439 32.3132 18.0439H38.2496C39.0327 16.1437 38.0488 14.2861 34.7234 14.2861ZM34.5014 15.2674C35.5663 15.2674 35.3566 16.8211 35.3566 16.8211H32.6737C32.6737 16.8211 33.3946 15.2674 34.5014 15.2674ZM86.5973 14.2861C84.4728 14.2861 81.8276 15.052 81.1203 17.6371C80.447 20.0991 82.7831 20.9788 84.7727 20.9788C87.261 20.9788 89.0726 19.8644 89.5977 18.9884H86.5005C86.5005 18.9884 86.0303 19.9757 85.0462 19.9757C83.6833 19.9757 84.1864 18.0439 84.1864 18.0439H90.1238C90.9063 16.1437 89.9223 14.2861 86.5973 14.2861ZM86.3753 15.2674C87.4399 15.2674 87.2303 16.8211 87.2303 16.8211H84.547C84.547 16.8211 85.2682 15.2674 86.3753 15.2674ZM43.4597 14.4383H40.4518L38.7081 20.8318H41.8611C41.8611 20.8318 42.5654 18.26 42.7416 17.612C42.9179 16.9632 43.4711 15.8012 44.6005 15.8012C45.7297 15.8012 45.1343 17.1677 45.0111 17.612C44.8883 18.0557 44.1418 20.8318 44.1418 20.8318H47.284C47.284 20.8318 48.1779 17.5833 48.3463 16.9515C48.5134 16.3205 49.2515 14.2946 45.9982 14.2946C44.0192 14.2946 43.264 15.097 43.264 15.097L43.4597 14.4383ZM53.8353 14.4372H50.8163L49.0724 20.8318H52.2365C52.2365 20.8318 52.9603 18.1918 53.1167 17.612C53.2736 17.0314 53.6004 15.7573 54.5506 15.7573C55.3336 15.7573 55.0203 16.4055 54.6822 17.612C54.5425 18.1107 53.8014 20.8318 53.8014 20.8318H56.9658C56.9658 20.8318 57.4763 18.8707 57.7585 17.8848C58.0965 16.7015 58.3829 15.7653 59.2804 15.7653C60.0936 15.7653 59.733 16.4197 59.1708 18.4677C59.0397 18.9465 58.5307 20.8429 58.5307 20.8429H61.6838C61.6838 20.8429 62.2927 18.555 62.5647 17.612C62.9253 16.3603 63.8749 14.3541 60.7336 14.2893C58.9451 14.2523 58.0841 15.1543 58.0841 15.1543C58.0841 15.1543 57.8267 14.2893 56.0156 14.2893C54.3496 14.2893 53.6563 15.052 53.6563 15.052L53.8353 14.4372ZM69.354 14.2893C66.5475 14.2893 63.8803 15.6764 63.7749 18.385C63.6857 20.6836 66.5029 20.9681 67.5428 20.9681C69.958 20.9681 72.887 19.9669 73.1331 16.8378C73.2675 15.1313 71.344 14.2893 69.354 14.2893ZM69.8683 17.6343C69.5442 18.8858 68.7391 19.9812 67.7863 19.9812C66.7576 19.9812 66.7351 18.8287 67.0371 17.612C67.3386 16.3942 68.1915 15.2894 69.074 15.2894C70.1811 15.2894 70.1929 16.3827 69.8683 17.6343ZM75.1796 14.4319L73.4518 20.8141H76.6049C76.6049 20.8141 77.209 18.6182 77.41 17.8845C77.6115 17.1508 77.963 15.8648 79.0534 15.8648C79.7526 15.8648 80.0595 16.5474 80.0595 16.5474H80.2949L81.1166 14.5163C81.1166 14.5163 80.8645 14.2778 79.8252 14.2778C78.7852 14.2778 77.9802 15.0458 77.9802 15.0458L78.1479 14.4316L75.1796 14.4319Z" fill="#242424"/>
<path fill-rule="evenodd" clip-rule="evenodd" d="M12.8004 27.4866H12.5908C12.5908 27.322 12.4747 27.2287 12.1491 27.2287H8.38632V28.6726H10.6693C10.972 28.6726 11.1585 28.6264 11.1585 28.2767H11.368V30.1036H11.1585C11.1585 29.7517 10.972 29.6813 10.6693 29.6813H8.38632V31.3014H12.2686C12.4991 31.3014 12.6607 31.1839 12.6607 30.9961H12.8704V32.6377H12.6607C12.6607 32.4032 12.4991 32.3798 12.2686 32.3798H6.85078V32.1692C6.9551 32.1692 7.06027 32.0993 7.06027 31.9586V26.642C7.06027 26.5013 6.9551 26.431 6.85078 26.431V26.2204H12.1496C12.4748 26.2204 12.5909 26.1033 12.5909 25.9392H12.8005L12.8004 27.4866Z" fill="#242424"/>
<path fill-rule="evenodd" clip-rule="evenodd" d="M32.8447 32.6377C32.8447 32.4032 32.6815 32.3798 32.4489 32.3798H26.9113L26.918 32.1692C27.1622 32.1692 27.2669 32.0988 27.2669 31.9586V26.6416C27.2669 26.5013 27.1622 26.431 26.918 26.431V26.2199H28.9183V26.431C28.6974 26.431 28.5931 26.5013 28.5931 26.6416V31.3014H32.4495C32.6817 31.3014 32.8444 31.1843 32.8444 30.9969H33.0535V32.6377H32.8447Z" fill="#242424"/>
<path fill-rule="evenodd" clip-rule="evenodd" d="M46.8109 32.3804V32.1691C47.0084 32.1691 47.1133 32.0992 47.1133 31.9585V26.6419C47.1133 26.5012 47.0084 26.4309 46.8109 26.4309V26.2199H48.7416V26.4309C48.544 26.4309 48.4395 26.5012 48.4395 26.6419V31.9585C48.4395 32.0992 48.544 32.1691 48.7416 32.1691V32.3804H46.8109Z" fill="#242424"/>
<path fill-rule="evenodd" clip-rule="evenodd" d="M66.9636 31.9585C66.9636 32.0992 67.0684 32.1691 67.2199 32.1691V32.3804H65.4276V32.1691C65.5324 32.1691 65.6372 32.0992 65.6372 31.9585V27.2987H63.7148C63.5751 27.2987 63.4123 27.3691 63.4123 27.5799H63.2027V25.9391H63.4123C63.4123 26.1501 63.5751 26.2203 63.7148 26.2203H68.8854C69.0251 26.2203 69.1885 26.1501 69.1885 25.9391H69.3981V27.5799H69.1885C69.1885 27.3691 69.0251 27.2987 68.8854 27.2987H66.9636V31.9585Z" fill="#242424"/>
<path fill-rule="evenodd" clip-rule="evenodd" d="M88.9068 27.4866H88.6977C88.6977 27.322 88.5811 27.2287 88.2554 27.2287H84.4924V28.6726H86.7759C87.0785 28.6726 87.2655 28.6264 87.2655 28.2767H87.4745V30.1036H87.2655C87.2655 29.7517 87.0785 29.6813 86.7759 29.6813H84.4924V31.3014H88.3747C88.6058 31.3014 88.7671 31.1839 88.7671 30.9961H88.9766V32.6377H88.7671C88.7671 32.4032 88.6058 32.3798 88.3747 32.3798H82.9569V32.1692C83.0617 32.1692 83.1665 32.0993 83.1665 31.9586V26.642C83.1665 26.5013 83.0617 26.431 82.9569 26.431V26.2204H88.256C88.5811 26.2204 88.6977 26.1033 88.6977 25.9392H88.9068V27.4866Z" fill="#242424"/>
</g>
<defs>
<clipPath id="clip0_277_588">
<rect width="94.8889" height="35" fill="white" transform="translate(0.544678 0.433594)"/>
</clipPath>
</defs>
</svg>
