<svg width="212" height="14" viewBox="0 0 212 14" fill="none" xmlns="http://www.w3.org/2000/svg">
<g clip-path="url(#clip0_277_572)">
<path d="M0.00384521 13.2272V0.640137H8.99637V3.40837H3.33527V5.99308H8.54597V8.76131H3.33527V13.2272H0.00384521Z" fill="#242424"/>
<path d="M18.6412 13.2272H15.3253V0.640137H18.6412V13.2272Z" fill="#242424"/>
<path d="M25.0556 9.25083C26.3309 10.122 27.8304 10.6204 29.381 10.6885C30.3595 10.6885 31.2758 10.4591 31.2758 9.61789C31.2758 9.02907 30.8409 8.79966 30.1964 8.61613L28.2628 8.08083C26.1117 7.44613 24.9935 6.43671 24.9935 4.44848C24.9935 2.0473 27.1368 0.472008 29.8858 0.472008C31.2634 0.447396 32.6243 0.771251 33.8385 1.4126V4.47142C32.6991 3.68452 31.3471 3.2505 29.9557 3.22495C28.9617 3.22495 28.255 3.50789 28.255 4.20377C28.255 4.71613 28.6045 4.9226 29.2723 5.12907L31.2059 5.7026C33.5356 6.42142 34.5995 7.5073 34.5995 9.39613C34.5995 12.1032 32.1223 13.4949 29.3732 13.4949C27.8643 13.4989 26.378 13.1337 25.0478 12.432L25.0556 9.25083Z" fill="#242424"/>
<path d="M52.4525 0.640137V13.2272H49.1211V8.18778H44.2676V13.2272H40.8973V0.640137H44.2676V5.41955H49.1599V0.640137H52.4525Z" fill="#242424"/>
<path d="M68.6747 0.640137V3.40837H62.9049V5.41955H68.2166V8.18778H62.9049V10.4819H68.7136V13.2501H59.5347V0.640137H68.6747Z" fill="#242424"/>
<path d="M75.524 0.640137H80.9599C83.8098 0.640137 85.9764 2.16955 85.9764 4.98367C86.0132 5.85467 85.761 6.71377 85.2581 7.43116C84.7551 8.14856 84.0287 8.68525 83.1886 8.96014L86.5589 13.2272H82.6761L79.6553 9.33484H78.8244V13.2272H75.524V0.640137ZM78.8554 6.55131H80.7657C81.9694 6.55131 82.746 5.9319 82.746 4.96837C82.746 4.00484 81.9694 3.39308 80.7657 3.39308H78.8709L78.8554 6.55131Z" fill="#242424"/>
<path d="M106.485 12.1795C105.502 13.0123 104.241 13.4588 102.944 13.4337C100.242 13.4337 97.9897 11.6901 97.9897 8.84543C98.0077 8.02146 98.2249 7.21358 98.6233 6.48878C99.0217 5.76399 99.5899 5.14316 100.281 4.67778L99.007 3.14837V0.640137H107.549V3.40837H102.991L106.446 7.7519L107.223 6.56661H110.679L108.217 10.0537L110.756 13.2272H107.285L106.485 12.1795ZM104.738 10.0537L102.051 6.78837C101.716 7.01078 101.442 7.31015 101.251 7.66058C101.06 8.01101 100.959 8.40194 100.956 8.79955C100.953 9.05676 101.003 9.31195 101.102 9.54974C101.202 9.78752 101.349 10.003 101.536 10.1831C101.722 10.3631 101.944 10.5042 102.187 10.5976C102.431 10.691 102.691 10.7349 102.952 10.7266C103.28 10.737 103.607 10.6828 103.914 10.5673C104.22 10.4518 104.501 10.2771 104.738 10.0537Z" fill="#242424"/>
<path d="M126.264 13.2272H122.933V0.640137H128.369C131.219 0.640137 133.385 2.16955 133.385 4.98367C133.385 7.79778 131.219 9.33484 128.369 9.33484H126.264V13.2272ZM126.264 6.56661H128.136C129.347 6.56661 130.116 5.9472 130.116 4.98367C130.116 4.02014 129.339 3.40837 128.136 3.40837H126.241L126.264 6.56661Z" fill="#242424"/>
<path d="M145.997 10.9101H140.879L139.963 13.2043H136.678L141.881 0.640137H145.049L150.252 13.2272H146.897L145.997 10.9101ZM141.982 8.1419H144.894L143.442 4.45602L141.982 8.1419Z" fill="#242424"/>
<path d="M157.288 13.2272V8.34837L152.457 0.640137H156.208L159.058 5.49602L161.908 0.640137H165.449L160.619 8.34837V13.2272H157.288Z" fill="#242424"/>
<path d="M173.487 5.99308L177.571 0.640137H181.454L176.733 6.66602L181.64 13.2272H177.688L173.487 7.59131V13.2272H170.155V0.640137H173.487V5.99308Z" fill="#242424"/>
<path d="M195.751 0.640137V3.40837H189.934V5.41955H195.246V8.18778H189.934V10.4819H195.751V13.2501H186.603V0.640137H195.751Z" fill="#242424"/>
<path d="M202.6 0.640137H205.931V10.459H211.678V13.2272H202.6V0.640137Z" fill="#242424"/>
</g>
<defs>
<clipPath id="clip0_277_572">
<rect width="212" height="13" fill="white" transform="translate(0.00384521 0.433594)"/>
</clipPath>
</defs>
</svg>
