<svg width="160" height="26" viewBox="0 0 160 26" fill="none" xmlns="http://www.w3.org/2000/svg">
<path d="M132.01 19.347L131.698 1.45459H137.34V24.006H129.228L123.598 5.49849H123.477L123.789 24.006H118.183V1.45459H126.647L131.884 19.347H132.01Z" fill="#242424"/>
<path d="M29.4529 3.56613L26.3316 24.2433H20.1786L24.4041 1.45459H34.5405L38.7466 24.2433H32.6178L29.5813 3.56613H29.4529Z" fill="#242424"/>
<path d="M53.0771 24.2433L49.2656 3.75501H49.1421L48.9993 24.2433H43.2918L43.7955 1.45459H53.094L55.9078 18.8748H56.0289L58.8451 1.45459H68.1388L68.6328 24.2433H62.9374L62.7873 3.75501H62.6686L58.8596 24.2433H53.0771Z" fill="#242424"/>
<path d="M10.5821 17.8141C10.8048 18.3662 10.737 19.0757 10.6329 19.5043C10.4416 20.2622 9.92826 21.0347 8.4124 21.0347C6.98372 21.0347 6.11683 20.2162 6.11683 18.9643V16.7583H0.00497197L0.00012207 18.5236C0.00012207 23.6039 4.00044 25.1367 8.28648 25.1367C12.4079 25.1367 15.8028 23.7274 16.3428 19.9305C16.6188 17.9618 16.413 16.6736 16.3186 16.1869C15.3572 11.4165 6.70767 9.99269 6.06355 7.3242C5.95458 6.86654 5.98606 6.38224 6.03933 6.12314C6.19673 5.39669 6.69556 4.59517 8.12182 4.59517C9.45364 4.59517 10.2406 5.41848 10.2406 6.66313C10.2406 7.08205 10.2406 8.07002 10.2406 8.07002H15.9239V6.46941C15.9239 1.50535 11.4683 0.730469 8.24047 0.730469C4.18689 0.730469 0.874285 2.06956 0.268911 5.77929C0.10425 6.80358 0.0800345 7.71648 0.319761 8.85943C1.315 13.516 9.41006 14.8647 10.5821 17.8141Z" fill="#242424"/>
<path d="M84.685 17.773C84.9102 18.3203 84.8375 19.0104 84.7358 19.439C84.5494 20.1945 84.0408 20.9549 82.5347 20.9549C81.1254 20.9549 80.2657 20.1364 80.2657 18.9135L80.2609 16.7269H74.212L74.2047 18.468C74.2047 23.4974 78.1687 25.0157 82.4112 25.0157C86.489 25.0157 89.8524 23.6258 90.3827 19.8628C90.6588 17.9086 90.4626 16.6373 90.3633 16.1603C89.4069 11.4335 80.8444 10.0242 80.2076 7.38237C80.0986 6.92713 80.1301 6.44768 80.1858 6.20311C80.348 5.47181 80.8372 4.68967 82.2489 4.68967C83.5686 4.68967 84.3387 5.49361 84.3387 6.72857C84.3387 7.14265 84.3387 8.12093 84.3387 8.12093H89.9783V6.53727C89.9783 1.62648 85.5591 0.856445 82.3627 0.856445C78.3552 0.856445 75.0692 2.17858 74.4759 5.86168C74.3113 6.87144 74.2943 7.76739 74.5292 8.90549C75.5099 13.5136 83.5251 14.8527 84.685 17.773Z" fill="#242424"/>
<path d="M103.827 20.8337C105.408 20.8337 105.902 19.7392 106.011 19.1799C106.057 18.9329 106.069 18.6035 106.064 18.3081V1.44482H111.827V17.7923C111.839 18.2113 111.798 19.0733 111.779 19.2888C111.374 23.5434 108.011 24.9236 103.824 24.9236C99.6326 24.9236 96.2667 23.5434 95.8671 19.2888C95.8478 19.0733 95.8066 18.2113 95.8187 17.7923V1.44482H101.577V18.3081C101.577 18.6035 101.587 18.9353 101.63 19.1799C101.754 19.7392 102.233 20.8337 103.827 20.8337Z" fill="#242424"/>
<path d="M151.365 20.5938C153.017 20.5938 153.593 19.5502 153.7 18.9424C153.741 18.6809 153.753 18.3636 153.751 18.0755V14.7677H151.411V11.4406H159.492V17.5573C159.487 17.9835 159.477 18.2983 159.41 19.0586C159.029 23.2042 155.433 24.6837 151.394 24.6837C147.348 24.6837 143.757 23.2042 143.372 19.0586C143.307 18.2983 143.297 17.9835 143.29 17.5573L143.295 7.96089C143.295 7.5565 143.345 6.83974 143.389 6.45957C143.895 2.20016 147.348 0.82959 151.394 0.82959C155.436 0.82959 158.974 2.19289 159.393 6.45957C159.468 7.18601 159.443 7.96089 159.443 7.96089V8.72124H153.697V7.44511C153.702 7.44754 153.69 6.9027 153.622 6.57822C153.525 6.07455 153.087 4.91707 151.351 4.91707C149.69 4.91707 149.203 6.01159 149.082 6.57822C149.012 6.87848 148.985 7.2853 148.985 7.65336V18.0755C148.98 18.3636 148.997 18.6809 149.043 18.9424C149.142 19.5526 149.716 20.5938 151.365 20.5938Z" fill="#242424"/>
</svg>
