<svg width="163" height="24" viewBox="0 0 163 24" fill="none" xmlns="http://www.w3.org/2000/svg">
<path fill-rule="evenodd" clip-rule="evenodd" d="M55.6719 8.06153C55.6198 8.06153 55.5682 8.07179 55.5201 8.09172C55.472 8.11165 55.4283 8.14086 55.3914 8.17769C55.3546 8.21451 55.3254 8.25822 55.3055 8.30634C55.2855 8.35445 55.2753 8.40602 55.2753 8.4581V10.2694C55.2753 10.4898 55.4533 10.6678 55.6719 10.6678H56.3285C56.5461 10.6678 56.7251 10.4898 56.7251 10.2694V8.4581C56.7251 8.35293 56.6833 8.25206 56.6089 8.17769C56.5345 8.10332 56.4337 8.06153 56.3285 8.06153H55.6719ZM57.2526 5.00704C61.1325 4.99597 63.7581 7.3929 63.7517 11.0247L63.7351 12.5363C63.6687 12.8047 63.5811 12.9421 63.4686 12.9568H55.5317C55.4623 12.9952 55.4038 13.0507 55.3618 13.118C55.3199 13.1853 55.2958 13.2622 55.2919 13.3414V15.719C55.3361 15.9246 55.5224 16.1294 55.6202 16.11H56.5554C56.6974 16.0787 56.7693 15.8822 56.7712 15.7439V14.2083H63.7323C63.7323 17.4122 60.3855 19.313 57.6141 19.313H55.0862C52.0889 19.313 48.4516 17.664 48.4562 13.6421V10.8071C48.4755 7.34587 50.8577 5.01718 54.5366 5.00704H57.2526ZM39.7188 8.06153C39.6666 8.06141 39.6149 8.07157 39.5666 8.09144C39.5183 8.1113 39.4744 8.14048 39.4374 8.1773C39.4004 8.21413 39.3711 8.25788 39.351 8.30606C39.3309 8.35424 39.3205 8.4059 39.3204 8.4581V10.2694C39.3204 10.4898 39.4983 10.6678 39.7188 10.6678H40.3736C40.4259 10.6679 40.4778 10.6577 40.5262 10.6377C40.5746 10.6178 40.6185 10.5884 40.6556 10.5514C40.6926 10.5144 40.7219 10.4704 40.7419 10.422C40.7619 10.3736 40.7721 10.3218 40.772 10.2694V8.4581C40.7719 8.4059 40.7615 8.35424 40.7414 8.30606C40.7213 8.25788 40.6919 8.21413 40.6549 8.1773C40.6179 8.14048 40.574 8.1113 40.5257 8.09144C40.4775 8.07157 40.4258 8.06141 40.3736 8.06153H39.7188ZM41.2986 5.00704C45.1785 4.99597 47.8032 7.3929 47.7968 11.0247L47.7802 12.5363C47.7165 12.8047 47.6261 12.9421 47.5145 12.9568H39.5786C39.5089 12.995 39.4503 13.0504 39.4081 13.1178C39.366 13.1851 39.3418 13.2621 39.3379 13.3414V15.719C39.3821 15.9246 39.5684 16.1294 39.668 16.11H40.6004C40.7452 16.0787 40.8172 15.8822 40.819 15.7439V14.2083H47.7783C47.7783 17.4122 44.4315 19.313 41.6619 19.313H39.1331C36.1349 19.313 32.4966 17.664 32.5003 13.6421V10.8071C32.5197 7.34587 34.9046 5.01718 38.5807 5.00704H41.2986ZM24.0728 9.22449C23.9676 9.22449 23.8667 9.26627 23.7924 9.34064C23.718 9.41501 23.6762 9.51588 23.6762 9.62106V14.6741C23.6762 14.8945 23.8542 15.0734 24.0728 15.0734H24.7414C24.96 15.0734 25.138 14.8954 25.138 14.6741V9.62106C25.1377 9.51596 25.0959 9.41523 25.0216 9.34091C24.9473 9.2666 24.8465 9.22474 24.7414 9.22449H24.0728ZM23.7131 23.5H16.8857V5.38332L23.7814 5.39346L23.7952 6.05379C26.3913 4.87424 29.2964 4.45646 30.9519 6.81834C31.9995 8.31608 32.2098 12.4284 32.0032 14.4629C31.7238 17.2352 30.2233 19.1488 27.3689 19.1138C26.0815 19.099 24.3356 18.9044 23.7131 17.8816C23.691 17.8484 23.7131 23.5 23.7131 23.5ZM16.0529 6.87275H8.94789C8.94789 5.82969 9.01798 5.08543 8.01088 5.13154C7.24265 5.16567 7.31182 6.6966 7.62631 6.80266C9.40994 7.39751 11.0082 7.86786 12.7798 8.47378C16.3619 9.6976 17.2924 13.857 15.4405 16.6366C13.9889 18.8389 10.9722 19.3711 8.31984 19.3711C5.5411 19.3711 4.2398 19.4559 1.91297 17.9776C0.242771 16.928 0.0509431 15.2145 0.0371094 13.2593V13.1634V13.0675V12.9716H7.27677C7.27677 13.9971 7.13659 15.4405 7.83381 15.4368C8.95066 15.4285 8.94881 15.0918 8.94881 14.26C8.94881 12.6211 8.14184 12.7899 6.58416 12.2725C2.19149 10.8108 -0.242333 9.66348 0.556336 5.02825C1.48504 -0.368756 11.2572 -0.136351 14.2084 2.0337C15.1104 2.6968 16.0529 4.36884 16.0529 6.87275ZM71.8841 15.4737C72.1017 15.4737 72.1681 15.2957 72.1681 15.0752V10.0222C72.1681 9.80366 72.1017 9.62567 71.8841 9.62567H71.1029C70.8825 9.62567 70.8189 9.80366 70.8189 10.0222V15.0752C70.8189 15.2947 70.8825 15.4737 71.1029 15.4737H71.8841ZM72.2382 1.45453H78.9485V19.0188L72.1681 19.0105L72.1534 18.0449C69.9132 19.4006 66.7665 19.9456 65.1102 17.5828C64.0625 16.086 63.8531 11.9737 64.0588 9.94108C64.3392 7.1688 65.7244 5.25236 68.5797 5.28832C69.8671 5.30492 71.6129 5.49952 72.2373 6.51953C72.2576 6.55457 72.2382 1.45453 72.2382 1.45453ZM100.227 5.84813H106.634V14.5892C106.634 15.3095 106.738 15.4838 107.69 15.4571C108.465 15.4358 108.424 15.1011 108.445 14.6104V5.84813H114.893V19.0797H108.486V18.0744C104.716 20.6807 100.226 19.1636 100.226 15.5188L100.227 5.84813ZM162.12 19.0418H155.715V10.2998C155.715 9.57679 155.609 9.40433 154.656 9.43108C153.88 9.45137 153.923 9.78799 153.902 10.2786V19.0418H147.453V5.8094H153.86V6.81465C157.628 4.20745 162.121 5.72547 162.121 9.36744V19.0418H162.12ZM138.791 8.06153C138.686 8.06178 138.586 8.10364 138.511 8.17795C138.437 8.25227 138.395 8.353 138.395 8.4581V10.2694C138.395 10.4898 138.573 10.6678 138.791 10.6678H139.449C139.667 10.6678 139.846 10.4898 139.846 10.2694V8.4581C139.846 8.35293 139.804 8.25206 139.729 8.17769C139.655 8.10332 139.554 8.06153 139.449 8.06153H138.791ZM140.373 5.00704C144.253 4.99597 146.88 7.3929 146.872 11.0247L146.856 12.5363C146.791 12.8047 146.703 12.9421 146.591 12.9568H138.655C138.585 12.9954 138.527 13.0508 138.484 13.118C138.442 13.1852 138.417 13.262 138.412 13.3414V15.719C138.459 15.9246 138.642 16.1294 138.743 16.11H139.678C139.82 16.0787 139.892 15.8822 139.894 15.7439V14.2083H146.854C146.854 17.4122 143.507 19.313 140.737 19.313H138.208C135.209 19.313 131.572 17.664 131.578 13.6421V10.8071C131.597 7.34587 133.979 5.01718 137.655 5.00704H140.373ZM122.839 8.06153C122.734 8.06153 122.633 8.10326 122.558 8.17758C122.484 8.25189 122.441 8.35276 122.441 8.4581V10.2694C122.441 10.4898 122.619 10.6678 122.839 10.6678H123.495C123.601 10.6678 123.702 10.6258 123.777 10.5511C123.851 10.4764 123.893 10.3751 123.893 10.2694V8.4581C123.893 8.4059 123.883 8.35424 123.863 8.30606C123.843 8.25788 123.813 8.21413 123.776 8.1773C123.739 8.14048 123.695 8.1113 123.647 8.09144C123.599 8.07157 123.547 8.06141 123.495 8.06153H122.839ZM124.419 5.00704C128.299 4.99597 130.924 7.3929 130.918 11.0247L130.902 12.5363C130.837 12.8047 130.747 12.9421 130.635 12.9568H122.699C122.63 12.9956 122.572 13.0511 122.53 13.1183C122.488 13.1856 122.464 13.2623 122.459 13.3414V15.719C122.503 15.9246 122.69 16.1294 122.79 16.11H123.722C123.866 16.0787 123.94 15.8822 123.941 15.7439V14.2083H130.9C130.9 17.4122 127.553 19.313 124.783 19.313H122.254C119.256 19.313 115.618 17.664 115.622 13.6421V10.8071C115.641 7.34587 118.026 5.01718 121.703 5.00704H124.419ZM90.6777 4.36884C90.6255 4.36884 90.5738 4.37916 90.5255 4.39921C90.4773 4.41925 90.4335 4.44863 90.3966 4.48565C90.3598 4.52267 90.3306 4.5666 90.3108 4.61493C90.291 4.66326 90.2809 4.71502 90.2811 4.76726V15.0079C90.2808 15.0602 90.2908 15.1121 90.3105 15.1605C90.3303 15.209 90.3594 15.253 90.3963 15.2901C90.4332 15.3272 90.477 15.3567 90.5253 15.3768C90.5736 15.3969 90.6254 15.4073 90.6777 15.4073H91.2735C91.4911 15.4073 91.67 15.2293 91.67 15.0079V4.76634C91.6702 4.71414 91.66 4.66242 91.6401 4.61415C91.6203 4.56588 91.5911 4.52199 91.5543 4.48499C91.5174 4.448 91.4737 4.41862 91.4255 4.39853C91.3773 4.37844 91.3257 4.36804 91.2735 4.36792L90.6777 4.36884ZM91.7641 0.5H90.4831C87.9718 0.603292 85.5657 1.32542 84.6453 2.59167C83.7 3.89296 83.1337 4.97292 83.1503 7.29053C83.1844 9.24294 83.0996 10.6245 83.1503 12.516C83.2185 15.1924 84.1685 17.7535 87.3926 18.6425C89.7591 19.2973 92.1118 18.9828 99.8541 19.0031V15.4395H98.6404C98.9558 13.0675 98.9521 11.3355 98.9558 8.13439C98.9558 6.68922 98.6819 3.76569 96.9693 2.15452C95.8783 1.12898 93.8678 0.592225 91.7641 0.5Z" fill="#242424"/>
</svg>
