<svg width="152" height="32" viewBox="0 0 152 32" fill="none" xmlns="http://www.w3.org/2000/svg">
<g clip-path="url(#clip0_277_629)">
<path fill-rule="evenodd" clip-rule="evenodd" d="M15.2876 0.0325237C13.9836 0.120923 12.5132 0.405303 11.3329 0.797305C10.2196 1.16708 8.87675 1.79547 7.91946 2.39467C4.97524 4.23751 2.71211 6.94558 1.45602 10.1289C1.06034 11.1316 0.857901 11.8377 0.61604 13.0591C0.228146 15.018 0.2413 17.1318 0.653838 19.1303C0.974544 20.6838 1.36693 21.8226 2.04964 23.181C3.59314 26.252 6.05555 28.7194 9.12968 30.2753C11.1314 31.2885 13.0919 31.8164 15.4333 31.9729C17.2341 32.0932 19.4225 31.8083 21.2197 31.2195C23.6182 30.4338 25.7828 29.1039 27.5671 27.3198C29.3408 25.5462 30.4849 23.7165 31.4401 21.1253C31.8123 20.1157 32.1707 18.2881 32.2358 17.067C32.2513 16.7776 32.2798 16.5409 32.2992 16.5409C32.3186 16.5409 32.3345 16.2864 32.3345 15.9755C32.3345 15.6645 32.3186 15.42 32.299 15.4321C32.2795 15.4441 32.2506 15.206 32.2348 14.9029C32.129 12.8762 31.5004 10.6219 30.5 8.6808C28.5835 4.9623 25.2593 2.1193 21.2821 0.797388C19.4148 0.176715 17.2447 -0.100159 15.2876 0.0325237ZM15.5421 0.574263C13.619 0.669751 11.8899 1.07722 10.1257 1.85068C9.73646 2.02131 9.28991 2.23467 9.13334 2.32478C8.97678 2.41493 8.84274 2.48866 8.83541 2.48866C8.75698 2.48866 7.29004 3.44471 6.94731 3.7192C6.34928 4.19819 5.98215 4.52647 5.45959 5.04966C4.61895 5.89133 4.18247 6.41051 3.56008 7.30914C3.35265 7.60866 2.81989 8.47702 2.81989 8.51563C2.81989 8.52376 2.75212 8.64619 2.66932 8.78775C2.11058 9.74267 1.37226 11.8526 1.13814 13.1633C0.751457 15.3286 0.828053 17.7447 1.34703 19.7516C1.6555 20.9445 2.21965 22.4239 2.65629 23.1849C2.74629 23.3417 2.81989 23.476 2.81989 23.4833C2.81989 23.5751 3.68922 24.9013 4.08993 25.4208C4.67931 26.1849 5.85739 27.4034 6.5043 27.918C6.6873 28.0636 6.87708 28.2164 6.92604 28.2577C7.22514 28.5098 8.75099 29.5089 8.83683 29.5089C8.84494 29.5089 8.96546 29.5758 9.1047 29.6575C9.75157 30.0373 11.2572 30.6289 12.3742 30.9423C14.3579 31.4988 17.0585 31.5902 19.2215 31.1741C20.5352 30.9214 22.3047 30.3094 23.3394 29.7499C24.9815 28.8621 25.9534 28.1483 27.1558 26.9469C27.9895 26.114 28.4463 25.5715 29.0535 24.6928C29.2586 24.396 29.7952 23.52 29.7952 23.4819C29.7952 23.4738 29.8629 23.3514 29.9457 23.2098C30.3658 22.4919 30.968 20.9192 31.2699 19.7516C31.8632 17.4571 31.8722 14.6654 31.2938 12.3294C31.0235 11.2379 30.4309 9.66549 29.9738 8.82732C29.1427 7.30326 28.3792 6.27629 27.1965 5.09165C26.3981 4.29192 25.8723 3.8493 24.9871 3.23159C24.6801 3.01743 23.8218 2.48866 23.7811 2.48866C23.7714 2.48866 23.6496 2.42177 23.5103 2.34004C23.0933 2.09524 21.9923 1.62209 21.2821 1.38258C19.8295 0.892585 18.5887 0.648777 17.2596 0.59211C16.9535 0.5791 16.5906 0.562337 16.4532 0.554915C16.3159 0.547493 15.9058 0.556208 15.5421 0.574263ZM18.114 1.87645C17.9741 2.13289 17.5978 2.81181 17.2775 3.38516C16.9573 3.95851 16.643 4.52143 16.579 4.6361C16.5149 4.75077 16.3646 5.02285 16.2449 5.24072C16.1252 5.45859 15.8749 5.90872 15.6886 6.24097C15.5024 6.57326 15.3501 6.85697 15.3501 6.87152C15.3501 6.88608 15.4297 6.91064 15.527 6.92615C15.6243 6.94166 15.7438 6.96426 15.7926 6.97644C15.8686 6.99541 15.9128 6.94279 16.1012 6.60958C16.2222 6.39567 16.3239 6.21645 16.3271 6.21136C16.3319 6.20381 17.1524 6.3204 18.8226 6.56596L19.0274 6.59607L19.1214 7.00783C19.1732 7.23429 19.2309 7.43369 19.2497 7.45096C19.2686 7.46818 19.4027 7.49507 19.5477 7.51067C19.7898 7.53673 19.8096 7.53285 19.7886 7.46359C19.7759 7.4221 19.708 7.12546 19.6376 6.80439C19.5672 6.48332 19.4542 5.99407 19.3866 5.7172C19.319 5.44037 19.1531 4.71795 19.0179 4.11183C18.6093 2.27983 18.4197 1.46856 18.3933 1.43862C18.3795 1.42298 18.2538 1.62 18.114 1.87645ZM13.9139 1.51438C13.5389 1.62155 13.0947 1.7353 12.2071 1.9515C11.7263 2.06859 11.3271 2.16971 11.32 2.17621C11.2883 2.20498 11.4167 2.6971 11.4557 2.69677C11.4798 2.69656 11.7508 2.63093 12.0581 2.55095C12.3654 2.47098 12.6231 2.41185 12.6308 2.4196C12.6473 2.43612 12.8275 3.14853 13.0174 3.94808C13.091 4.25769 13.2131 4.74556 13.2888 5.03223C13.3645 5.3189 13.5253 5.96088 13.646 6.45888C13.7667 6.95684 13.8776 7.38382 13.8923 7.40768C13.9107 7.43757 13.9927 7.43624 14.1558 7.40342C14.3506 7.36427 14.3926 7.34075 14.3926 7.27103C14.3926 7.22437 14.2542 6.6406 14.085 5.97373C13.9159 5.30681 13.7191 4.51726 13.6477 4.21912C13.5764 3.92098 13.4432 3.38983 13.3517 3.03882C13.2603 2.68781 13.1854 2.36827 13.1854 2.32879C13.1854 2.2707 13.3007 2.22984 13.7893 2.11475C14.2783 1.99954 14.3896 1.96009 14.374 1.90739C14.3634 1.87161 14.333 1.75319 14.3063 1.64427C14.2523 1.42369 14.2426 1.42044 13.9139 1.51438ZM18.0907 3.01059C18.0339 3.10191 17.888 3.36431 17.7667 3.59365C17.6454 3.82299 17.5323 4.02939 17.5154 4.05233C17.4986 4.07526 17.4042 4.24414 17.3058 4.42761C16.9957 5.00517 16.7152 5.50871 16.656 5.59402C16.5678 5.72108 16.584 5.82449 16.6921 5.82449C16.7433 5.82449 17.2605 5.89125 17.8414 5.97285C18.4223 6.05445 18.9029 6.11546 18.9095 6.10837C18.9209 6.09603 18.853 5.783 18.3997 3.76115L18.1941 2.84446L18.0907 3.01059ZM23.2919 3.3596L23.14 3.56338L23.231 3.64498C23.3127 3.71833 24.0129 4.22371 24.8302 4.79935C24.9958 4.91597 25.1316 5.02376 25.132 5.03894C25.1324 5.05408 24.9595 5.15937 24.7477 5.27287C24.259 5.53473 22.6499 6.39412 21.7817 6.85697C20.6848 7.4417 20.0477 7.79196 20.0617 7.80264C20.6633 8.26031 22.7368 9.6996 22.7591 9.67496C22.7766 9.65565 22.849 9.55808 22.9198 9.45817L23.0488 9.27645L22.4985 8.87907C22.1958 8.66053 21.8435 8.40451 21.7155 8.31023C21.5876 8.21591 21.3932 8.07647 21.2836 8.00037C21.0482 7.83696 21.0143 7.87548 21.7192 7.50487C21.9825 7.36648 22.6007 7.03752 23.093 6.77391C25.2617 5.6125 25.5622 5.45229 25.8923 5.28167C26.0468 5.20181 26.1732 5.12534 26.1733 5.11175C26.1735 5.08777 23.4937 3.15582 23.4604 3.15582C23.4512 3.15582 23.3754 3.24752 23.2919 3.3596ZM8.16915 4.04857C8.05467 4.07701 7.88112 4.13643 7.7835 4.18055C7.55275 4.28488 6.77734 4.83104 6.7758 4.89029C6.77513 4.91543 6.86355 5.05992 6.97233 5.21136C7.45185 5.87911 8.53868 7.38753 8.85618 7.82599C9.04722 8.08973 9.36426 8.53131 9.56079 8.80731C9.75735 9.08326 9.95984 9.36218 10.0108 9.4271L10.1035 9.54515L10.3124 9.41093C10.4272 9.33712 10.5212 9.2594 10.5212 9.23821C10.5212 9.21699 10.396 9.02664 10.2429 8.81515C9.59026 7.91335 9.52066 7.81348 9.53489 7.79922C9.55562 7.77845 10.5506 7.98861 11.5693 8.22892L11.8474 8.29451L12.1425 8.08623L12.4376 7.87799L12.2599 7.83541C12.1622 7.81202 11.6385 7.68559 11.0961 7.55454L10.1099 7.31623L10.2495 7.11295C10.6719 6.49795 10.6899 5.60391 10.2935 4.92644C10.1478 4.67734 9.76926 4.34605 9.46787 4.20373C9.0232 3.99383 8.59534 3.9427 8.16915 4.04857ZM7.961 4.71883C7.43557 4.98744 7.4257 4.90338 8.09093 5.82407C8.40868 6.2639 8.77426 6.77324 8.90322 6.95596C9.03223 7.13868 9.14771 7.29813 9.15986 7.31027C9.19687 7.34734 9.36051 7.24084 9.5776 7.03848C10.1875 6.47001 10.2055 5.55662 9.61861 4.96872C9.34078 4.69043 9.11232 4.59978 8.64787 4.5836C8.26414 4.57022 8.24374 4.57426 7.961 4.71883ZM27.7762 7.24484C27.6617 7.31277 27.5742 7.39158 27.5817 7.41998C27.5951 7.47097 28.078 8.29609 28.5598 9.09144C28.7404 9.38949 28.7944 9.51088 28.7568 9.5341C28.7284 9.55174 28.5429 9.57655 28.3447 9.58918C27.2436 9.65957 23.0817 9.99345 23.0609 10.0131C23.0548 10.0189 23.2299 10.328 23.45 10.6999C23.6702 11.0719 23.8426 11.3839 23.8331 11.3934C23.8182 11.4084 23.4691 11.3166 22.9602 11.1637C22.8464 11.1295 22.7373 11.0344 22.5384 10.7957C21.3154 9.32799 19.6257 8.34133 17.7229 7.98377C17.083 7.86352 15.5886 7.85463 14.9754 7.96743C13.5513 8.22937 12.3249 8.78437 11.2347 9.66024C10.8359 9.9806 10.3036 10.5079 10.0102 10.8731C9.86509 11.0538 9.83021 11.0722 9.35393 11.2197C9.07731 11.3055 8.83533 11.3697 8.81618 11.3625C8.79703 11.3553 8.92316 11.1081 9.09638 10.813C9.34761 10.3852 9.39943 10.2694 9.35227 10.2411C9.31972 10.2216 9.2156 10.1583 9.12081 10.1004L8.94851 9.99507L8.79237 10.2553C8.70649 10.3984 8.50505 10.7407 8.34478 11.0159C8.18447 11.2911 8.03256 11.5301 8.00717 11.5469C7.92246 11.6031 7.81826 11.5798 7.61819 11.46C7.50909 11.3946 7.14334 11.1775 6.8054 10.9775L6.19096 10.6139L6.34582 10.3354C6.43099 10.1822 6.61024 9.8804 6.74412 9.66478C6.878 9.44912 7.02515 9.19881 7.07115 9.10849C7.16565 8.92298 7.1664 8.92427 6.85448 8.74718L6.70545 8.66257L6.24 9.44308C5.98403 9.8724 5.75907 10.248 5.74008 10.2778C5.71394 10.3189 5.6162 10.2781 5.33471 10.1086C5.13069 9.98573 4.73392 9.74747 4.45306 9.57914C3.95934 9.28321 3.94436 9.27003 4.00151 9.18263C4.03402 9.13293 4.22427 8.81202 4.42421 8.46955C4.62419 8.12705 4.81335 7.80981 4.84457 7.76457C4.87575 7.71937 4.90127 7.66307 4.90123 7.63947C4.90115 7.58326 4.54056 7.35572 4.48236 7.37515C4.45764 7.38341 4.15912 7.85835 3.81901 8.43052L3.20071 9.47085L3.85327 9.85664C4.21219 10.0688 4.6557 10.3334 4.83887 10.4445C5.60159 10.9073 6.59505 11.4917 6.70174 11.5401C7.09809 11.7203 6.46746 11.7081 5.3176 11.5135C4.80465 11.4266 4.84341 11.4028 4.873 11.7869C4.90523 12.2055 5.02295 12.4858 5.25757 12.7024C5.51408 12.9393 5.61054 13.2998 5.42954 13.3452C5.2728 13.3847 4.98977 13.6122 4.84953 13.8114C4.77763 13.9136 4.70649 13.9973 4.69146 13.9973C4.67648 13.9973 4.62981 13.921 4.58785 13.8277C4.47887 13.5856 4.22335 13.3393 3.95031 13.213C3.75178 13.1212 3.65558 13.104 3.33617 13.1034C2.98145 13.1027 2.93732 13.1126 2.64043 13.2596C2.0861 13.534 1.85636 13.9119 1.74975 14.7247C1.71203 15.0122 1.69009 15.2563 1.70104 15.2672C1.71195 15.2782 1.87917 15.3058 2.07266 15.3287C3.24308 15.4669 3.60321 15.511 4.48503 15.6241C5.02308 15.6931 5.60379 15.7689 5.77551 15.7926C6.47266 15.8888 7.37125 15.9986 7.37854 15.9886C7.38283 15.9827 7.40876 15.838 7.43615 15.6668C7.46354 15.4957 7.49414 15.3475 7.50409 15.3376C7.51404 15.3276 7.59938 15.3362 7.69371 15.3568C7.84024 15.3887 7.87263 15.416 7.91629 15.5439C7.94444 15.6262 8.01533 15.7576 8.0739 15.8357C8.16977 15.9638 8.18326 16.0296 8.20969 16.4992C8.31793 18.4205 9.10229 20.2085 10.4579 21.624C11.6709 22.8907 13.1956 23.7028 14.9754 24.0301C15.5886 24.1429 17.083 24.134 17.7229 24.0138C19.9837 23.589 21.9143 22.29 23.1555 20.3586C23.9043 19.1936 24.3273 17.8723 24.4069 16.4498C24.4254 16.1183 24.4553 15.9135 24.4912 15.8721C24.5218 15.8369 24.5857 15.72 24.6332 15.6123C24.7017 15.4572 24.7475 15.4093 24.8534 15.3815C24.9811 15.348 24.9876 15.3522 24.9989 15.4746C25.1527 17.1358 26.2533 18.2599 27.8612 18.3983C28.3688 18.4419 29.1514 18.2395 29.6198 17.9434C30.1848 17.5861 30.6965 16.9012 30.9014 16.2281C31.0216 15.833 31.0125 14.9508 30.8838 14.5394C30.6331 13.7373 30.0419 13.0386 29.3327 12.7061C28.8455 12.4778 28.4302 12.3985 27.8525 12.4234L27.346 12.4454L27.4004 12.2908C27.4304 12.2057 27.4764 12.0248 27.5027 11.8887C27.529 11.7527 27.5588 11.6021 27.5688 11.554L27.5872 11.4667L27.0364 11.5674C26.4004 11.6836 25.4533 11.7071 24.9156 11.6199L24.5943 11.5678L24.334 11.125C23.9561 10.4819 23.9618 10.4939 24.0207 10.4731C24.0485 10.4633 24.3148 10.4367 24.6124 10.414C24.9101 10.3913 25.9966 10.3073 27.0269 10.2272C28.0572 10.1471 29.0828 10.0688 29.306 10.0531C29.5292 10.0374 29.7119 10.0082 29.7119 9.98811C29.7119 9.96809 29.6117 9.78771 29.4892 9.58727C29.1961 9.10791 28.2547 7.52018 28.1296 7.29434C28.0756 7.19685 28.0208 7.11808 28.0079 7.11921C27.9949 7.12038 27.8907 7.17692 27.7762 7.24484ZM15.4582 8.45454C13.7888 8.68488 12.4501 9.29196 11.2298 10.3721C11.0919 10.4942 10.9791 10.6045 10.9791 10.6173C10.9791 10.6301 11.1467 10.6341 11.3516 10.6261C11.8734 10.6058 12.0736 10.6792 12.4395 11.0249C12.597 11.1737 12.8707 11.4905 13.0478 11.729C13.2249 11.9675 13.3811 12.1626 13.395 12.1626C13.4088 12.1626 13.5278 12.0039 13.6593 11.81C14.304 10.8591 15.215 10.3468 16.011 10.4872C16.1819 10.5174 16.3438 10.5189 16.505 10.4919C17.1264 10.3877 17.7936 10.6424 18.3324 11.1893C18.5228 11.3825 19.01 12.06 19.0663 12.2098C19.0946 12.2853 19.1931 12.1812 19.6491 11.5936C20.2418 10.8299 20.5113 10.6503 21.074 10.6442C21.2572 10.6422 21.4679 10.6542 21.5423 10.6708C21.6168 10.6875 21.6776 10.6843 21.6776 10.6639C21.6776 10.6434 21.5231 10.4932 21.3342 10.33C20.2265 9.37319 19.0338 8.79446 17.6274 8.53131C17.0928 8.43127 15.926 8.38999 15.4582 8.45454ZM15.4223 10.9128C15.0595 11.0042 14.5833 11.3325 14.2552 11.7172C14.0488 11.9592 13.6841 12.5241 13.6862 12.5985C13.6874 12.6417 13.9166 12.9131 13.9519 12.9131C13.962 12.9131 14.0298 12.8088 14.1026 12.6814C14.2586 12.4083 14.6108 12.0163 14.8483 11.8514C15.0619 11.7032 15.4354 11.5788 15.6672 11.5788C15.8647 11.5788 16.2585 11.7104 16.4532 11.8414C17.5362 12.5702 18.1663 14.7259 17.9122 16.8327C17.7587 18.1057 17.3911 19.0607 16.8187 19.6737C15.7503 20.8178 14.3157 20.1471 13.6853 18.2088L13.6107 17.9794L13.4348 17.9878C13.338 17.9924 13.2474 18.0077 13.2334 18.0217C13.1911 18.0641 13.4263 18.7006 13.6646 19.1888C14.0335 19.9446 14.5353 20.5016 15.1003 20.7826C15.3697 20.9165 15.8759 20.9619 16.1578 20.8774C16.481 20.7804 16.8694 20.4867 17.1583 20.1207C17.7195 19.4098 18.0756 18.457 18.2702 17.1455C18.3422 16.6606 18.3431 15.1797 18.2718 14.6853C18.0026 12.8202 17.2756 11.4491 16.322 11.0084C16.0795 10.8963 15.663 10.852 15.4223 10.9128ZM16.7245 10.9012C16.7249 10.9184 16.8888 11.0124 17.0888 11.1101C17.2887 11.2078 17.5103 11.3409 17.5812 11.406C18.3663 12.1272 18.8971 13.3915 19.0594 14.927C19.1217 15.5158 19.0854 16.9431 18.9959 17.4233C18.8873 18.0062 18.7815 18.3777 18.5831 18.8726C18.1656 19.914 17.6411 20.5218 16.9225 20.797C16.6437 20.9037 16.6441 20.9692 16.9234 20.9341C17.1929 20.9002 17.6955 20.6543 17.9213 20.4458C18.5713 19.8457 19.0556 18.8115 19.3105 17.4791C19.4151 16.9319 19.4591 15.5991 19.3931 14.9746C19.2006 13.1532 18.4845 11.6484 17.5538 11.1092C17.2633 10.9409 16.7224 10.8052 16.7245 10.9012ZM10.9583 11.1215C10.8209 11.1645 10.362 11.3194 9.93836 11.4655C9.05567 11.7701 8.63222 11.8845 8.04426 11.977C7.42783 12.074 6.44481 12.1011 5.85631 12.0372C5.58223 12.0075 5.34757 11.9936 5.33487 12.0063C5.30249 12.0387 5.45913 12.3356 5.55405 12.4216C5.77051 12.6177 6.46067 12.8051 7.12843 12.849C7.57794 12.8787 8.6848 12.8094 8.74628 12.7478C8.76876 12.7253 8.7313 12.6384 8.65349 12.5323C8.58173 12.4346 8.52299 12.3302 8.52299 12.3003C8.52299 12.2189 8.63538 12.2349 8.69858 12.3252C8.72905 12.3688 8.82846 12.4486 8.9195 12.5025C9.16607 12.6484 9.68205 12.6367 10.542 12.4658C10.9083 12.393 11.3328 12.3218 11.4852 12.3076C12.0842 12.2519 11.9745 11.9219 11.2907 11.7228C11.0748 11.6599 11.0401 11.6612 10.6359 11.746C10.4011 11.7954 10.1649 11.8461 10.1112 11.8588C10.0319 11.8776 10.0162 11.8671 10.0284 11.8034C10.0518 11.6808 10.6981 11.528 11.1069 11.5484C11.5849 11.5723 11.7731 11.6972 12.6234 12.5554C13.6244 13.5657 14.2409 14.0232 14.9626 14.2915C15.3165 14.4231 15.4744 14.5664 15.4748 14.7563C15.4751 14.9211 15.3898 15.0814 15.3018 15.0814C15.2089 15.0814 15.2079 15.069 15.2889 14.9122C15.3627 14.7693 15.3305 14.679 15.1574 14.5426C15.0037 14.4214 14.8349 14.4306 14.7287 14.5658C14.6812 14.6263 14.6424 14.7113 14.6424 14.7548C14.6424 15.1032 14.2185 15.5248 13.6663 15.7254C13.5195 15.7788 13.2622 15.908 13.0946 16.0125C12.413 16.4376 11.7587 16.7014 11.0103 16.8529C10.863 16.8827 10.8641 16.9742 11.0136 17.1239C11.389 17.4999 12.5343 17.355 13.3579 16.8274C13.6549 16.6371 13.9763 16.3428 13.9763 16.2611C13.9763 16.208 13.9526 16.1991 13.7898 16.1907C13.7444 16.1883 13.7014 16.1564 13.6943 16.1196C13.6839 16.0664 13.7325 16.0474 13.933 16.0264C14.3361 15.9842 14.7843 15.7175 14.8927 15.4554C14.9316 15.3613 14.9689 15.3307 15.0334 15.3399C15.2454 15.3702 15.0961 15.7094 14.7712 15.9352C14.6715 16.0046 14.4003 16.2415 14.1686 16.4616C13.9369 16.6818 13.657 16.9229 13.5465 16.9974C13.3149 17.1537 12.7638 17.4165 12.6678 17.4165C12.4848 17.4165 12.7329 17.5988 12.9788 17.645C13.1508 17.6773 13.6 17.5825 13.8799 17.4547C14.1138 17.348 14.4284 17.0608 14.6716 16.7319C14.8204 16.5307 14.8493 16.4633 14.8282 16.367C14.8042 16.2574 14.8168 16.2426 15.0033 16.1624C15.3041 16.0332 15.4268 16.0167 15.4592 16.1012C15.4777 16.1495 15.4447 16.2102 15.3558 16.2916C15.1514 16.4786 15.1874 16.794 15.4398 17.0272C15.6658 17.236 15.8456 17.1422 16.0526 16.7076C16.1544 16.4939 16.1618 16.4386 16.1618 15.8945C16.1618 15.3367 16.1566 15.3 16.0428 15.068C15.9773 14.9344 15.8977 14.8151 15.866 14.8029C15.8342 14.7907 15.7483 14.6681 15.6751 14.5306C15.5188 14.2368 15.487 14.2131 14.9706 14.0058C14.5841 13.8506 14.0982 13.5459 13.8098 13.2778C13.5803 13.0644 13.1002 12.5082 12.8112 12.1209C12.3484 11.5005 12.102 11.2409 11.8757 11.1354C11.6183 11.0153 11.3116 11.0106 10.9583 11.1215ZM20.8042 11.1037C20.5307 11.203 20.4318 11.295 19.9846 11.8658C19.7622 12.1498 19.5182 12.448 19.4425 12.5284C19.2846 12.696 19.2806 12.7198 19.3721 12.9392L19.4394 13.1006L19.9861 12.5337C20.7659 11.7251 21.024 11.5657 21.5527 11.5661C21.9334 11.5665 22.5518 11.7219 22.5518 11.8173C22.5518 11.8887 22.4702 11.8817 21.969 11.7675C21.4838 11.6569 21.0412 11.744 20.7616 12.0049C20.6575 12.1021 20.6575 12.1415 20.7618 12.246C20.8242 12.3085 20.9005 12.3294 21.067 12.3294C21.189 12.3294 21.6152 12.3965 22.014 12.4787C23.1241 12.7073 23.5432 12.681 23.8722 12.3621C24.0658 12.1744 24.0979 12.3012 23.9206 12.5532C23.8463 12.6587 23.7947 12.7542 23.8058 12.7654C23.8423 12.802 24.5184 12.8747 25.0516 12.8994C25.6691 12.928 26.0117 12.8661 26.4877 12.6398C26.799 12.4919 26.9349 12.3576 26.9879 12.1457L27.017 12.0297L26.7306 12.0624C26.2775 12.114 25.2378 12.0931 24.7373 12.0222C23.9793 11.9148 23.7036 11.8434 22.5406 11.453C21.3256 11.0452 21.0938 10.9986 20.8042 11.1037ZM17.3899 11.5996C17.3899 11.6109 17.4532 11.7095 17.5306 11.8185C17.7112 12.0728 17.8149 12.2809 18.0371 12.8347C18.6047 14.2493 18.718 16.3437 18.321 18.0823C18.1595 18.79 17.7915 19.6681 17.485 20.0775C17.3176 20.301 17.4223 20.2913 17.6264 20.0643C17.9021 19.7578 18.043 19.5404 18.2431 19.1127C18.726 18.0809 18.9244 16.9657 18.875 15.561C18.8191 13.9716 18.3925 12.6455 17.6685 11.8098C17.494 11.6085 17.3899 11.5298 17.3899 11.5996ZM15.808 12.9944V14.0402L15.9368 14.2689C16.0077 14.3947 16.0803 14.4977 16.0981 14.4977C16.1159 14.4977 16.237 14.3073 16.3673 14.0745L16.6042 13.6515L16.6047 13.1583C16.605 12.887 16.5909 12.6412 16.5735 12.6119C16.359 12.2511 16.1506 12.0543 15.9017 11.9774L15.808 11.9485V12.9944ZM15.0981 12.1135C14.9963 12.1781 14.8246 12.3296 14.7166 12.4501C14.5231 12.6658 14.2677 13.0676 14.2677 13.1564C14.2677 13.293 15.3525 13.8447 15.443 13.7541C15.4669 13.7302 15.4512 13.6535 15.4021 13.554C15.2903 13.3274 15.141 13.0663 15.0964 13.0195C15.0362 12.9563 15.0473 12.9329 15.2668 12.6589C15.4522 12.4276 15.475 12.377 15.475 12.1974C15.475 12.0147 15.466 11.9958 15.3791 11.9958C15.3263 11.9958 15.1998 12.0487 15.0981 12.1135ZM11.2705 12.5649C9.6592 12.8828 8.39673 13.0769 7.74075 13.1076C7.18039 13.1338 6.45464 13.0563 6.10529 12.9328C5.88907 12.8564 5.9004 12.8552 5.9004 12.9553C5.9004 13.1014 6.07195 13.4116 6.22077 13.5345C6.48244 13.7505 6.71952 13.8027 7.52391 13.8214C8.2621 13.8385 9.29586 13.7684 9.33911 13.6983C9.35206 13.6773 9.29374 13.5759 9.20948 13.4729C9.12219 13.3662 9.06641 13.2594 9.07973 13.2245C9.11224 13.1397 9.17797 13.1481 9.22897 13.2435C9.25253 13.2877 9.37816 13.3759 9.50813 13.4395C9.85905 13.6115 10.2326 13.5963 11.027 13.3774C11.8572 13.1486 12.2118 12.9704 12.1782 12.7987C12.1482 12.6448 11.592 12.5015 11.2705 12.5649ZM20.6543 12.6244C20.4762 12.6762 20.3574 12.8136 20.4116 12.9052C20.4833 13.0261 20.9679 13.2391 21.5319 13.3977C21.9793 13.5235 22.1452 13.5505 22.4894 13.5539C22.9333 13.5584 23.1359 13.4945 23.318 13.2928C23.4032 13.1985 23.5093 13.1756 23.5093 13.2516C23.5093 13.2772 23.4415 13.3906 23.3586 13.5037C23.2757 13.6168 23.2149 13.7163 23.2234 13.7248C23.3345 13.8361 25.5016 13.8932 25.8391 13.7938C26.3594 13.6405 26.5898 13.4233 26.5898 13.0862C26.5898 12.8754 26.5864 12.8751 26.1527 13.0429C25.9272 13.1301 25.836 13.1394 25.216 13.1386C24.7761 13.138 24.3496 13.1109 24.0296 13.0632C23.2696 12.95 22.423 12.805 21.8303 12.6864C21.2884 12.578 20.8867 12.5568 20.6543 12.6244ZM27.5173 13.015C27.1165 13.1066 27.0498 13.1538 26.9659 13.4059C26.8835 13.6532 26.7001 13.8656 26.434 14.0218C26.3043 14.0979 26.2567 14.1525 26.2567 14.2249C26.2567 14.3621 26.1205 14.6642 26.0018 14.7903C25.9474 14.848 25.8302 14.9507 25.7413 15.0184L25.5796 15.1415L25.6032 15.5389C25.6416 16.1849 25.8446 16.6442 26.295 17.1042C27.2232 18.0521 28.7511 18.0734 29.6894 17.1516C30.205 16.6452 30.4291 16.1128 30.4293 15.3942C30.4296 14.7044 30.2105 14.1678 29.7339 13.6904C29.1622 13.1177 28.2647 12.8442 27.5173 13.015ZM12.332 13.2339C12.2862 13.2444 11.9959 13.3347 11.6868 13.4344C10.2809 13.8882 8.77547 14.1127 7.41534 14.0713C6.64375 14.0479 6.64942 14.0451 6.81418 14.3686C7.04992 14.8314 8.02024 15.0954 8.97953 14.9578C9.27817 14.915 10.1771 14.6873 10.2231 14.6428C10.2309 14.6353 10.1577 14.5236 10.0606 14.3947C9.92716 14.2177 9.8956 14.1485 9.93186 14.1122C9.96808 14.0759 10.013 14.0963 10.1152 14.1954C10.3184 14.3924 10.536 14.4687 10.8958 14.4692C11.2782 14.4698 11.583 14.3837 12.0793 14.1349C12.7377 13.8049 13.0467 13.5207 12.9234 13.3584C12.8279 13.2326 12.5718 13.1787 12.332 13.2339ZM19.697 13.3432C19.5603 13.4609 19.5892 13.5381 19.855 13.766C20.1043 13.9798 20.9758 14.4001 21.2936 14.4598C21.8042 14.5558 22.3202 14.4377 22.484 14.1873C22.5617 14.0685 22.6153 14.0522 22.648 14.1376C22.66 14.169 22.5949 14.3003 22.5034 14.4296C22.3863 14.595 22.3534 14.67 22.3924 14.683C22.6808 14.7796 23.0858 14.8882 23.3428 14.9378C23.7621 15.0187 24.6189 15.0169 24.8974 14.9346C25.4194 14.7802 25.7769 14.498 25.8249 14.2026L25.8481 14.0598L24.9805 14.0736C23.4591 14.0977 22.31 13.9123 20.6404 13.3733C20.1497 13.2149 19.8568 13.2055 19.697 13.3432ZM16.9494 13.737C16.856 13.9145 16.6826 14.2402 16.5642 14.4606C16.3503 14.8587 16.3492 14.8626 16.4072 15.0271C16.4798 15.2332 16.5573 15.7231 16.5573 15.9755V16.1656H17.0777H17.598V15.8528V15.5401H17.4189H17.2398L17.1961 15.3262C17.1538 15.1196 17.1578 15.1025 17.3127 14.8201C17.401 14.6593 17.4731 14.4972 17.4731 14.4598C17.4731 14.2934 17.1969 13.4132 17.1449 13.4138C17.1308 13.414 17.0429 13.5594 16.9494 13.737ZM3.0125 13.6807C2.61816 13.8277 2.30561 14.2585 2.32909 14.6227L2.34116 14.8104L2.88233 14.8797C3.17998 14.9178 3.60146 14.9712 3.81897 14.9984C4.03648 15.0255 4.22851 15.0564 4.24575 15.0671C4.29824 15.0995 4.36014 14.8795 4.36014 14.6604C4.36014 14.1251 3.94536 13.6773 3.41309 13.6382C3.26506 13.6273 3.1122 13.6435 3.0125 13.6807ZM5.59347 13.85C5.20582 13.9884 4.966 14.3263 4.9051 14.8199C4.88591 14.9752 4.87783 15.1107 4.88712 15.121C4.90319 15.1388 6.71648 15.3683 6.86826 15.3717C6.92229 15.3729 6.94111 15.34 6.94111 15.2444C6.94111 15.1411 6.88899 15.0645 6.67868 14.8587C6.42254 14.608 6.31668 14.4068 6.31668 14.1707C6.31668 14.1136 6.26931 14.0585 6.18139 14.0133C6.107 13.9751 6.00143 13.9089 5.94681 13.8663C5.83017 13.7752 5.80606 13.7741 5.59347 13.85ZM13.0813 13.9094C12.9669 13.9511 12.7983 14.0279 12.7067 14.0801C12.354 14.281 11.7419 14.5745 11.5827 14.619C11.4911 14.6446 11.2356 14.6931 11.0149 14.7269C10.7941 14.7606 10.4007 14.8528 10.1406 14.9317C9.46171 15.1376 9.18138 15.1956 8.70428 15.2289L8.28192 15.2584L8.31793 15.3841C8.36759 15.5576 8.46966 15.6621 8.6895 15.7647C8.8526 15.8409 8.94681 15.8513 9.418 15.8453C10.1227 15.8364 10.6323 15.7324 11.1142 15.4992L11.4782 15.3231L11.3848 15.1979C11.2178 14.9744 11.2106 14.9608 11.2427 14.9285C11.2602 14.911 11.3064 14.9199 11.3453 14.9482C11.5423 15.0913 11.7093 15.1331 11.9907 15.1096C12.4217 15.0735 12.7953 14.9364 13.1886 14.6699C13.5698 14.4115 13.7176 14.2168 13.6716 14.0332C13.6452 13.9278 13.4927 13.8292 13.3604 13.832C13.3214 13.8328 13.1958 13.8676 13.0813 13.9094ZM19.6897 14.1046C19.7026 14.1717 19.7361 14.3767 19.7642 14.5602C19.7922 14.7437 19.8361 14.9145 19.8617 14.9399C19.9454 15.0226 20.4068 15.1231 20.7028 15.1231C20.9429 15.1231 21.0183 15.1054 21.1454 15.0189C21.3268 14.8954 21.3446 14.8925 21.3446 14.9856C21.3446 15.0247 21.2861 15.1171 21.2145 15.191L21.0844 15.3254L21.4264 15.4977C21.9595 15.7661 22.3259 15.8422 23.1138 15.848C23.7521 15.8526 23.7875 15.8485 23.9631 15.7486C24.0882 15.6774 24.1697 15.5921 24.2204 15.4794C24.2612 15.3887 24.2871 15.3025 24.2781 15.2878C24.269 15.2731 24.0596 15.2489 23.8126 15.234C23.3201 15.2043 23.027 15.1441 22.4524 14.9547C22.2438 14.8859 21.8446 14.7926 21.5653 14.7473C21.0421 14.6624 20.7127 14.5601 20.3871 14.3812C20.2841 14.3245 20.0797 14.2117 19.933 14.1304L19.6661 13.9826L19.6897 14.1046ZM13.9585 14.4854C13.9144 14.497 13.6896 14.6338 13.459 14.7892C12.9609 15.125 12.8426 15.1777 12.2696 15.3186C11.9935 15.3865 11.6637 15.5085 11.3746 15.6498C10.854 15.904 10.4535 16.0181 9.92795 16.0617C9.52553 16.0952 9.50829 16.1126 9.65749 16.3344C9.86734 16.6462 10.285 16.7319 10.9846 16.6065C11.5288 16.509 11.8456 16.4003 12.3631 16.1335L12.8105 15.9028L12.6603 15.7192C12.4913 15.5126 12.5043 15.4435 12.6919 15.5513C12.8677 15.6524 13.1387 15.6413 13.5055 15.5179C14.0213 15.3445 14.3926 15.0208 14.3926 14.7446C14.3926 14.564 14.168 14.4298 13.9585 14.4854ZM15.6755 15.1446C15.6637 15.1565 15.6793 15.2638 15.7102 15.3831C15.776 15.6371 15.7801 15.9846 15.7204 16.249C15.6292 16.6526 15.6285 16.6659 15.6981 16.6659C15.8676 16.6659 15.9768 15.7207 15.8558 15.3003C15.8105 15.1431 15.7389 15.0812 15.6755 15.1446ZM19.846 15.4542C19.846 15.6897 19.8986 15.7475 20.0161 15.6411C20.0786 15.5844 20.1091 15.5785 20.1466 15.6161C20.184 15.6536 20.1618 15.6999 20.0519 15.814C19.9109 15.9602 19.9099 15.964 19.9917 16.0271C20.164 16.1601 20.8366 16.4604 21.1573 16.5476C21.4144 16.6175 21.6142 16.6389 22.0343 16.6416C22.5491 16.6449 22.5864 16.6395 22.7305 16.5409C22.9198 16.4113 23.0574 16.1792 22.975 16.1282C22.9447 16.1094 22.7587 16.0816 22.5617 16.0664C22.0643 16.0281 21.7716 15.9435 21.239 15.6843C20.8507 15.4953 20.0959 15.2501 19.898 15.2486C19.8633 15.2483 19.846 15.317 19.846 15.4542ZM0.338627 16.0196C0.338669 16.3407 0.345205 16.4665 0.353114 16.2993C0.361065 16.132 0.360982 15.8693 0.353031 15.7155C0.345038 15.5617 0.338544 15.6986 0.338627 16.0196ZM8.73146 16.3219C8.73234 16.5071 8.82534 17.1848 8.90102 17.5574C9.18713 18.9662 9.90505 20.2996 10.9361 21.3372C12.0579 22.466 13.391 23.1646 15.0097 23.472C15.7031 23.6036 16.9095 23.6041 17.5994 23.4731C18.5235 23.2975 19.156 23.0778 19.8961 22.6753C20.7571 22.2071 21.5843 21.526 22.1551 20.8151C23.1536 19.5716 23.7179 18.1692 23.8646 16.5675L23.8946 16.2397L23.6707 16.2699C23.5476 16.2865 23.4454 16.3027 23.4437 16.3058C23.3377 16.4962 23.2269 16.667 23.1591 16.7444C23.0298 16.8921 22.6219 17.0714 22.341 17.1041C22.128 17.1288 22.0841 17.1493 22.0237 17.2517C21.8274 17.5845 21.29 17.7552 20.7039 17.6709C20.4345 17.6321 20.4093 17.6355 20.2876 17.7273C20.1616 17.8224 19.8172 17.9586 19.703 17.9586C19.6687 17.9586 19.6257 18.0455 19.5946 18.1775C19.3506 19.2133 18.7366 20.3172 18.1171 20.8338C17.6378 21.2336 17.0012 21.4331 16.4623 21.3525C16.3091 21.3295 16.1285 21.3278 16.0339 21.3484C15.8523 21.388 15.4333 21.3583 15.2189 21.2906C14.8306 21.1681 14.5301 20.9735 14.1624 20.6064C13.9557 20.4 13.716 20.1234 13.6297 19.9918C13.3782 19.6079 13.0758 18.9728 12.9196 18.5007C12.7784 18.0741 12.7701 18.0605 12.595 17.974C12.4962 17.9252 12.3824 17.8485 12.3422 17.8036C12.2762 17.7301 12.227 17.724 11.8397 17.7412C11.5236 17.7553 11.3504 17.7429 11.1832 17.6942C10.9368 17.6225 10.6398 17.3975 10.5424 17.2088C10.4885 17.1044 10.4564 17.091 10.2209 17.0743C9.7845 17.0435 9.41321 16.8107 9.22876 16.4522C9.14209 16.2837 9.08135 16.249 8.87342 16.249C8.76552 16.249 8.73121 16.2666 8.73146 16.3219ZM19.8456 16.4262C19.8454 16.5007 19.8338 16.6568 19.8199 16.773L19.7945 16.9844L20.0171 17.077C20.3177 17.2021 20.9315 17.3046 21.1776 17.2706C21.4016 17.2398 21.6091 17.1278 21.6767 17.0012C21.7303 16.9009 21.7723 16.9189 21.1989 16.7968C20.9149 16.7364 20.6459 16.6419 20.3525 16.4994C20.1159 16.3846 19.9051 16.2907 19.8841 16.2907C19.8632 16.2907 19.8458 16.3516 19.8456 16.4262ZM16.4511 16.6438C16.4179 16.7233 16.3908 16.8183 16.3908 16.8549C16.3908 16.8915 16.5682 17.2429 16.785 17.6358L17.1792 18.35L17.2469 18.1879C17.2841 18.0987 17.3549 17.8689 17.4042 17.6771L17.494 17.3284L17.3519 17.0702C17.0295 16.484 17.0452 16.4992 16.7628 16.4992C16.5153 16.4992 16.5105 16.5014 16.4511 16.6438ZM14.9796 17.3563C14.9315 17.4379 14.8922 17.5148 14.8922 17.5271C14.8922 17.5395 14.8575 17.5994 14.8151 17.6603C14.7727 17.7212 14.6575 17.9211 14.559 18.1045C14.4605 18.288 14.3547 18.4751 14.3238 18.5204C14.293 18.5656 14.2677 18.6321 14.2677 18.6682C14.2677 18.7514 14.6047 19.2687 14.7801 19.4547C14.9573 19.6426 15.2603 19.835 15.3791 19.835C15.4674 19.835 15.475 19.8172 15.475 19.6081C15.475 19.4833 15.4554 19.3691 15.4314 19.3543C15.4075 19.3394 15.3138 19.2334 15.2232 19.1187L15.0586 18.91L15.1775 18.6949C15.243 18.5766 15.3393 18.4082 15.3915 18.3206C15.4775 18.1765 15.4838 18.1295 15.4583 17.8233C15.4314 17.5 15.4234 17.4791 15.2757 17.3483C15.1906 17.2731 15.1089 17.2107 15.094 17.2098C15.0791 17.2088 15.0276 17.2748 14.9796 17.3563ZM4.60991 17.2727C4.57557 17.28 4.26648 17.3164 3.92304 17.3535C3.57961 17.3906 3.18622 17.4378 3.04885 17.4584C2.91147 17.479 2.61175 17.5166 2.38279 17.5421C1.75745 17.6116 1.77918 17.6031 1.77918 17.7762C1.77918 17.9113 1.78846 17.9236 1.87422 17.902C1.9265 17.8889 2.12786 17.8594 2.32172 17.8364C2.51559 17.8135 3.12378 17.738 3.67327 17.6687C4.22277 17.5993 4.72606 17.5424 4.7917 17.5421C4.89503 17.5417 4.90768 17.5291 4.88591 17.4478C4.87213 17.3962 4.86056 17.3305 4.86027 17.3018C4.85973 17.2533 4.75703 17.2414 4.60991 17.2727ZM15.9861 17.368L15.8105 17.4791L15.8092 18.6807L15.808 19.8823L15.9017 19.8531C16.1107 19.7879 16.1724 19.7538 16.3811 19.5886L16.5989 19.416V18.9048C16.5989 18.4164 16.5917 18.3732 16.4364 17.9363C16.2384 17.3791 16.1881 17.2486 16.1733 17.2533C16.167 17.2553 16.0828 17.3069 15.9861 17.368ZM19.7627 17.311C19.7627 17.3424 19.7513 17.3977 19.7374 17.4339C19.7058 17.5167 19.8346 17.5217 19.9396 17.4419C20.0389 17.3664 20.0323 17.3482 19.8876 17.2977C19.7885 17.2631 19.7627 17.2659 19.7627 17.311ZM14.1839 17.6919C14.0025 17.8066 13.9585 17.8553 13.9702 17.9287C13.9883 18.0424 14.0522 18.1672 14.0923 18.1668C14.127 18.1664 14.4495 17.5847 14.4273 17.5625C14.4191 17.5542 14.3095 17.6124 14.1839 17.6919ZM4.76602 18.1537C4.67548 18.1779 4.67194 18.1391 4.81677 18.7079C4.88375 18.9709 4.93199 19.1927 4.92396 19.2008C4.91592 19.2088 4.77172 19.2499 4.60354 19.2922C4.28771 19.3716 3.90231 19.4744 3.36106 19.6237C3.18934 19.671 2.8616 19.7582 2.63269 19.8174C2.40381 19.8766 2.21174 19.9299 2.20583 19.9358C2.18306 19.9586 2.28829 20.2093 2.31398 20.1935C2.32892 20.1844 2.63152 20.1014 2.9864 20.0092C3.94873 19.759 5.25353 19.4092 5.26673 19.3978C5.27314 19.3923 5.20616 19.1085 5.11791 18.767C4.95614 18.141 4.93715 18.1079 4.76602 18.1537ZM24.785 18.8197C24.6535 19.0881 24.6374 19.0614 25.0495 19.2583C26.1277 19.7736 28.1254 20.7979 28.0807 20.8124C28.0192 20.8325 27.1754 20.9077 25.0133 21.0858C24.2035 21.1525 23.5345 21.2136 23.5265 21.2216C23.5185 21.2296 24.153 21.5524 24.9364 21.9389C25.7198 22.3254 26.8815 22.9014 27.518 23.2189C28.1544 23.5365 28.6916 23.7963 28.7117 23.7963C28.7318 23.7963 28.8004 23.6897 28.8641 23.5594C28.9558 23.3716 28.9676 23.3184 28.9213 23.303C28.8892 23.2922 28.2343 22.9701 27.4661 22.5871C26.6979 22.2041 25.9429 21.8307 25.7884 21.7573C25.5012 21.6208 25.4342 21.5447 25.6011 21.5445C25.6526 21.5444 26.416 21.4881 27.2975 21.4195C28.1789 21.3508 29.1718 21.2742 29.5038 21.2492C29.8358 21.2242 30.1143 21.1968 30.1228 21.1885C30.1344 21.177 24.9421 18.584 24.9074 18.584C24.9035 18.584 24.8484 18.6901 24.785 18.8197ZM5.34882 20.0938C5.2139 20.141 5.21032 20.1638 5.3091 20.3445C5.47125 20.6411 5.65375 21.0994 5.62186 21.1299C5.60333 21.1476 5.40085 21.2461 5.1719 21.3487C3.33579 22.172 3.13164 22.2758 3.14372 22.3804C3.16245 22.5431 3.21436 22.5574 3.42891 22.4589C3.54039 22.4077 3.88454 22.2499 4.19363 22.1083C5.70216 21.4172 6.00567 21.2774 6.02041 21.2669C6.03902 21.2536 5.53327 20.1185 5.49152 20.08C5.47599 20.0656 5.4118 20.0719 5.34882 20.0938ZM8.22185 20.6254L7.89994 20.832L8.11307 21.1674C8.23034 21.352 8.34174 21.5029 8.36068 21.5029C8.42937 21.5029 9.02253 21.1202 9.02253 21.0759C9.02253 20.9972 8.64433 20.4188 8.59288 20.4188C8.56591 20.4188 8.39894 20.5117 8.22185 20.6254ZM22.4266 22.3997L22.2425 22.5877L22.5324 22.8851C22.6919 23.0486 22.8505 23.2144 22.8848 23.2536C22.9192 23.2928 23.2095 23.5956 23.5301 23.9265C23.8506 24.2574 24.2817 24.7059 24.488 24.9232C24.6943 25.1405 25.169 25.6354 25.5427 26.023L26.2224 26.7277L26.4149 26.5348L26.6075 26.3418L26.1925 25.9135C25.9642 25.6778 25.3378 25.0253 24.8005 24.4635C24.2633 23.9016 23.5961 23.2073 23.3181 22.9206C23.04 22.634 22.7778 22.3572 22.7353 22.3056C22.6929 22.254 22.6475 22.2118 22.6345 22.2118C22.6215 22.2118 22.5279 22.2963 22.4266 22.3997ZM9.87591 22.4887C9.65574 22.6869 8.64175 23.603 8.39402 23.8276C8.2865 23.925 8.17256 24.0048 8.1408 24.0048C8.10903 24.0048 7.99002 23.897 7.87633 23.7652C7.76264 23.6335 7.56657 23.4125 7.44065 23.2741C7.31472 23.1357 7.13226 22.9322 7.03519 22.8218L6.85864 22.6211L6.69812 22.7485C6.43041 22.9608 6.42995 22.9632 6.61603 23.1711C6.70828 23.2741 6.84257 23.4243 6.91446 23.5047C6.98636 23.5851 7.19213 23.8143 7.37171 24.0142C7.5513 24.2139 7.69075 24.3999 7.68159 24.4274C7.67244 24.4549 7.33816 24.7735 6.93878 25.1354L6.21261 25.7933L6.06674 25.6392C5.98648 25.5544 5.69896 25.2365 5.42775 24.9326C5.15654 24.6287 4.92246 24.3809 4.90756 24.3819C4.89269 24.3828 4.79712 24.457 4.69525 24.5465C4.52482 24.6964 4.51504 24.7155 4.57303 24.7845C4.75911 25.0059 6.11553 26.5061 6.14767 26.526C6.18126 26.5468 7.10487 25.7287 9.60033 23.4679C10.0212 23.0866 10.3855 22.7619 10.4098 22.7463C10.4567 22.7164 10.1594 22.3471 10.0841 22.3417C10.0612 22.3401 9.9675 22.4062 9.87591 22.4887ZM11.3113 26.8507C11.1567 27.192 10.7177 28.1687 10.4003 28.8774C10.2836 29.1379 10.1881 29.3579 10.1881 29.3663C10.1881 29.3748 10.2419 29.4095 10.3076 29.4436L10.4271 29.5054L10.5528 29.2257C10.6219 29.0719 10.8376 28.5895 11.0321 28.1537C11.2267 27.718 11.4535 27.2147 11.5363 27.0353C11.6191 26.8558 11.6868 26.6912 11.6868 26.6694C11.6868 26.638 11.5192 26.5484 11.4607 26.5484C11.4538 26.5484 11.3866 26.6844 11.3113 26.8507ZM20.3315 27.682C20.3164 28.1479 20.304 28.911 20.304 29.3778C20.3039 30.1699 20.3087 30.2247 20.3767 30.1967C20.4168 30.1801 20.4824 30.1572 20.5224 30.1456C20.5811 30.1287 20.5953 30.0773 20.5953 29.8818C20.5953 29.7482 20.6131 29.6279 20.6349 29.6144C20.677 29.5883 21.4794 29.295 21.8148 29.1831L22.0144 29.1165L22.1687 29.2941C22.317 29.465 22.328 29.47 22.4578 29.4238C22.6215 29.3657 22.641 29.3992 22.0668 28.7538C21.8343 28.4926 21.3874 27.988 21.0737 27.6325C20.7599 27.277 20.4707 26.9522 20.431 26.9106C20.3624 26.8389 20.3575 26.877 20.3315 27.682ZM12.3275 27.0726C12.2926 27.2118 12.3188 27.2316 12.6574 27.3211C12.9293 27.393 12.94 27.4007 12.9146 27.5039C12.9 27.5632 12.7302 28.167 12.5372 28.8458C12.3442 29.5245 12.1863 30.0903 12.1863 30.1031C12.1863 30.1158 12.2434 30.1461 12.3131 30.1705C12.4084 30.2038 12.444 30.2022 12.4564 30.1641C12.5019 30.0244 12.9854 28.3069 13.084 27.9348C13.2101 27.4589 13.1937 27.4715 13.5601 27.57C13.8653 27.652 13.8796 27.6501 13.9118 27.5218C13.9457 27.3863 13.9178 27.3669 13.5626 27.2799C13.2749 27.2094 12.9505 27.1176 12.6532 27.0224C12.4045 26.9428 12.3583 26.9499 12.3275 27.0726ZM18.5842 27.3698C18.5273 27.3846 18.5143 27.4168 18.531 27.5005C18.5432 27.5617 18.6193 27.9306 18.7001 28.3205C18.7809 28.7104 18.9079 29.339 18.9823 29.7174L19.1175 30.4054L19.2577 30.4188C19.4306 30.4354 19.447 30.585 19.075 28.7479C18.7756 27.2699 18.792 27.3159 18.5842 27.3698ZM14.9087 27.6846C14.8156 27.8844 13.9375 29.5959 13.6553 30.1278C13.5537 30.3192 13.4767 30.4806 13.4841 30.4867C13.4915 30.4927 13.5574 30.5091 13.6306 30.523C13.758 30.5473 13.7682 30.5389 13.8747 30.3208C13.9834 30.0982 13.9892 30.0937 14.1372 30.1138C14.2205 30.1251 14.5485 30.1629 14.8663 30.1978C15.1841 30.2326 15.4604 30.2713 15.4803 30.2836C15.5003 30.296 15.5167 30.3378 15.5169 30.3766C15.517 30.4154 15.5366 30.5175 15.5604 30.6035C15.6 30.7463 15.6164 30.7598 15.7503 30.7598C15.8704 30.7598 15.893 30.7467 15.8751 30.6869C15.8632 30.6468 15.7662 30.2761 15.6595 29.8633C15.4482 29.0454 15.4271 28.9647 15.2082 28.1329C15.1268 27.8233 15.0598 27.5559 15.0594 27.5387C15.0574 27.4537 14.9826 27.5263 14.9087 27.6846ZM16.6396 27.7263C16.639 27.8009 16.6802 28.506 16.7311 29.2932L16.8237 30.7247L17.2212 30.6995C17.4399 30.6857 17.7359 30.664 17.879 30.6513L18.1392 30.6281V30.4822C18.1392 30.3455 18.1319 30.3376 18.0247 30.358C17.9618 30.3699 17.7294 30.3918 17.5084 30.4066L17.1067 30.4334L17.084 30.3152C17.0714 30.2501 17.0405 29.831 17.0153 29.3838C16.99 28.9366 16.9515 28.3751 16.9298 28.136C16.9081 27.897 16.8903 27.6765 16.8903 27.6461C16.8903 27.6124 16.8414 27.5908 16.7655 27.5908C16.6525 27.5908 16.6405 27.6038 16.6396 27.7263ZM20.5953 28.4665C20.5953 29.1998 20.605 29.3421 20.6551 29.3421C20.7358 29.3421 21.7274 28.9753 21.7747 28.9279C21.8132 28.8894 20.7044 27.5908 20.6331 27.5908C20.6116 27.5908 20.5953 27.9692 20.5953 28.4665ZM14.6707 28.7658C14.2659 29.5335 14.1233 29.8368 14.1531 29.8667C14.1924 29.906 15.3458 30.0275 15.3776 29.9956C15.399 29.9741 14.9912 28.3154 14.9521 28.2654C14.9464 28.258 14.8197 28.4831 14.6707 28.7658Z" fill="#242424"/>
<path d="M43.6265 22.9999V9.69994H48.3385C51.1695 9.69994 52.7465 11.0679 52.7465 13.2149C52.7465 14.7349 51.9105 15.6659 50.6565 16.1029C52.0625 16.3689 53.2975 17.2809 53.2975 19.1999C53.2975 21.5559 51.6255 22.9999 48.4715 22.9999H43.6265ZM48.4145 11.2009H45.2795V15.4759H48.4145C50.1245 15.4759 51.0935 14.6779 51.0935 13.3289C51.0935 11.9989 50.1435 11.2009 48.4145 11.2009ZM48.4715 16.9579H45.2795V21.4989H48.4715C50.5235 21.4989 51.6065 20.6439 51.6065 19.2759C51.6065 17.7749 50.4475 16.9579 48.4715 16.9579ZM55.3716 22.9999V9.69994H63.8456V11.2199H57.0246V15.4759H62.7056V16.9959H57.0246V21.4799H64.0926V22.9999H55.3716ZM65.9478 22.9999V9.69994H71.0398C73.6998 9.69994 75.4668 11.2959 75.4668 13.7849C75.4668 15.6469 74.3458 17.0909 72.6358 17.5659L75.6188 22.9999H73.7568L70.9448 17.8889H67.6008V22.9999H65.9478ZM70.9258 11.2199H67.6008V16.3689H70.9068C72.6548 16.3689 73.7758 15.3429 73.7758 13.7849C73.7758 12.2269 72.6548 11.2199 70.9258 11.2199ZM75.9645 11.2199V9.69994H86.2435V11.2199H81.9305V22.9999H80.2775V11.2199H75.9645ZM86.7437 22.9999H85.0337L90.1067 9.69994H92.0637L97.1177 22.9999H95.3507L93.9447 19.4089H88.1497L86.7437 22.9999ZM91.0377 11.5049L88.6437 17.9079H93.4507L91.0377 11.5049ZM98.201 11.2199V9.69994H108.119V10.8969L100.177 21.4799H108.366V22.9999H97.954V21.8029L105.896 11.2199H98.201ZM109.556 11.2199V9.69994H119.474V10.8969L111.532 21.4799H119.721V22.9999H109.309V21.8029L117.251 11.2199H109.556ZM132.9 16.3499C132.9 20.2639 130.297 23.1139 126.554 23.1139C122.811 23.1139 120.208 20.2639 120.208 16.3499C120.208 12.4359 122.811 9.58594 126.554 9.58594C130.297 9.58594 132.9 12.4359 132.9 16.3499ZM121.899 16.3499C121.899 19.4089 123.78 21.5939 126.554 21.5939C129.328 21.5939 131.209 19.4089 131.209 16.3499C131.209 13.2909 129.328 11.1059 126.554 11.1059C123.78 11.1059 121.899 13.2909 121.899 16.3499ZM136.604 22.9999H134.989V9.69994H136.509L143.653 19.9599V9.69994H145.268V22.9999H143.748L136.604 12.7399V22.9999ZM147.848 22.9999V9.69994H149.501V22.9999H147.848Z" fill="#242424"/>
</g>
<defs>
<clipPath id="clip0_277_629">
<rect width="151" height="32" fill="white" transform="translate(0.334473)"/>
</clipPath>
</defs>
</svg>
