<svg width="112" height="33" viewBox="0 0 112 33" fill="none" xmlns="http://www.w3.org/2000/svg">
<g clip-path="url(#clip0_277_720)">
<path d="M77.422 13.2852C76.096 13.3501 73.7527 14.0702 73.2182 16.3711L71.3498 27.2529C70.9268 29.6026 72.0997 32.2635 74.6194 32.2878H88.6321C90.433 32.2608 92.5012 31.6842 92.9916 28.8771L95.0157 17.508C95.3946 15.2206 93.8791 13.3501 91.7461 13.2852H77.422Z" fill="#242424"/>
<path d="M79.1346 18.6451C78.1641 18.5991 77.8891 18.9591 77.7334 19.4572L76.6435 25.3041C76.5786 26.1487 77.0613 27.0122 77.8891 27.0907H86.7638C87.6071 27.0122 88.2974 26.4383 88.4765 25.629L89.4106 20.2692C89.6753 19.3191 89.1927 18.6018 88.3208 18.6451H79.1346Z" fill="white"/>
<path d="M70.5738 18.6455H57.8067C56.8673 18.5995 56.5896 18.9595 56.4054 19.4576L55.4712 25.3046C55.2818 26.1491 55.7644 27.0126 56.7168 27.0911H69.0168L68.0826 32.2885H53.2915C50.8029 32.2614 49.63 29.6005 50.0218 27.2536L52.0459 16.3717C52.4559 14.0681 54.7991 13.3507 56.094 13.2858H71.508L70.5738 18.6455ZM43.48 18.6455H31.0242L31.9584 13.2858H45.9711C48.5245 13.3507 49.6949 16.0117 49.2407 18.3207L47.3724 29.2025C46.8716 31.544 44.5283 32.2614 43.1686 32.2885H29.9344C27.3628 32.2614 26.1924 29.6005 26.6647 27.2536L27.2875 23.1932C27.778 20.83 30.1212 20.11 31.4913 20.1072H43.1686C44.0457 20.11 44.7359 18.6022 43.48 18.6455ZM25.7305 18.6455H28.5331L29.4673 13.2858H26.6647L28.8445 0.29248H23.8622L21.6824 13.2858H7.51402C6.13351 13.3507 3.79028 14.0708 3.31021 16.3717L1.44185 27.2536C0.964382 29.6032 2.1347 32.2641 4.71148 32.2885H20.9039C22.0561 32.2614 23.5015 31.184 23.7065 29.5274L25.7305 18.6455Z" fill="#242424"/>
<path d="M7.98386 27.0908C7.10158 27.0123 6.61892 26.1488 6.73829 25.3042L7.82557 19.4572C7.92677 18.9592 8.20184 18.6018 9.07115 18.6452H20.7484L19.1914 27.0908H7.98386Z" fill="white"/>
<path d="M103.268 14.9093L104.513 13.7724C105.115 13.3501 105.803 13.3501 106.537 13.2852H111.052L110.118 18.6449H105.136C103.875 18.5989 102.152 19.2485 101.866 21.0811L99.8423 32.2878H94.7043L98.1296 13.2852H102.645L103.268 14.9093Z" fill="#242424"/>
<path d="M32.4256 27.0908C31.6368 27.0123 31.4993 25.3583 32.737 25.3042H43.013L42.7016 27.0908H32.4256Z" fill="white"/>
</g>
<defs>
<clipPath id="clip0_277_720">
<rect width="109.714" height="32" fill="white" transform="translate(1.33813 0.290039)"/>
</clipPath>
</defs>
</svg>
