<svg width="146" height="31" viewBox="0 0 146 31" fill="none" xmlns="http://www.w3.org/2000/svg">
<path fill-rule="evenodd" clip-rule="evenodd" d="M56.6155 0.933594C37.6404 4.66024 19.7661 11.4081 5.07116 21.6569L5.13706 21.8096C40.1576 3.84002 76.8984 2.75002 92.0012 2.75002C104.505 2.75002 118.245 4.46255 118.245 8.11632C118.245 11.101 112.003 13.6757 108.433 15.0362L108.47 15.1556C112.045 14.5959 125.58 11.7887 125.58 5.74017C125.58 3.79894 123.897 2.19803 120.979 0.933594L134.964 0.935143C136.966 0.935143 138.698 2.66706 138.698 4.66877V27.0682C138.698 29.0699 136.966 30.8018 134.964 30.8018H4.16722C2.16551 30.8018 0.433594 29.0699 0.433594 27.0682V4.67032C0.433594 2.66861 2.16551 0.936693 4.16722 0.936693L56.6155 0.933594ZM32.557 14.0672H27.4481L23.809 27.3194H28.9172L30.4569 21.629L34.3758 27.3194H40.2894L35.1107 20.3576L42.8439 14.0679H37.421L31.0879 19.2265L32.557 14.0672ZM48.8195 17.1713C45.4952 17.1713 41.3569 18.3598 40.2499 22.3756C39.1971 26.1991 42.8516 27.5643 45.9658 27.5643C49.8591 27.5643 52.6935 25.834 53.516 24.4742H48.6699C48.6699 24.4742 47.9334 26.0084 46.3937 26.0084C44.2618 26.0084 45.0487 23.0074 45.0487 23.0074H54.3385C55.5619 20.0568 54.0222 17.1713 48.8195 17.1713ZM48.4722 18.6954C50.1382 18.6954 49.8103 21.1073 49.8103 21.1073H45.6123C45.6123 21.108 46.7403 18.6954 48.4722 18.6954ZM129.985 17.1713C126.662 17.1713 122.524 18.3598 121.417 22.3756C120.363 26.1991 124.018 27.5643 127.133 27.5643C131.025 27.5643 133.86 25.834 134.682 24.4742H129.835C129.835 24.4742 129.099 26.0084 127.559 26.0084C125.427 26.0084 126.215 23.0074 126.215 23.0074H135.504C136.73 20.0568 135.19 17.1713 129.985 17.1713ZM129.639 18.6954C131.306 18.6954 130.978 21.1073 130.978 21.1073H126.779C126.779 21.108 127.907 18.6954 129.639 18.6954ZM62.4896 17.4085H57.7838L55.0549 27.3356H59.9886C59.9886 27.3356 61.0902 23.3431 61.3662 22.336C61.6422 21.329 62.5074 19.5242 64.2742 19.5242C66.041 19.5242 65.1099 21.6468 64.9177 22.336C64.7246 23.0252 63.5579 27.3356 63.5579 27.3356H68.4738C68.4738 27.3356 69.8739 22.2918 70.1359 21.3111C70.3979 20.3312 71.5531 17.1852 66.462 17.1852C63.3656 17.1852 62.1849 18.4311 62.1849 18.4311L62.4896 17.4085ZM78.7249 17.4054H74.0005L71.2716 27.3356H76.2232C76.2232 27.3356 77.3558 23.2369 77.5993 22.336C77.8442 21.4352 78.3567 19.456 79.8436 19.456C81.0685 19.456 80.5793 20.463 80.0498 22.336C79.8304 23.1113 78.6722 27.3356 78.6722 27.3356H83.6238C83.6238 27.3356 84.423 24.2904 84.8642 22.7601C85.3929 20.922 85.8425 19.4699 87.2458 19.4699C88.5179 19.4699 87.9543 20.4863 87.0744 23.6656C86.8682 24.4091 86.072 27.3542 86.072 27.3542H91.0065C91.0065 27.3542 91.9593 23.802 92.3841 22.336C92.9477 20.3917 94.4347 17.2775 89.5196 17.1775C86.7201 17.1201 85.372 18.5187 85.372 18.5187C85.372 18.5187 84.9704 17.1775 82.1361 17.1775C79.5289 17.1775 78.4443 18.3598 78.4443 18.3598L78.7249 17.4054ZM103.008 17.1767C98.6172 17.1767 94.4424 19.3296 94.2773 23.5377C94.1378 27.1069 98.5474 27.5473 100.173 27.5473C103.952 27.5473 108.536 25.9921 108.92 21.1336C109.131 18.4838 106.121 17.1767 103.008 17.1767ZM103.812 22.3709C103.305 24.3153 102.045 26.0169 100.555 26.0169C98.9459 26.0169 98.9094 24.2269 99.3816 22.336C99.8537 20.446 101.188 18.7311 102.57 18.7311C104.301 18.7303 104.319 20.4281 103.812 22.3709ZM112.121 17.3984L109.419 27.3101H114.352C114.352 27.3101 115.297 23.9005 115.612 22.7601C115.926 21.6197 116.477 19.6242 118.184 19.6242C119.277 19.6242 119.758 20.684 119.758 20.684H120.125L121.412 17.5302C121.412 17.5302 121.018 17.1589 119.391 17.1589C117.764 17.1589 116.505 18.352 116.505 18.352L116.767 17.3984H112.121ZM140.603 28.2559C140.603 26.9883 141.556 26.0348 142.776 26.0348C143.983 26.0348 144.942 26.9883 144.942 28.2559C144.942 29.5412 143.983 30.4909 142.776 30.4909C141.555 30.4909 140.603 29.542 140.603 28.2559ZM142.776 30.9336C144.231 30.9336 145.474 29.8041 145.474 28.2566C145.474 26.724 144.23 25.5929 142.776 25.5929C141.308 25.5929 140.07 26.724 140.07 28.2566C140.07 29.8041 141.309 30.9336 142.776 30.9336ZM142.213 28.4652H142.747L143.556 29.804H144.083L143.204 28.4443C143.656 28.3884 144.005 28.152 144.005 27.5977C144.005 26.9891 143.642 26.724 142.915 26.724H141.746V29.804H142.213V28.4652ZM142.213 28.0745V27.1131H142.845C143.169 27.1131 143.513 27.1845 143.513 27.569C143.513 28.0458 143.162 28.0745 142.768 28.0745H142.213Z" fill="#242424"/>
</svg>
