<svg width="121" height="36" viewBox="0 0 121 36" fill="none" xmlns="http://www.w3.org/2000/svg">
<path fill-rule="evenodd" clip-rule="evenodd" d="M6.45829 23.2381H3.99829L2.66629 18.1861H9.61429L21.9503 0.810059H31.3103L28.9703 18.1261L41.9903 18.1859L42.5663 18.8819C45.6863 16.7461 49.8983 16.7461 51.4101 19.4461C53.4981 17.1899 58.1781 17.0579 59.7621 19.9499C60.3621 21.0657 60.2661 22.5421 59.7621 24.3181L57.8663 30.3901C57.9863 31.0141 58.6823 32.4061 56.9783 32.4061H50.3423L52.4903 25.7101C53.0543 23.7419 50.6543 23.7419 50.0903 25.6499L48.0023 32.3462H41.1743L43.2623 25.5181C43.8863 23.5621 41.3543 23.5621 40.8503 25.5779L38.7623 32.2859H31.6223L33.8303 25.1339C33.9623 24.6301 33.9023 24.1859 32.9543 24.1859H28.1423L27.0743 32.2501L16.7663 32.2859L18.1583 24.1859H12.1463L4.87429 35.1897L0.446289 31.7101L6.45829 23.2381ZM16.0103 18.1741L19.2023 18.2102L20.3063 11.8022L16.0103 18.1741ZM107.222 32.5262C105.578 33.0301 102.794 33.3541 101.222 31.9621C99.6383 30.5701 99.5785 27.1499 100.526 24.6899C101.786 21.3419 104.066 18.2459 107.474 17.7421C109.694 17.4301 112.406 18.3061 113.99 19.6981L114.302 18.6899H120.446L116.642 30.9539C116.894 31.5779 117.47 32.4659 116.138 32.4659H109.694L110.042 31.2661C109.214 31.7342 108.242 32.2739 107.222 32.5262ZM107.042 26.6821C107.198 26.9341 107.582 27.2579 108.278 27.0059C109.514 26.5859 111.662 24.5701 112.01 23.1419C111.122 21.8817 109.862 21.5937 108.53 22.7341C107.774 23.3941 106.514 25.7701 107.042 26.6821ZM62.1505 31.9621C60.5665 30.5701 60.5063 27.2222 61.4545 24.6899C62.6543 21.3419 64.9941 18.2459 68.4145 17.7541C70.6225 17.4421 73.3465 18.3061 74.9305 19.6981L75.2423 18.6899H81.3745L77.5825 30.9539C77.8345 31.5899 78.3985 32.4659 77.0786 32.4659H70.6226L70.9706 31.3379C70.1546 31.8061 69.1346 32.2859 68.1626 32.5377C66.5183 32.9819 63.7345 33.3541 62.1505 31.9621ZM68.2465 26.6821C68.3783 26.9702 68.8223 27.2579 69.4825 27.0059C70.7185 26.5619 72.8663 24.5701 73.2143 23.1419C72.3263 21.8817 71.0903 21.5339 69.7345 22.7341C69.0385 23.3699 67.8025 25.6741 68.2465 26.6821ZM86.6181 32.3342L88.7063 25.6382C89.2821 23.7421 91.5503 23.6822 90.9863 25.6382L89.0901 32.4061H95.5943C97.3101 32.4061 96.6141 31.0141 96.4823 30.3781L98.3781 24.3061C98.882 22.5421 98.9181 21.4021 98.2583 20.2019C96.77 17.5499 92.4981 17.4659 90.0383 19.6261L89.5943 18.7501H83.966L79.7901 32.3341H86.6181V32.3342Z" fill="#242424"/>
</svg>
