<svg width="77" height="36" viewBox="0 0 77 36" fill="none" xmlns="http://www.w3.org/2000/svg">
<path d="M67.1338 20.3456H71.0883V24.0242C70.3626 24.3009 68.9382 24.5778 67.5878 24.5778C63.2137 24.5778 61.7591 22.3574 61.7591 17.8483C61.7591 13.5451 63.1439 11.0128 67.5138 11.0128C69.9492 11.0128 71.3309 11.7769 72.4762 13.2341L75.4978 10.4581C73.6527 7.82715 70.4323 7.02979 67.4087 7.02979C60.6107 7.02708 57.0362 10.7351 57.0362 17.8125C57.0362 24.8547 60.266 28.6723 67.3723 28.6723C70.6355 28.6723 73.8247 27.8417 75.5614 26.6244V16.4251H67.1339L67.1338 20.3456ZM46.3909 24.2661H56.4545V28.36H41.5343V7.33832H46.3913L46.3909 24.2661Z" fill="#242424"/>
<path d="M29.4968 29.43C35.8453 23.0815 35.8449 12.7878 29.4961 6.44074C23.1474 0.0925049 12.854 0.0917411 6.50687 6.44012C0.158384 12.7885 0.158766 23.0823 6.5075 29.4294C12.8561 35.7781 23.1497 35.7783 29.4968 29.43Z" fill="#242424"/>
<path d="M13.0698 14.7643C13.4404 14.7625 13.8023 14.6509 14.1096 14.4436C14.4169 14.2364 14.6559 13.9428 14.7965 13.5998C14.9372 13.2568 14.973 12.8798 14.8996 12.5165C14.8261 12.1531 14.6467 11.8197 14.384 11.5583C14.1212 11.2968 13.7868 11.119 13.4232 11.0474C13.0596 10.9757 12.6828 11.0134 12.3405 11.1556C11.9982 11.298 11.7057 11.5384 11.4999 11.8468C11.2942 12.1551 11.1845 12.5174 11.1845 12.8881C11.185 13.1351 11.2342 13.3796 11.3293 13.6075C11.4245 13.8355 11.5635 14.0425 11.7385 14.2167C11.9136 14.3909 12.1213 14.5289 12.3497 14.6229C12.5781 14.7169 12.8228 14.7649 13.0698 14.7643ZM30.2643 18.4501H21.9973V17.2255H31.4759C31.4889 17.4627 31.4953 17.6998 31.4953 17.9398C31.4953 25.3134 25.4857 31.2907 18.0744 31.2907C10.6628 31.2907 4.65222 25.3171 4.65222 17.9398C4.65222 10.5631 10.6609 4.58887 18.0731 4.58887C18.2688 4.58887 18.4635 4.59282 18.6572 4.60084V5.81624C18.4635 5.8076 18.2694 5.80333 18.0749 5.80333C11.3382 5.80333 5.87505 11.2371 5.87505 17.9385C5.87505 24.6401 11.3375 30.0749 18.0749 30.0749C24.6272 30.0749 29.98 24.9337 30.2633 18.4842L30.2643 18.4501ZM21.9785 23.5518H18.6561V11.0698H17.4278V24.7847H18.659V24.7765H21.9813L21.9785 23.5518Z" fill="white"/>
</svg>
