<svg width="153" height="29" viewBox="0 0 153 29" fill="none" xmlns="http://www.w3.org/2000/svg">
<path d="M8.61951 7.04471V6.82248C8.61951 5.04471 10.3983 3.37804 12.1772 3.37804C14.1783 3.37804 15.846 4.93359 15.846 6.93359V7.37804C15.846 8.9336 14.1783 10.6003 12.5107 10.6003H11.8436C10.176 10.6003 8.61951 8.93359 8.61951 7.04471ZM0.837158 2.71137V21.8225C0.837158 22.8225 1.72657 23.7114 2.61598 23.7114H21.7383C22.7389 23.7114 23.5172 22.7114 23.5172 21.7114V2.82248C23.5172 1.60026 22.5166 0.933594 21.2936 0.933594H2.72716C1.83775 0.933594 0.837158 1.82248 0.837158 2.71137ZM37.0807 13.8225H45.6413L45.7525 21.4892C45.7525 22.2669 46.5307 22.7114 47.3089 22.7114H47.6424C48.4207 22.7114 49.1989 22.1558 49.1989 21.378V3.60026C49.1989 2.48915 48.5319 2.0447 47.5313 2.0447C45.5301 2.0447 45.6413 3.37804 45.6413 5.37804C45.6413 7.15582 45.6413 8.82248 45.6413 10.6003L37.0807 10.7114V3.37804C37.0807 2.48915 36.1913 2.0447 35.413 2.0447C34.6348 2.0447 33.6342 2.48915 33.6342 3.26693V21.378C33.6342 22.2669 34.3013 22.7114 35.1907 22.7114H35.413C37.4142 22.7114 37.0807 21.0447 37.0807 19.1558C37.0807 17.378 37.0807 15.6003 37.0807 13.8225ZM86.2207 10.9336C86.2207 10.6003 87.7772 10.4892 88.1107 10.4892H90.0007C92.6689 10.4892 93.5583 12.378 93.5583 15.0447V15.2669C93.5583 18.1558 92.4466 19.8225 89.6672 19.8225H88.1107C87.666 19.8225 86.2207 19.8225 86.2207 19.378V10.9336ZM88.8889 22.8225C93.8919 22.8225 97.116 20.4892 97.116 15.4892V14.9336C97.116 10.4892 94.3366 7.60026 90.0007 7.60026H89.1113C86.3319 7.60026 82.7742 7.82248 82.7742 10.6003V27.7114C82.7742 28.4892 83.6636 28.9336 84.4419 28.9336H84.553C85.4424 28.9336 86.2207 28.4892 86.2207 27.6003V22.4891L88.8889 22.8225ZM103.008 15.8225V14.2669C103.008 11.9336 104.231 10.0447 106.566 10.0447H107.567C110.457 10.0447 111.235 12.1558 111.235 15.0447V15.1558C111.235 16.6003 111.013 17.9336 110.346 18.7114C110.012 19.1558 109.679 19.4891 109.123 19.7114C108.345 20.0447 108.234 19.9336 107.233 20.0447C106.01 20.2669 104.565 19.7114 103.898 19.0447C103.342 18.4892 103.008 17.2669 103.008 15.8225ZM99.5619 14.9336V15.7114C99.5619 20.4892 102.452 23.0447 107.233 23.0447C112.347 23.0447 114.904 20.2669 114.904 15.2669V14.7114C114.904 12.6003 114.015 10.378 112.903 9.26693C111.68 8.04471 109.679 7.37804 107.233 7.37804C102.23 7.37804 99.5619 9.93359 99.5619 14.9336ZM55.9807 15.8225V14.6003C55.9807 11.9336 57.0924 10.1558 59.7607 10.1558H60.7613C63.096 10.1558 64.3189 11.9336 64.3189 14.2669V16.1558C64.3189 18.7114 62.7625 20.1558 60.2054 20.1558C57.2036 20.2669 55.9807 18.6003 55.9807 15.8225ZM52.423 14.6003V15.2669C52.423 20.2669 55.0913 22.9336 60.0942 22.9336H60.3166C65.0972 22.9336 67.7654 20.1558 67.7654 15.378V14.378C67.7654 9.93359 64.8748 7.26693 60.4277 7.26693H60.2054C57.7595 7.26693 55.8695 7.93359 54.5354 9.15582C53.3124 10.378 52.423 12.2669 52.423 14.6003ZM127.022 22.7114C128.579 22.7114 128.69 21.9336 128.69 20.378C128.69 19.0447 128.69 17.7114 128.69 16.378C128.69 13.378 128.023 10.7114 131.136 10.7114H133.248C136.361 10.7114 135.805 13.378 135.805 16.378C135.805 17.7114 135.805 19.1558 135.805 20.4892C135.805 22.1558 136.028 22.7114 137.695 22.7114H137.807C138.474 22.7114 139.363 22.2669 139.363 21.6003V12.4891C139.363 10.9336 138.585 9.60026 137.695 8.82248C136.917 8.15582 135.138 7.71137 133.582 7.71137H130.691C126.911 7.71137 125.244 9.71137 125.244 13.4892V21.2669C125.244 22.2669 126.022 22.7114 126.911 22.7114H127.022ZM74.436 18.2669L74.3248 10.6003H78.9942C79.5501 10.6003 79.7725 9.93359 79.7725 9.37804V9.15582C79.7725 8.48915 79.3277 7.9336 78.6607 7.9336H74.2136V3.82248C74.2136 2.93359 73.4354 2.48915 72.546 2.48915H72.4348C71.5454 2.48915 70.7672 2.93359 70.7672 3.93359V18.8225C70.7672 21.6003 73.1019 22.7114 75.8813 22.7114H78.883C79.5501 22.7114 79.9948 22.1558 79.9948 21.4892V21.2669C80.2172 18.378 74.436 21.9336 74.436 18.2669ZM146.478 18.1558C146.256 17.8225 146.367 12.8225 146.367 12.0447C146.367 10.1558 146.034 10.4892 147.924 10.4892C148.924 10.4892 150.036 10.4892 151.037 10.4892C151.592 10.4892 151.815 9.93359 151.815 9.26693V9.04471C151.815 8.37804 151.592 8.04471 151.037 7.82248L146.367 7.71137L146.256 3.37804C146.256 2.60026 145.478 2.15582 144.588 2.15582H144.366C143.477 2.15582 142.698 2.71137 142.698 3.71137V18.2669C142.698 21.4892 144.588 22.7114 147.812 22.7114H150.814C151.481 22.7114 152.037 22.2669 152.037 21.6003V21.1558C152.037 19.7114 150.147 20.1558 148.702 20.1558C147.479 20.1558 146.478 19.6003 146.478 18.1558ZM117.906 21.0447C117.906 22.0447 118.462 22.7114 119.351 22.7114H120.018C120.685 22.7114 121.464 22.1558 121.464 21.4892V9.04471C121.464 8.26693 120.797 7.71137 120.018 7.71137H119.574C118.573 7.71137 117.906 8.26693 117.906 9.26693V21.0447ZM117.461 3.26693C117.461 4.48915 118.462 5.48915 119.685 5.48915C120.797 5.48915 121.908 4.48915 121.908 3.48915V3.0447C121.908 1.93359 120.797 1.04471 119.685 1.04471C118.573 1.04471 117.461 2.15582 117.461 3.26693ZM146.478 18.1558V10.6003L151.037 10.4892C150.036 10.4892 148.924 10.4892 147.924 10.4892C146.034 10.4892 146.367 10.1558 146.367 12.0447C146.478 12.9336 146.367 17.9336 146.478 18.1558ZM45.6413 10.6003H37.0807L36.9695 3.26693V10.6003H45.6413ZM74.436 18.2669V10.6003L78.9942 10.4892H74.3248L74.436 18.2669Z" fill="#242424"/>
</svg>
