<svg width="134" height="38" viewBox="0 0 134 38" fill="none" xmlns="http://www.w3.org/2000/svg">
<path fill-rule="evenodd" clip-rule="evenodd" d="M29.6311 13.5593C29.5437 13.4627 29.4017 13.4443 29.2512 13.5089C28.5723 13.7745 28.3713 13.6261 28.2243 13.4507C28.0418 13.244 27.7684 13.2575 27.5092 13.4833C25.0131 15.7096 21.4112 16.3921 19.486 16.6009C18.7425 16.6868 18.1538 16.696 17.825 16.6172C17.6624 16.7798 17.3464 16.9119 17.1454 16.8941C17.1003 16.8913 17.0562 16.8797 17.0155 16.8601C17.5028 16.4002 17.8633 15.8225 18.0622 15.1827C18.3605 14.8603 18.6261 14.4456 18.734 14.2404C18.7653 14.1807 18.8611 13.9989 18.761 13.8718C18.6651 13.7496 18.4634 13.7994 18.4059 13.8136C18.2937 13.8164 18.2078 13.5409 18.2078 13.3832C18.0331 12.2243 17.3457 11.2059 16.3167 10.5853C16.5596 10.1627 16.8486 10.047 17.1092 9.94401C18.2461 9.48952 19.2822 8.2205 20.0677 6.28963C20.7913 4.51073 20.2558 2.53442 19.6664 1.75895C19.077 0.982766 17.808 0.715756 16.6498 1.12267C15.9176 1.37974 14.5541 2.59265 13.4584 3.56696C12.8676 4.09246 12.3577 4.54624 12.0736 4.73869C11.6767 5.00783 11.1341 5.2017 10.4467 5.4467C9.76425 5.69028 8.9135 5.9928 7.95765 6.47072C7.10193 6.89822 6.5601 7.48125 6.34564 8.20417C6.13046 8.92993 6.27391 9.77641 6.74971 10.5867C7.59619 12.029 9.7188 11.578 10.0327 11.4041C10.2315 11.2933 10.5553 11.3827 10.7336 11.5361C10.9111 11.6881 10.86 11.9182 10.7911 12.0744C10.4684 12.654 10.299 13.3064 10.299 13.9698C10.299 14.393 10.3657 14.8099 10.4964 15.209C10.5234 15.2899 10.5213 15.3787 10.4914 15.4163C10.4737 15.4391 10.4353 15.4476 10.3792 15.4426C10.3108 15.4305 10.2403 15.4413 10.1786 15.4734C10.117 15.5056 10.0677 15.5571 10.0384 15.6201C9.99646 15.716 10.0043 15.8573 10.1513 15.9681C10.304 16.0832 10.7201 16.2799 11.0979 16.3573C11.6088 17.0356 12.3228 17.5331 13.136 17.7775L13.6487 19.3555L14.9994 18.6965C15.221 18.5857 15.603 18.504 16.0142 18.6034L17.536 18.8648C17.8705 18.3712 18.1403 18.2264 18.2859 18.2235C18.3338 18.2237 18.381 18.2348 18.424 18.2559C18.4669 18.2771 18.5045 18.3078 18.5338 18.3457C19.8447 20.1238 20.0492 21.4816 19.9533 23.0951C19.8518 24.8015 17.9024 25.5656 16.9303 25.5784C15.3111 25.6154 14.0975 25.0948 13.3206 24.0332C12.0104 22.2408 12.3158 19.3839 12.6765 18.3336C5.39902 16.767 3.3666 13.3605 2.72677 12.264L2.64794 12.1305C2.55776 11.9729 2.43419 11.877 2.28151 11.8479C2.0848 11.8103 1.85472 11.8912 1.58274 12.0915L0.727018 11.5035C0.53244 11.3132 0.364848 11.2535 0.227791 11.3288C0.117009 11.3898 0.111328 12.0304 0.111328 12.0304L0.113458 12.0368L0.499064 13.1936C0.564397 13.4031 0.654584 13.6893 1.048 13.8817C2.1828 14.5578 2.96396 15.2196 3.35879 15.8438L10.4602 22.9204C10.9061 23.311 10.8785 23.933 10.7769 24.3868C9.70957 27.3886 5.70438 31.1928 5.70438 31.1928H9.90698C10.9026 31.1928 10.9246 31.5528 10.9509 32.008C10.9786 32.4817 10.865 34.3607 10.6604 35.0914C10.4573 35.8158 10.267 35.9983 9.79762 36.1808C9.43119 36.3235 9.38148 36.4982 9.40349 36.619C9.43474 36.7873 9.62435 36.8874 9.78839 36.8874C9.78839 36.8874 10.2372 36.952 10.7109 36.3754C10.9409 36.0956 13.947 32.4895 14.1934 32.2445C14.3248 32.1011 14.5115 31.9448 14.6812 31.9924C14.8709 32.0449 15.0072 32.3226 15.0541 32.5584C15.135 32.9617 15.1925 36.8128 15.1925 36.8128L15.3481 36.7986C15.8338 36.7546 16.1889 36.9591 16.4743 37.1239C16.5404 37.1622 16.6036 37.1977 16.6618 37.2275C16.8188 37.3057 16.9757 37.2872 17.0432 37.1821C17.09 37.1082 17.0922 36.9896 16.9558 36.881C16.5553 36.5508 16.3387 36.2525 16.3153 35.9969C16.2933 35.7668 16.4317 35.5793 16.5631 35.4224C17.8442 33.8849 21.5866 29.0041 22.3124 26.8801C23.1539 24.4166 22.9494 21.2395 22.2783 19.6502C22.8663 18.8108 26.9865 16.0753 27.8217 15.8737C28.987 15.5925 29.2043 15.0655 29.5828 14.1452C29.7632 13.8171 29.6943 13.6296 29.6311 13.5593Z" fill="#242424"/>
<path fill-rule="evenodd" clip-rule="evenodd" d="M29.3918 13.7538C29.3832 13.7524 29.433 13.7361 29.3918 13.7538V13.7538ZM18.5068 14.0791C18.5011 14.0911 18.5153 14.062 18.5068 14.0791V14.0791Z" fill="#242424"/>
<path fill-rule="evenodd" clip-rule="evenodd" d="M29.3918 13.7538C28.7363 14.0095 28.3117 13.9789 28.017 13.6302C27.9239 13.5244 27.7869 13.6047 27.6889 13.6892C25.1374 15.9652 21.473 16.6611 19.5159 16.8735C18.7894 16.9572 18.2604 16.9622 17.9003 16.8912C17.6823 17.0801 17.3784 17.1895 17.1206 17.1674C16.9381 17.1511 16.7776 16.9785 16.6846 16.8472C17.1966 16.4026 17.6014 15.7479 17.8108 15.0718C17.8108 15.0718 18.4024 14.2758 18.5061 14.0791C18.4095 14.1231 18.315 14.1075 18.2256 14.0514C18.0324 13.9321 17.9408 13.6068 17.9351 13.4122C17.7661 12.2952 17.0851 11.3266 16.0667 10.7556L15.9531 10.6917L16.0114 10.5752C16.3167 9.96522 16.708 9.8097 17.007 9.6911C18.0729 9.26431 19.0571 8.04784 19.8134 6.18799C20.4966 4.5078 19.9995 2.6515 19.4477 1.92503C18.9279 1.24116 17.7888 1.0125 16.7393 1.38106C16.0582 1.62038 14.7168 2.81341 13.6395 3.77139C13.0416 4.30328 12.5253 4.76274 12.2263 4.96513C11.8002 5.25345 11.2435 5.45229 10.5383 5.70367C9.86227 5.94441 9.02075 6.24409 8.07982 6.71491C7.29511 7.10762 6.79944 7.63454 6.6077 8.28148C6.41454 8.93409 6.54876 9.70318 6.98549 10.4481C7.7567 11.7626 9.74722 11.2499 9.8999 11.1646C10.2237 10.985 10.6626 11.1149 10.9111 11.328C11.1462 11.5289 11.1916 11.8457 11.0304 12.2057C10.7297 12.745 10.5718 13.3522 10.5717 13.9697C10.5717 14.3638 10.6335 14.7523 10.7549 15.123C10.8004 15.2593 10.811 15.4525 10.7045 15.5867C10.6491 15.6556 10.5433 15.733 10.3402 15.7117C10.3146 15.7074 10.2969 15.7188 10.2912 15.7259C10.294 15.7301 10.8401 16.0362 11.1966 16.098L11.2833 16.1519C11.7751 16.8237 12.478 17.3113 13.2795 17.5367L13.8099 18.9712L14.8773 18.4507C15.2503 18.276 15.6722 18.2354 16.0717 18.3356L17.3876 18.5991C17.6901 18.1751 17.9905 17.955 18.2788 17.9493C18.3704 17.9482 18.461 17.9687 18.5432 18.0092C18.6254 18.0497 18.6968 18.1089 18.7518 18.1822C20.1124 20.0272 20.3233 21.4354 20.2246 23.1106C20.1209 24.8476 18.2128 25.8333 16.9338 25.8503C15.2217 25.8894 13.9314 25.3319 13.0991 24.1929C11.8869 22.5354 11.9494 19.927 12.3875 18.4968C5.11428 16.8905 3.14151 13.5145 2.49032 12.3996L2.4122 12.2668C2.36107 12.1794 2.30142 12.1297 2.2304 12.1155C2.13951 12.0985 1.5927 12.4301 1.5927 12.4301C1.5927 12.4301 0.381203 11.5787 0.359899 11.573C0.344276 11.6056 0.322972 11.7193 0.375522 11.9593C0.401797 12.0395 0.741244 13.0543 0.759707 13.1126C0.818649 13.3014 0.879721 13.4967 1.17798 13.6423C2.35184 14.3411 3.15998 15.0278 3.58038 15.684L10.647 22.7214C11.1874 23.1944 11.1611 23.9209 11.0432 24.4528C10.4375 26.7075 7.57136 29.8328 6.42377 30.92H9.90843C11.0674 30.92 11.1909 31.4057 11.225 31.993C11.257 32.5356 11.1334 34.4238 10.9253 35.1659C10.713 35.9243 10.4829 36.2098 9.89919 36.4371C9.7316 36.5024 9.68828 36.5549 9.67763 36.5713C9.69041 36.5869 9.82392 36.6153 9.82392 36.6153C9.98157 36.616 10.086 36.6167 10.5199 36.1828C10.7663 35.9364 11.5212 35.0161 12.2519 34.1263C13.0203 33.191 13.746 32.3069 13.9974 32.0555C14.2566 31.7715 14.5123 31.6614 14.7558 31.7288C15.0789 31.819 15.2636 32.2032 15.3239 32.5043C15.4106 32.9375 15.4922 35.6453 15.478 36.5223C15.8942 36.5209 16.2208 36.6686 16.4765 36.8106C16.2102 36.5336 16.0682 36.2737 16.0447 36.0223C16.0149 35.7042 16.1761 35.4613 16.3544 35.2476C17.6269 33.7208 21.3417 28.8791 22.0546 26.792C22.8869 24.354 22.6668 21.1464 21.9929 19.6295C22.4672 18.7986 26.8488 15.8274 27.7592 15.608C28.7889 15.3594 28.9685 14.9248 29.3364 14.0329C29.4301 13.8639 29.3961 13.7701 29.3918 13.7538Z" fill="#242424"/>
<path fill-rule="evenodd" clip-rule="evenodd" d="M3.44547 14.0598L2.76658 14.5618C2.76658 14.5618 1.82209 13.8829 1.49756 13.7061C1.17303 13.5293 1.04023 13.3518 0.922347 13.116L0.789551 12.6139C0.789551 12.1126 1.52739 12.7027 1.88174 13.0571C2.11964 13.295 2.32416 13.4412 2.26522 13.1749C2.07348 12.555 2.3831 12.3192 2.61958 12.8206C2.70835 13.0123 2.7964 13.1451 2.88517 13.3518C2.97394 13.5584 3.37162 14.0008 3.44547 14.0598ZM3.00305 14.7678L3.65212 14.2366L4.09454 14.6499L3.47459 15.24L3.00305 14.7678ZM26.9347 15.7414C27.2593 15.6235 27.8728 15.4658 28.2329 15.2691C28.3955 15.1804 28.5134 15.0476 28.5432 14.9737C28.6376 14.738 28.8237 14.0733 28.1008 14.4276C27.6143 14.6662 27.6257 14.2998 27.348 14.265C27.1584 14.2416 26.7139 14.6932 26.3822 14.9474L26.9347 15.7414ZM26.079 15.1513L25.5478 15.4467L26.0492 16.2136L26.6393 15.9189L26.079 15.1513ZM11.649 11.1674C12.3605 10.5003 13.2998 10.13 14.2751 10.132C14.829 10.132 15.3637 10.2492 15.8395 10.4594C16.223 10.105 16.4147 8.50435 16.4737 8.20964C16.5326 7.91423 16.6732 7.99589 16.6363 8.18763C16.6065 8.30622 16.5376 8.9908 16.5184 9.19816C16.4957 9.43463 16.7549 9.78047 17.551 9.25C18.3477 8.71882 19.322 7.08123 19.6757 6.07781C20.0301 5.07438 20.1188 3.2891 19.2326 2.13867C18.347 0.987536 16.7244 1.54855 16.1932 1.96114C15.662 2.37444 13.2425 4.70582 12.2391 5.35489C11.2357 6.00396 9.22884 6.29937 7.783 7.15509C6.33715 8.01081 6.63186 9.75207 7.31076 10.5488C7.98965 11.3456 9.43549 11.139 9.67197 11.0211C10.0562 10.9025 10.7492 10.7924 10.2032 10.0475C10.1151 9.92889 10.174 9.86285 10.2919 9.89268C10.4318 10.0035 10.5646 10.2392 10.6165 10.475C10.6811 10.769 10.794 10.9032 11.0298 11.139C11.2655 11.374 11.3834 11.4038 11.649 11.1674Z" fill="white"/>
<path fill-rule="evenodd" clip-rule="evenodd" d="M17.7384 14.5901C16.8969 15.3429 15.2053 15.2847 14.9688 15.2399C14.7324 15.1959 14.6734 15.2548 14.836 15.3734C15.6619 15.7718 17.0233 15.5893 17.4508 15.4856C17.1966 16.0184 16.8125 16.4787 16.3338 16.8241C15.8551 17.1694 15.2971 17.3888 14.7114 17.4619C14.1256 17.5351 13.5309 17.4596 12.9819 17.2426C12.433 17.0255 11.9475 16.6739 11.5701 16.2199C11.9827 16.1446 12.5622 15.8975 12.7255 15.6532C12.8292 15.5645 12.7845 15.4764 12.5927 15.5943C12.401 15.7122 11.7114 15.857 11.269 15.7981C11.051 15.4406 10.899 15.0468 10.8202 14.6356C11.0127 14.4495 11.3074 14.3451 11.4267 14.2443C11.5509 14.1406 11.803 14.0746 12.0054 14.0135C12.1269 13.9737 12.2412 13.9333 12.2149 13.7998C12.1943 13.6911 11.7562 13.6591 11.5375 13.7351C11.1732 13.863 10.9353 13.8459 10.7684 13.6904C10.8084 13.2172 10.9439 12.757 11.1666 12.3375C11.3893 11.9181 11.6947 11.5481 12.0643 11.2498C12.4338 10.9516 12.86 10.7313 13.317 10.6022C13.774 10.4731 14.2525 10.4379 14.7235 10.4987C15.1945 10.5595 15.6483 10.715 16.0575 10.956C16.4668 11.1969 16.823 11.5182 17.1047 11.9005C17.3865 12.2828 17.5879 12.7182 17.6968 13.1805C17.8057 13.6427 17.8198 14.1223 17.7384 14.5901Z" fill="white"/>
<path fill-rule="evenodd" clip-rule="evenodd" d="M14.172 12.9338C13.9952 12.9884 13.8028 13.4628 14.172 13.2874C14.4071 13.1759 14.7096 13.2789 14.7941 13.2959C15.0341 13.3449 15.1677 13.1503 14.9447 13.0353C14.7032 12.9089 14.3489 12.8386 14.172 12.9338ZM65.9092 32.6039H69.494V23.5738H65.9092V32.6039ZM65.9092 22.4191H69.494V19.8683H65.9092V22.4191ZM75.9854 30.7156C74.9344 30.7156 74.4167 29.5538 74.4167 28.1925C74.4167 27.1237 74.6396 25.7276 75.9854 25.7276C76.3809 25.7276 76.6912 25.8483 76.9149 26.0898C77.1393 26.3135 77.395 26.6245 77.4127 27.0208H81.0479C80.7902 24.3492 78.3977 23.3153 75.9854 23.3153C73.0035 23.3153 70.8326 25.0906 70.8326 28.1755C70.8326 31.2255 73.0724 32.8631 75.9854 32.8631C78.4836 32.8631 80.8079 32.1118 81.1175 29.3721H77.4987C77.3943 30.0772 76.9142 30.7156 75.9854 30.7156ZM121.746 28.8991C122.08 25.4329 119.78 23.3153 116.438 23.3153C113.543 23.3153 111.32 25.2113 111.32 28.1755C111.32 31.2085 113.795 33.0399 116.691 33.0399C118.793 33.0399 120.93 32.4569 121.511 30.3542H118.082C117.823 30.8882 117.306 31.0352 116.737 31.0281C115.293 31.0111 114.903 29.9679 114.903 28.8998L116.502 28.8863V28.8998L121.746 28.8991ZM114.904 27.0719C114.904 26.1075 115.507 25.5039 116.575 25.5039C117.42 25.5039 118.16 26.2453 118.16 27.0719L116.503 27.0861V27.0719H114.904ZM34.3208 28.1769C34.3208 28.1769 31.547 19.7965 31.547 19.8555H26.7663V32.6032H30.4257C30.3369 30.4493 30.2489 27.1735 30.4257 25.0487L32.9048 32.6032H35.7375L38.098 25.2845C38.1868 27.498 38.2159 30.1241 38.098 32.6032H41.7574V19.8562H37.0357L34.3208 28.1769ZM123.612 23.5738H122.406V25.6417H123.595V32.6039H127.179V25.6417H128.678V23.5738H127.179C127.093 22.1265 127.507 22.1265 128.678 22.1265V19.8683H127.144C124.853 19.8683 123.612 20.386 123.612 23.5738ZM61.1768 23.5738V24.5857C60.5391 23.7073 59.2566 23.3153 58.1715 23.3153C55.2074 23.3153 54.1387 25.6744 54.1387 27.8971L54.1529 27.8992H54.1387C54.1387 30.2086 55.5689 32.1735 58.0678 32.1735C59.3603 32.1735 60.3474 32.0436 60.9183 31.5152V31.9321C60.9183 33.2246 60.7898 33.9908 59.5882 33.9851C59.1373 33.983 58.6729 33.8402 58.5181 33.7025C58.3626 33.5647 58.2944 33.4092 58.2944 33.3062H54.6926C54.8651 34.6328 56.2087 35.9082 59.3972 35.9082C63.8427 35.9082 64.3306 33.7884 64.3306 31.0828V23.5745L61.1768 23.5738ZM59.2254 30.0154C58.3349 30.0005 57.8122 29.2762 57.7348 28.2074C57.8072 27.2871 58.2425 25.8668 59.2254 25.8831C60.363 25.8831 60.9389 26.9966 60.9191 27.8303C60.8878 29.1214 60.3275 30.068 59.2254 30.0154ZM52.9442 31.2774V27.0556C52.9442 24.901 52.6857 23.3153 48.4121 23.3153C44.8451 23.3153 43.2473 24.4359 43.2473 26.3483H46.6936C46.7795 25.5728 47.6877 25.4691 48.1877 25.4691C48.5662 25.4691 49.3594 25.5558 49.3594 26.2105C49.3594 27.8992 42.6955 26.0379 42.6955 30.1397C42.6955 32.018 44.2123 32.8624 45.9181 32.8624C47.2624 32.8624 48.2196 32.7516 49.1357 31.9626L49.7209 32.6032H53.2488V32.4313C53.0003 32.1615 52.9442 31.7936 52.9442 31.2774ZM47.5386 30.8293C46.8335 30.8293 46.4024 30.5154 46.401 30.0687C46.4038 28.8998 48.1891 29.1739 49.3601 28.6058C49.4461 29.8464 48.7963 30.8293 47.5386 30.8293ZM93.3852 30.134C91.3172 30.134 90.5837 28.2607 90.5837 26.5201C90.5837 24.1248 91.8002 22.9013 93.2304 22.9013C94.5051 22.9013 95.4929 23.5539 95.6129 24.8456H99.4732C99.2708 22.0392 97.2206 19.8555 92.8213 19.8676C89.358 19.8782 86.6353 22.3672 86.6353 26.3824C86.6353 30.4145 88.8992 32.9575 93.5137 32.9306C96.7882 32.9121 99.1089 31.4229 99.8105 28.091H95.8842C95.7279 29.2797 94.694 30.134 93.3852 30.134ZM106.575 23.3153C105.369 23.3153 104.294 23.7982 103.57 24.7114V20.1963H100.015V32.6046H103.57V28.0036C103.57 26.8489 104.129 26.143 105.232 26.143C106.249 26.143 106.489 26.9349 106.489 27.8318V32.6053H110.075V27.1948C110.075 24.7114 108.954 23.3153 106.575 23.3153ZM131.635 20.4122C131.46 20.4118 131.285 20.446 131.123 20.5129C130.96 20.5798 130.813 20.678 130.688 20.802C130.563 20.926 130.464 21.0734 130.397 21.2356C130.329 21.3979 130.294 21.5719 130.294 21.7476C130.293 21.9234 130.327 22.0976 130.394 22.2602C130.461 22.4227 130.559 22.5705 130.683 22.6951C130.807 22.8197 130.955 22.9187 131.117 22.9863C131.279 23.054 131.453 23.089 131.629 23.0895C131.984 23.0903 132.325 22.9501 132.576 22.6996C132.828 22.4492 132.97 22.1091 132.971 21.754C132.972 21.399 132.831 21.0582 132.581 20.8066C132.331 20.5549 131.99 20.4131 131.635 20.4122ZM131.635 22.9268C131.323 22.9268 131.024 22.8029 130.804 22.5823C130.583 22.3617 130.459 22.0625 130.459 21.7505C130.459 21.4385 130.583 21.1393 130.804 20.9187C131.024 20.6981 131.323 20.5741 131.635 20.5741C132.283 20.5741 132.807 21.0989 132.807 21.7466C132.807 22.4013 132.283 22.9268 131.635 22.9268Z" fill="#242424"/>
<path fill-rule="evenodd" clip-rule="evenodd" d="M132.322 21.3965C132.322 21.2708 132.265 21.138 132.153 21.0748C132.042 21.0081 131.916 21.001 131.789 21.001H131.138V22.4958H131.321V21.8056H131.657L132.084 22.4958H132.301L131.85 21.8056C132.115 21.7992 132.322 21.6912 132.322 21.3965ZM131.599 21.6628H131.321V21.1345H131.748C131.933 21.1345 132.137 21.1622 132.137 21.393C132.136 21.6976 131.81 21.6628 131.599 21.6628Z" fill="#242424"/>
</svg>
