<svg width="110" height="33" viewBox="0 0 110 33" fill="none" xmlns="http://www.w3.org/2000/svg">
<path d="M64.4896 0.933594C62.6647 0.933594 60.9844 1.15365 59.4666 1.59376C57.9489 2.03388 56.648 2.73073 55.582 3.68431C54.4979 4.63789 53.6668 5.86655 53.0705 7.37027C52.5827 8.61726 52.2936 10.066 52.2033 11.7164H58.4368C58.491 10.9645 58.6355 10.286 58.8343 9.69921C59.1233 8.85565 59.5389 8.15881 60.0629 7.60866C60.5869 7.07686 61.2192 6.67342 61.9781 6.41669C62.737 6.15995 63.5681 6.04993 64.5076 6.04993C65.4291 6.04993 66.2783 6.17829 67.0372 6.41669C67.796 6.67342 68.4284 7.05852 68.9704 7.60866C69.5125 8.14047 69.91 8.83732 70.2171 9.69921C70.4159 10.286 70.5604 10.9645 70.6146 11.7164H76.8481C76.7578 10.066 76.4687 8.61726 75.9808 7.37027C75.3846 5.86655 74.5535 4.63789 73.4694 3.68431C72.3853 2.73073 71.0844 2.03388 69.5667 1.59376C67.9948 1.17199 66.3144 0.933594 64.4896 0.933594ZM76.812 13.862H70.5785C70.5243 14.6138 70.3797 15.2923 70.181 15.8792C69.8919 16.7227 69.4763 17.4196 68.9343 17.9697C68.3923 18.5015 67.7599 18.9049 67.001 19.1617C66.2422 19.4184 65.411 19.5284 64.4715 19.5284C63.55 19.5284 62.7008 19.4001 61.942 19.1617C61.1831 18.9233 60.5507 18.5198 60.0267 17.9697C59.5028 17.4379 59.0872 16.741 58.7981 15.8792C58.5994 15.2923 58.4548 14.6138 58.4006 13.862H52.1671C52.2575 15.5307 52.5466 16.9978 53.0344 18.2264C53.6307 19.7118 54.4799 20.9405 55.5459 21.8941C56.63 22.8476 57.9309 23.5445 59.4305 23.9846C60.9482 24.4247 62.6105 24.6448 64.4534 24.6448C66.2783 24.6448 67.9586 24.4247 69.4944 23.9846C71.0121 23.5445 72.3311 22.8476 73.3971 21.8941C74.4812 20.9405 75.3123 19.7118 75.9086 18.2264C76.4325 16.9978 76.7216 15.5307 76.812 13.862ZM107.437 25.7267C106.913 25.7267 106.444 25.9468 106.1 26.2769C105.757 26.6253 105.54 27.1021 105.54 27.6339C105.54 28.1657 105.757 28.6425 106.1 28.9726C106.444 29.321 106.913 29.541 107.437 29.541C107.961 29.541 108.431 29.321 108.774 28.9726C109.118 28.6241 109.334 28.1474 109.334 27.6339C109.334 27.1204 109.118 26.6253 108.774 26.2769C108.413 25.9468 107.943 25.7267 107.437 25.7267ZM107.437 29.2293C107.004 29.2293 106.606 29.0459 106.317 28.7525C106.028 28.4591 105.865 28.074 105.865 27.6339C105.865 27.1938 106.046 26.7903 106.317 26.4969C106.606 26.2035 107.004 26.0201 107.437 26.0201C107.871 26.0201 108.268 26.2035 108.558 26.4969C108.847 26.7903 109.027 27.1754 109.027 27.6339C109.027 28.074 108.847 28.4774 108.576 28.7525C108.558 28.7708 108.558 28.7708 108.539 28.7892C108.214 29.0643 107.835 29.2293 107.437 29.2293ZM107.564 26.4786H106.534V28.8075H106.841V27.7806H107.202L107.365 27.7989L107.51 27.8539L107.672 28.019C107.726 28.0923 107.799 28.2024 107.889 28.3491L108.196 28.8259H108.521L108.558 28.7892L108.178 28.2024C108.106 28.074 108.015 27.9823 107.925 27.8906L107.744 27.7806C107.961 27.7439 108.124 27.6706 108.232 27.5605C108.341 27.4505 108.395 27.3038 108.395 27.1388C108.395 27.0104 108.359 26.9004 108.305 26.7903C108.232 26.6803 108.16 26.6069 108.052 26.5703C107.925 26.4969 107.763 26.4786 107.564 26.4786ZM106.841 27.5055V26.7353H107.564C107.726 26.7353 107.853 26.772 107.943 26.8453C108.015 26.9187 108.07 27.0104 108.07 27.1204L108.015 27.3221L107.835 27.4688C107.763 27.5055 107.654 27.5055 107.51 27.5055H106.841ZM48.5174 1.35537C48.8788 1.35537 49.1679 1.64878 49.1679 2.01554V5.37141V21.3439V23.6362C49.1679 24.0029 48.8788 24.2963 48.5174 24.2963H43.2777C42.9163 24.2963 42.6272 24.0029 42.6272 23.6362V21.3439V14.2287H35.0386C33.6113 14.2287 32.1839 15.5674 32.1839 16.8694V21.3256V23.6178C32.1839 23.9846 31.8948 24.278 31.5334 24.278H26.2937C25.9323 24.278 25.6432 23.9846 25.6432 23.6178V21.3256V5.35308V1.9972C25.6432 1.63044 25.9323 1.33703 26.2937 1.33703H31.5334C31.8948 1.33703 32.1839 1.63044 32.1839 1.9972V5.35308V9.07571H42.6272V5.37141V2.01554C42.6272 1.64878 42.9163 1.35537 43.2777 1.35537H48.5174ZM94.2657 1.35537C95.6027 1.35537 96.8494 1.52041 98.0058 1.83216C106.173 4.05107 105.161 14.3021 96.8675 15.439C99.2706 18.2448 101.529 20.372 103.932 23.1777C104.42 23.7462 104.817 24.0763 103.408 24.0763H97.789H97.4276C96.4339 24.0763 96.3616 24.0396 95.6569 23.141L86.8939 12.5966C86.7133 12.3766 86.6591 12.2115 86.8397 12.0098C87.0204 11.8081 87.2734 11.7164 87.6167 11.7164H92.5131C97.8613 11.7164 99.2525 5.9399 92.5131 5.9399H86.4061V22.5909V23.6362C86.4061 24.0029 86.117 24.2963 85.7557 24.2963H80.5159C80.1546 24.2963 79.8655 24.0029 79.8655 23.6362V2.03388C79.8655 1.66712 80.1546 1.37371 80.5159 1.37371H80.6785H85.7376H85.7557H94.2657M3.69056 29.1009L3.65443 29.1926L2.33546 30.8981L3.65443 32.6402L3.63636 32.8236L3.56409 32.8419H2.89557L2.78716 32.7869L1.66694 31.2648V32.7135L1.54046 32.8419H1.01649L0.890015 32.7135V29.1193L1.01649 28.9909H1.54046L1.66694 29.1193V30.5313L2.80523 29.0276L2.91364 28.9726H3.58215L3.69056 29.1009ZM18.398 28.9726L18.5244 29.1009V32.6952L18.398 32.8236H17.874L17.7475 32.6952V29.1009L17.874 28.9726H18.398ZM35.7433 29.1009V29.5777L35.6168 29.7061H34.5508V32.6952L34.4243 32.8236H33.9184L33.7919 32.6952V29.7061H32.7259L32.5994 29.5777V29.1009L32.7259 28.9726H35.6168L35.7433 29.1009ZM51.8781 28.8992L52.0045 28.9175L52.1491 28.9359L52.2936 28.9726L52.4562 29.0276L52.6189 29.1009C52.7273 29.1559 52.8357 29.211 52.926 29.2843L53.1428 29.4677L53.3054 29.6511L53.4138 29.8161L53.5042 29.9628L53.45 30.1462L53.3958 30.1645H52.7634L52.655 30.1095L52.6189 30.0728L52.5466 29.9995L52.3659 29.8528L52.2394 29.7794L52.0949 29.7244L51.9323 29.6877L51.7516 29.6694L51.5167 29.6877L51.2999 29.7611L51.1011 29.8711L50.9205 30.0178L50.7759 30.2012L50.6675 30.4213L50.5952 30.6597L50.5772 30.9164L50.5952 31.1731L50.6675 31.4115V31.4299L50.7759 31.6316L50.9205 31.815L51.1011 31.9617L51.2999 32.0717L51.5167 32.1451L51.7516 32.1634L52.0045 32.1267L52.2394 32.035L52.4562 31.9067L52.6369 31.7233L52.7273 31.6866H53.3596L53.4861 31.815L53.468 31.8883C53.3596 32.0717 53.2512 32.2367 53.1067 32.3651L52.8899 32.5485L52.673 32.6952L52.4382 32.8052L52.2033 32.8786L51.9684 32.9153L51.7516 32.9336C51.6251 32.9336 51.4806 32.9153 51.3541 32.8969C51.2276 32.8786 51.1011 32.8236 50.9927 32.7686C50.8843 32.7135 50.7578 32.6585 50.6675 32.5852C50.5591 32.5118 50.4688 32.4385 50.3784 32.3284C50.2881 32.2367 50.2158 32.1451 50.1435 32.035C50.0713 31.925 50.017 31.815 49.9628 31.6866C49.9086 31.5582 49.8725 31.4482 49.8544 31.3015C49.8183 31.1731 49.8183 31.0448 49.8183 30.8981C49.8183 30.623 49.8725 30.3479 49.9809 30.1095C50.0351 29.9812 50.0893 29.8711 50.1616 29.7611C50.2339 29.6511 50.3061 29.5594 50.3965 29.4677C50.4868 29.376 50.5772 29.3026 50.6856 29.2293C50.794 29.1559 50.9024 29.1009 51.0108 29.0459C51.1373 28.9909 51.2457 28.9542 51.3722 28.9359C51.4986 28.9175 51.6251 28.8992 51.7516 28.8992H51.8781ZM70.6869 29.1009V32.7135L70.5604 32.8419H70.0364L69.91 32.7135V31.2648H68.3561V32.7135L68.2296 32.8419H67.7237L67.5973 32.7135V29.1193L67.7237 28.9909H68.2296L68.3561 29.1193V30.5313H69.91V29.1009L70.0364 28.9726H70.5424L70.6869 29.1009ZM87.2553 29.1009V29.5777L87.1288 29.7061H85.5208V30.513H87.1288L87.2553 30.6413V31.1181L87.1288 31.2465H85.5208V32.09H87.1288L87.2553 32.2184V32.6952L87.1288 32.8236H84.8703L84.7438 32.6952V29.1009L84.8703 28.9726H87.1288L87.2553 29.1009ZM104.384 29.1009V32.7135L104.257 32.8419H103.715L103.607 32.7686L102.071 30.3479V32.7135L101.945 32.8419H101.421L101.294 32.7135V29.1193L101.421 28.9909H101.981L102.089 29.0643L103.589 31.4482V29.1376L103.715 29.0092H104.221L104.384 29.1009ZM21.1985 1.68545L22.0296 1.92385C22.2826 1.9972 22.5175 2.14391 22.5175 2.41898V6.30666C22.5175 6.56339 22.3007 6.72844 22.0296 6.80179L21.1985 7.04018V7.37027H17.3861C16.1575 7.59033 15.0734 8.48889 15.0734 9.62586V12.7433V23.6362C15.0734 24.0029 14.7663 24.3147 14.4049 24.3147H11.7128H9.02064C8.65928 24.3147 8.35212 24.0029 8.35212 23.6362V12.7433V9.62586C8.35212 8.48889 7.26804 7.57199 6.03941 7.37027H2.19091V7.02184L1.39592 6.80179C1.14297 6.72844 0.908083 6.58173 0.908083 6.30666V2.41898C0.908083 2.14391 1.1249 1.9972 1.39592 1.92385L2.19091 1.70379V1.37371H21.1985V1.68545Z" fill="#242424"/>
</svg>
