<svg width="1360" height="220" viewBox="0 0 1360 220" fill="none" xmlns="http://www.w3.org/2000/svg">
<path d="M0 215.256L76.9053 4.74393H103.629L180.237 215.256H158.265L135.698 152.102H44.5397L21.9729 215.256H0ZM51.3692 132.534H128.868L90.2672 22.8302L51.3692 132.534Z" fill="#3098EE"/>
<path d="M203.342 215.256V4.74393H223.534V215.256H203.342Z" fill="#3098EE"/>
<path d="M268.157 215.256V4.74393H345.359C360.404 4.74393 373.172 7.31356 383.663 12.4528C394.353 17.3944 402.568 24.5103 408.309 33.8005C414.049 43.0907 416.92 54.2588 416.92 67.3046C416.92 76.9901 414.643 85.5885 410.09 93.0997C405.735 100.611 399.896 106.64 392.571 111.186C385.247 115.732 377.329 118.302 368.817 118.895L367.332 116.226C381.189 116.226 391.879 119.389 399.401 125.714C407.121 131.842 411.575 141.527 412.763 154.771L418.108 215.256H397.619L392.571 156.55C391.78 146.864 388.315 139.748 382.179 135.202C376.042 130.458 366.144 128.086 352.486 128.086H288.348V215.256H268.157ZM288.348 108.518H348.626C363.076 108.518 374.459 104.96 382.773 97.8437C391.285 90.5301 395.541 80.2516 395.541 67.0081C395.541 53.1716 391.285 42.5966 382.773 35.283C374.261 27.9694 361.69 24.3127 345.062 24.3127H288.348V108.518Z" fill="#3098EE"/>
<path d="M498.339 215.256V34.097H433.608V4.74393H595.139V34.097H530.408V215.256H498.339Z" fill="white"/>
<path d="M610.577 215.256V4.74393H747.76V34.097H642.646V95.4717H744.196V123.935H642.646V185.903H750.135V215.256H610.577Z" fill="white"/>
<path d="M764.202 215.256L834.278 109.704L764.796 4.74393H802.506L854.469 84.7978L905.542 4.74393H942.955L873.473 109.111L943.846 215.256H906.135L853.875 134.016L801.616 215.256H764.202Z" fill="white"/>
<path d="M964.645 215.256V4.74393H1005.32L1102.72 176.415V4.74393H1134.79V215.256H1092.62L996.714 47.4393V215.256H964.645Z" fill="white"/>
<path d="M1261.42 220C1241.03 220 1223.51 215.651 1208.86 206.954C1194.21 198.059 1182.93 185.409 1175.01 169.003C1167.09 152.597 1163.13 133.028 1163.13 110.296C1163.13 87.5651 1167.09 67.9964 1175.01 51.5903C1182.93 34.9865 1194.21 22.2372 1208.86 13.3423C1223.51 4.44743 1241.03 0 1261.42 0C1282.01 0 1299.62 4.44743 1314.27 13.3423C1329.12 22.2372 1340.4 34.9865 1348.12 51.5903C1356.04 67.9964 1360 87.5651 1360 110.296C1360 133.028 1356.04 152.597 1348.12 169.003C1340.4 185.409 1329.12 198.059 1314.27 206.954C1299.62 215.651 1282.01 220 1261.42 220ZM1261.42 190.647C1275.08 190.647 1286.76 187.484 1296.46 181.159C1306.35 174.834 1313.88 165.741 1319.02 153.881C1324.17 141.824 1326.74 127.296 1326.74 110.296C1326.74 93.2974 1324.17 78.7691 1319.02 66.7116C1313.88 54.6541 1306.35 45.4627 1296.46 39.1375C1286.76 32.6145 1275.08 29.3531 1261.42 29.3531C1247.96 29.3531 1236.38 32.6145 1226.68 39.1375C1216.98 45.4627 1209.46 54.6541 1204.11 66.7116C1198.96 78.7691 1196.39 93.2974 1196.39 110.296C1196.39 127.296 1198.96 141.824 1204.11 153.881C1209.46 165.741 1216.98 174.834 1226.68 181.159C1236.38 187.484 1247.96 190.647 1261.42 190.647Z" fill="white"/>
</svg>
