<svg width="85" height="45" viewBox="0 0 85 45" fill="none" xmlns="http://www.w3.org/2000/svg">
<path fill-rule="evenodd" clip-rule="evenodd" d="M59.9227 24.6816C59.058 24.6816 58.3264 25.3469 58.3264 26.2491C58.3264 27.1598 59.058 27.8251 59.9227 27.8251C60.7793 27.8251 61.5114 27.1594 61.5114 26.2491C61.5109 25.3469 60.7793 24.6816 59.9227 24.6816ZM59.9227 27.5633C59.2033 27.5633 58.6419 27.0059 58.6419 26.2491C58.6419 25.5053 59.2033 24.9434 59.9227 24.9434C60.6331 24.9434 61.1945 25.5048 61.1945 26.2491C61.1945 27.0055 60.6331 27.5633 59.9227 27.5633Z" fill="#242424"/>
<path fill-rule="evenodd" clip-rule="evenodd" d="M60.1761 26.3614C60.4424 26.3284 60.646 26.1867 60.646 25.8627C60.646 25.5052 60.4343 25.3468 60.006 25.3468H59.3159V27.1597H59.5899V26.3744H59.9062L60.3842 27.1597H60.692L60.1761 26.3614ZM59.5899 26.1389V25.5774H59.9636C60.1549 25.5774 60.3594 25.6194 60.3594 25.8437C60.3594 26.1222 60.1513 26.1389 59.9184 26.1389H59.5899ZM50.5125 18.9024L45.928 8.1732C45.4988 7.07785 45.154 6.89913 43.7729 6.89913V6.50648H47.1669C48.4531 6.50648 49.465 6.70867 50.2029 8.43542L54.6922 18.605C55.0261 19.3673 55.9306 19.9508 56.7407 19.9508C57.2642 19.9034 58.3122 19.9391 58.3122 18.8198L58.3113 5.05143C58.3112 3.95995 57.8775 2.9132 57.1057 2.14141C56.3339 1.36961 55.2872 0.935971 54.1957 0.935851L40.212 0.933594H33.4481L33.5632 0.935851C32.4718 0.935971 31.4251 1.36963 30.6533 2.14143C29.8816 2.91324 29.4481 3.95999 29.4481 5.05143V6.50693H34.9244C36.2106 6.50693 36.782 6.41171 37.5917 8.41195L42.0214 18.605C42.3549 19.3673 42.5214 20.0817 43.9742 20.0817V20.4626H40.5451C39.4019 20.4626 38.5922 20.3674 37.9252 18.8911L33.4481 8.65025C32.8289 7.50706 32.3049 7.04265 30.9713 7.03092C30.4473 7.0783 29.4472 7.42401 29.4472 8.23368L29.4481 22.1307C29.4481 23.2221 29.8816 24.2688 30.6534 25.0405C31.4251 25.8123 32.4718 26.2458 33.5632 26.2458H54.1953C56.4676 26.2458 58.3108 24.4035 58.3108 22.1307L58.3117 20.4635H53.215C52.0718 20.4622 51.1791 20.3791 50.5125 18.9024ZM50.285 20.4617H46.8798C45.7366 20.4617 44.8313 20.2713 44.1647 18.7945L39.5919 8.17275C39.1632 7.0774 38.687 6.88649 37.306 6.88649V6.50558H41.2595C42.5458 6.50558 43.1172 6.41035 43.9273 8.41105L48.3091 18.6041C48.6422 19.3659 48.7614 20.0808 50.2855 20.0808L50.285 20.4617ZM36.1375 44.5761C34.9542 44.5761 34.2849 43.1026 34.0619 42.4558L29.7541 30.7374H24.799C24.4195 30.7374 24.3969 31.0943 24.799 31.0943C26.0266 31.0722 26.0713 32.1883 25.8705 32.8134L22.7902 42.7014C22.3213 44.1966 21.2724 44.5315 20.7814 44.5761C19.5312 44.5761 18.9066 43.326 18.9066 42.5227V33.304C18.9066 31.1611 19.978 31.2731 20.5584 31.0943C20.8708 31.0943 20.804 30.7374 20.5584 30.7374H15.3349L11.0943 40.1117L6.49579 30.7374H0.826768C0.491889 30.7374 0.469323 31.0943 0.826768 31.0943C2.38923 31.0943 2.74623 32.1658 2.74623 33.0589V41.7188C2.74623 44.1298 1.3178 44.5761 0.826768 44.5761C0.514455 44.5761 0.491889 44.9331 0.826768 44.9331H5.33544C5.69244 44.9331 5.69244 44.5761 5.38013 44.5761C3.41598 44.5761 3.46067 41.7188 3.46067 41.7188V33.3713C3.48278 33.0589 3.81766 33.0589 3.9517 33.2819L9.53181 44.5315C9.71053 44.8438 9.79944 45.0451 9.93348 44.6881L15.3128 32.7687C15.4463 32.4785 15.6919 32.6347 15.6919 32.9253V42.3669C15.6919 44.3315 14.4417 44.5319 13.8618 44.5766C13.4601 44.5766 13.4375 44.9336 13.9064 44.9336H25.4011C25.7134 44.9336 25.7134 44.5766 25.4011 44.5766C24.1735 44.5766 23.4148 43.4605 23.9727 41.8087L24.5977 39.7552H29.4756L30.3787 42.2324C30.9591 43.8617 29.6643 44.554 28.9724 44.5761C28.6149 44.5761 28.526 44.9331 28.9724 44.9331H36.1371C36.4277 44.9331 36.4503 44.5761 36.1375 44.5761ZM24.8198 39.21L26.7393 32.9154C26.7839 32.7705 26.9401 32.6925 27.0294 32.9154L29.3235 39.21H24.8198ZM54.9137 44.5761C53.9317 44.5761 53.1509 43.3707 53.1509 42.6116V31.7641C53.1509 31.4735 53.396 31.3845 53.5747 31.3845H55.0478C56.7885 31.362 58.0617 33.6163 58.3068 34.152C58.5527 34.5316 58.7757 34.264 58.7306 34.1073L57.3694 30.7369H45.3828C45.3828 30.7369 42.6821 36.9195 42.5706 37.1429C42.4786 37.3266 42.3698 37.2991 42.2357 37.0761L39.758 32.8572C38.9547 31.4509 40.0929 31.0939 40.4724 31.0939C40.8741 31.0939 40.8294 30.6918 40.495 30.7369H33.8881C33.5086 30.7369 33.5086 31.1165 33.9103 31.0939C35.294 31.0939 35.9638 32.1879 36.3433 32.813L39.2895 37.9016C39.6244 38.4594 39.758 39.1739 39.758 39.5313V42.6784C39.758 43.4149 38.8432 44.5757 37.9058 44.5757C37.5488 44.5757 37.5488 44.9327 37.8837 44.9327H44.7803C45.1152 44.9327 45.1373 44.5757 44.8033 44.5757C43.5306 44.5757 42.9727 43.2588 42.9727 42.6784V39.3752C42.9506 38.5718 43.3744 37.3889 43.3744 37.3889L44.8701 33.9512C46.0972 31.0497 48.8868 31.4067 49.557 31.3845C49.9371 31.3845 49.9371 31.5849 49.9371 31.8304V42.5669C49.9371 43.9953 48.7984 44.5757 48.352 44.5983C47.9282 44.5983 47.9499 44.9327 48.3741 44.9327H54.8916C55.3375 44.911 55.4048 44.5761 54.9137 44.5761ZM79.7796 37.7012C79.2444 37.7012 79.2444 38.2369 79.7354 38.2369C80.4945 38.2369 81.7884 38.0582 81.7884 39.7547V43.3707C81.8336 43.9511 81.6995 44.2192 81.1634 44.2192C81.1634 44.2192 78.3517 44.4872 77.4585 43.683C75.6189 42.0276 75.1816 33.8618 77.3244 32.0764C78.1283 31.362 78.9763 30.9603 80.9851 31.0943C82.9939 31.2279 83.8862 32.6564 83.9309 34.7545C83.9309 35.3124 84.467 35.2009 84.467 34.7545V30.6029H78.0836C76.6998 30.6029 72.012 30.6029 72.012 37.6114C72.012 44.6204 75.9407 44.9327 78.6197 44.9327C79.8699 44.9327 83.8424 44.888 85.0036 44.5757V37.7012H79.7796ZM72.1257 44.5761C70.9428 44.5761 70.273 43.1026 70.0496 42.4558L65.7418 30.7374H60.7863C60.4072 30.7374 60.3851 31.0943 60.7863 31.0943C62.0144 31.0722 62.059 32.1883 61.8582 32.8134L58.7775 42.7014C58.3095 44.1966 57.2606 44.5315 56.7687 44.5761C56.4785 44.5761 56.4785 44.9331 56.7687 44.9331H61.3893C61.702 44.9331 61.702 44.5761 61.3893 44.5761C60.1612 44.5761 59.4026 43.46 59.9613 41.8082L60.5864 39.7547H65.4638L66.3673 42.232C66.9473 43.8613 65.6533 44.5536 64.9615 44.5757C64.6036 44.5757 64.5147 44.9327 64.9615 44.9327H72.1262C72.4155 44.9331 72.4376 44.5761 72.1257 44.5761ZM60.757 39.21L62.6769 32.9154C62.7211 32.7705 62.8768 32.6925 62.9671 32.9154L65.2616 39.21H60.757Z" fill="#242424"/>
</svg>
