<svg width="97" height="33" viewBox="0 0 97 33" fill="none" xmlns="http://www.w3.org/2000/svg">
<g clip-path="url(#clip0_277_544)">
<path d="M66.0669 28.1147C65.8833 28.1502 65.5597 28.2109 65.2717 28.2109C64.2847 28.2109 63.7257 27.7959 63.7257 26.6649C63.7257 25.4902 64.4684 25.0751 65.4028 25.0751C65.6908 25.0751 65.8833 25.1278 66.0314 25.1714V25.7263C65.9222 25.6956 65.6171 25.6431 65.3898 25.6431C64.8479 25.6431 64.4199 25.7263 64.4199 26.6431C64.4199 27.5475 64.8656 27.6478 65.355 27.6478C65.6171 27.6478 65.8308 27.5952 66.0669 27.5475V28.1147Z" fill="#242424"/>
<path d="M68.8451 26.639C68.8451 25.8267 68.5789 25.5776 68.1461 25.5776C67.7052 25.5776 67.439 25.8703 67.4254 26.639C67.4124 27.4076 67.6922 27.7045 68.1332 27.7045C68.5701 27.7045 68.8451 27.4512 68.8451 26.639ZM66.7312 26.6431C66.7312 25.4812 67.2943 25.0751 68.142 25.0751C68.9892 25.0751 69.5393 25.5079 69.5393 26.6431C69.5393 27.7741 68.9851 28.2109 68.1332 28.2109C67.2861 28.2109 66.7312 27.7877 66.7312 26.6431Z" fill="#242424"/>
<path d="M71.2478 26.5866C71.5714 26.5866 71.8594 26.4904 71.8594 26.102C71.8594 25.7177 71.6328 25.6522 71.2568 25.6522H71.043V26.5866H71.2478ZM70.3837 25.1191H71.2308C72.1652 25.1191 72.5495 25.3683 72.5495 26.0753C72.5495 26.6521 72.2527 26.805 71.9031 26.9102V26.962L71.9953 26.9798C72.314 27.0979 72.5018 27.7047 72.6984 28.0849V28.1675H71.9686C71.8246 27.7614 71.6717 27.1456 71.366 27.0583H71.043V28.1675H70.3837V25.1191Z" fill="#242424"/>
<path d="M74.1357 26.6521H74.376C74.7603 26.6521 74.9521 26.5299 74.9521 26.1498C74.9521 25.7655 74.7603 25.6563 74.4068 25.6563H74.1357V26.6521ZM73.4764 25.1191H74.3064C75.206 25.1191 75.6422 25.3246 75.6422 26.1061C75.6422 26.8884 75.1228 27.1149 74.4675 27.1149H74.1357V28.1675H73.4764V25.1191Z" fill="#242424"/>
<path d="M78.3247 26.639C78.3247 25.8267 78.0586 25.5776 77.6262 25.5776C77.1848 25.5776 76.9186 25.8703 76.9049 26.639C76.8919 27.4076 77.1718 27.7045 77.6133 27.7045C78.0502 27.7045 78.3247 27.4512 78.3247 26.639ZM76.211 26.6431C76.211 25.4812 76.7745 25.0751 77.6217 25.0751C78.4688 25.0751 79.0193 25.5079 79.0193 26.6431C79.0193 27.7741 78.465 28.2109 77.6133 28.2109C76.7661 28.2109 76.211 27.7877 76.211 26.6431Z" fill="#242424"/>
<path d="M80.7271 26.5866C81.0512 26.5866 81.3386 26.4904 81.3386 26.102C81.3386 25.7177 81.1122 25.6522 80.7363 25.6522H80.5228V26.5866H80.7271ZM79.8632 25.1191H80.7103C81.6452 25.1191 82.0295 25.3683 82.0295 26.0753C82.0295 26.6521 81.7321 26.805 81.3829 26.9102V26.962L81.4751 26.9798C81.7939 27.0979 81.9814 27.7047 82.1782 28.0849V28.1675H81.4484C81.3043 27.7614 81.1511 27.1456 80.8453 27.0583H80.5228V28.1675H79.8632V25.1191Z" fill="#242424"/>
<path d="M84.4674 27.0453L84.1617 25.9927L84.1266 25.8222H84.0831L84.0481 25.9927L83.7293 27.0453H84.4674ZM82.6984 28.0979L83.7865 25.0973H84.4324L85.5723 28.0979V28.1675H84.8426L84.5894 27.4863H83.6333L83.4098 28.1675H82.6984V28.0979Z" fill="#242424"/>
<path d="M86.6952 25.6433L85.839 25.6652V25.1191H88.2157V25.6652L87.3548 25.6433V28.1675H86.6952V25.6433Z" fill="#242424"/>
<path d="M88.915 28.1675V25.1191H89.5745V28.1675H88.915Z" fill="#242424"/>
<path d="M92.4697 26.639C92.4697 25.8267 92.2036 25.5776 91.7712 25.5776C91.3305 25.5776 91.0636 25.8703 91.0507 26.639C91.0377 27.4076 91.3168 27.7045 91.7583 27.7045C92.1944 27.7045 92.4697 27.4512 92.4697 26.639ZM90.3568 26.6431C90.3568 25.4812 90.9195 25.0751 91.7667 25.0751C92.6138 25.0751 93.1643 25.5079 93.1643 26.6431C93.1643 27.7741 92.61 28.2109 91.7583 28.2109C90.9111 28.2109 90.3568 27.7877 90.3568 26.6431Z" fill="#242424"/>
<path d="M94.0086 25.1191H94.5843L95.7112 26.7218L95.8683 26.9839H95.908V25.1191H96.5675V28.1675H96.004L94.8466 26.5034L94.7154 26.2808H94.6681V28.1675H94.0086V25.1191Z" fill="#242424"/>
<path d="M23.1481 4.39828L18.2083 22.4512H15.3378L11.846 9.33816L8.30276 22.4512H5.43181L0.491974 4.39828H3.33694L6.85429 17.5114L10.3976 4.39828H13.2166L16.7858 17.5114L20.3035 4.39828H23.1481Z" fill="#242424"/>
<path d="M24.4652 4.45021L27.3102 4.21742V8.63986L27.2583 10.2951H27.3621C28.6809 9.80367 29.7416 9.57088 31.0347 9.57088C33.3367 9.57088 34.8883 10.6058 34.8883 14.5625V22.4512H32.0433V14.7952C32.0433 12.4159 30.8794 12.1057 29.5607 12.1057C28.7327 12.1057 28.0344 12.2868 27.3102 12.4937V22.4512H24.4652V4.45021Z" fill="#242424"/>
<path d="M37.37 9.75213H40.215V22.4512H37.37V9.75213ZM38.7925 4.63107C40.2669 4.63107 40.4996 5.48462 40.4996 6.44164C40.4996 7.39858 40.1891 8.27813 38.7925 8.27813C37.396 8.27813 37.1113 7.39858 37.1113 6.44164C37.1113 5.48462 37.37 4.63107 38.7925 4.63107Z" fill="#242424"/>
<path d="M42.6198 9.75213H44.5596L44.9477 10.7866H45.1289C45.8787 10.1402 47.0681 9.57088 48.6203 9.57088C48.8011 9.57088 49.008 9.57088 49.2149 9.59688V12.3899C48.698 12.3128 48.1548 12.2351 47.6115 12.2351C46.8353 12.2351 46.2149 12.4159 45.4647 12.7523V22.4512H42.6198V9.75213Z" fill="#242424"/>
<path d="M50.4298 22.4512V4.45021L53.2749 4.21742V22.4512H50.4298Z" fill="#242424"/>
<path d="M76.1884 16.1658C76.1884 13.7611 75.8001 11.7955 73.5243 11.7955C71.2227 11.7955 70.6534 13.6834 70.6534 16.1658C70.6534 18.4677 71.119 20.4595 73.3953 20.4595C75.671 20.4595 76.1884 18.5715 76.1884 16.1658ZM73.4984 9.57095C77.5331 9.57095 79.0856 11.9504 79.0856 16.1658C79.0856 20.1229 77.6368 22.71 73.4465 22.71C69.2569 22.71 67.7825 20.1229 67.7825 16.1658C67.7825 11.9504 69.4636 9.57095 73.4984 9.57095Z" fill="#242424"/>
<path d="M88.9448 16.1658C88.9448 13.7611 88.5567 11.7955 86.2814 11.7955C83.9794 11.7955 83.4098 13.6834 83.4098 16.1658C83.4098 18.4677 83.8757 20.4595 86.1518 20.4595C88.4279 20.4595 88.9448 18.5715 88.9448 16.1658ZM86.2555 9.57095C90.2899 9.57095 91.8424 11.9504 91.8424 16.1658C91.8424 20.1229 90.3936 22.71 86.2036 22.71C82.0137 22.71 80.539 20.1229 80.539 16.1658C80.539 11.9504 82.2203 9.57095 86.2555 9.57095Z" fill="#242424"/>
<path d="M93.6837 22.4512V4.45021L96.5286 4.21742V22.4512H93.6837Z" fill="#242424"/>
<path d="M58.4475 20.0976C59.2489 20.1229 59.6891 20.1489 60.5164 20.1489C62.2746 20.1489 63.4392 19.2178 63.4392 15.5189C63.4392 12.9845 62.4043 12.3128 60.5423 12.3128C59.818 12.3128 59.1457 12.4412 58.4475 12.6746V20.0976ZM55.6024 9.75175H57.7492L57.9819 10.6828C58.8359 10.2173 60.4125 9.57088 61.8357 9.57088C64.4214 9.57088 66.3094 11.4589 66.3094 15.9845C66.3094 20.4335 64.3176 22.632 61.0078 22.632C59.7894 22.632 58.4475 22.3734 58.4475 22.3734V28.1924L55.6024 28.5029V9.75175Z" fill="#242424"/>
<path d="M69.6867 1.94936C67.5592 -0.515739 60.8084 1.65107 53.2748 6.86515V8.17909C59.9095 3.46301 65.7581 1.28697 67.4332 3.22785C69.5246 5.65116 64.322 13.5776 55.8113 20.9224C47.2998 28.2676 38.7015 32.2501 36.6104 29.8267C35.5243 28.5679 36.41 25.825 38.7015 22.4513H37.3695C34.532 26.6829 33.4684 30.238 34.9252 31.9262C37.5811 35.004 47.5155 30.7933 57.1123 22.5121C66.708 14.2309 72.3423 5.0269 69.6867 1.94936Z" fill="#EDAC09"/>
</g>
<defs>
<clipPath id="clip0_277_544">
<rect width="96.0755" height="32" fill="white" transform="translate(0.491791 0.933594)"/>
</clipPath>
</defs>
</svg>
