<svg width="133" height="30" viewBox="0 0 133 30" fill="none" xmlns="http://www.w3.org/2000/svg">
<path fill-rule="evenodd" clip-rule="evenodd" d="M56.9043 14.5085C57.7019 14.2014 58.3863 13.6592 58.8657 12.9545C59.3451 12.2498 59.5968 11.4163 59.587 10.5654C59.587 7.01656 57.0567 5.25732 53.5814 5.25732H44.4664V24.5543H54.3741C57.4226 24.5543 60.4101 22.4311 60.4101 19.1856C60.4101 15.3274 56.9043 14.5449 56.9043 14.5085ZM49.2221 9.2611H52.7584C52.9848 9.24713 53.2118 9.27774 53.4263 9.35116C53.6408 9.42458 53.8387 9.53937 54.0086 9.68897C54.1785 9.83857 54.3171 10.02 54.4164 10.223C54.5157 10.4259 54.5739 10.6464 54.5875 10.8717C54.5875 10.9405 54.5875 11.0102 54.5875 11.081C54.5778 11.5554 54.3802 12.0068 54.0376 12.3369C53.695 12.667 53.2352 12.849 52.7584 12.8433H49.1916L49.2221 9.2611ZM52.7888 20.5141H49.2526V16.7227H52.6974C54.435 16.7227 55.2581 17.481 55.2581 18.6032C55.2581 20.0046 54.2216 20.5141 52.7888 20.5141Z" fill="#242424"/>
<path fill-rule="evenodd" clip-rule="evenodd" d="M70.897 4.77197C65.2877 4.77197 61.9954 9.23072 61.9954 14.8724C61.9954 20.5141 65.2877 24.9728 70.897 24.9728C76.5062 24.9728 79.7986 20.5444 79.7986 14.8724C79.7986 9.20039 76.5367 4.77197 70.897 4.77197ZM70.897 20.3624C68.1533 20.3624 66.7815 17.9056 66.7815 14.8724C66.7815 11.8392 68.1533 9.41271 70.897 9.41271C73.6406 9.41271 75.0429 11.8696 75.0429 14.8724C75.0429 17.9359 73.6406 20.3624 70.897 20.3624Z" fill="#242424"/>
<path fill-rule="evenodd" clip-rule="evenodd" d="M90.1331 12.8402L89.4624 12.6886C87.8162 12.3549 86.5053 11.9303 86.5053 10.7474C86.5053 9.47343 87.7552 8.9578 88.8527 8.9578C89.6014 8.96889 90.3398 9.13354 91.0217 9.44146C91.7036 9.74938 92.3144 10.1939 92.8157 10.7474L95.8337 7.77486C94.4619 6.22795 92.2365 4.7417 88.7612 4.7417C84.6762 4.7417 81.5668 7.01657 81.5668 10.808C81.5668 14.2658 84.0665 15.9644 87.115 16.6014L87.7857 16.753C90.316 17.2687 91.261 17.663 91.261 18.8762C91.261 20.0288 90.2245 20.7871 88.6393 20.7871C86.7492 20.7871 85.0421 19.9682 83.7312 18.2999L80.6522 21.3331C82.3594 23.3653 84.5238 24.9426 88.7003 24.9426C92.328 24.9426 96.1996 22.88 96.1996 18.6639C96.2605 14.2658 92.9072 13.4165 90.1331 12.8402Z" fill="#242424"/>
<path fill-rule="evenodd" clip-rule="evenodd" d="M107.052 20.3624C104.918 20.3624 102.693 18.6031 102.693 14.751C102.693 11.3235 104.766 9.41265 106.93 9.41265C108.637 9.41265 109.643 10.2013 110.436 11.5662L114.338 8.98801C112.387 6.04584 110.07 4.80225 106.869 4.80225C101.016 4.80225 97.8456 9.32166 97.8456 14.7814C97.8456 20.514 101.351 25.0031 106.808 25.0031C110.649 25.0031 112.478 23.6685 114.46 20.8173L110.527 18.1846C109.735 19.4524 108.881 20.3624 107.052 20.3624Z" fill="#242424"/>
<path fill-rule="evenodd" clip-rule="evenodd" d="M127.355 5.25732V12.3549H121.472V5.25732H116.381V24.5482H121.472V16.935H127.355V24.5482H132.446V5.25732H127.355Z" fill="#242424"/>
<path d="M15.1398 0.34375C12.2337 0.34375 9.39277 1.20119 6.9764 2.80764C4.56002 4.41409 2.67668 6.6974 1.56455 9.36882C0.452411 12.0403 0.161426 14.9798 0.728388 17.8158C1.29535 20.6518 2.6948 23.2568 4.74976 25.3014C6.80472 27.346 9.42289 28.7384 12.2732 29.3025C15.1235 29.8666 18.0779 29.5771 20.7629 28.4706C23.4478 27.364 25.7427 25.4902 27.3572 23.086C28.9718 20.6817 29.8336 17.8551 29.8336 14.9636C29.8336 11.0862 28.2855 7.36756 25.5299 4.6258C22.7743 1.88405 19.0368 0.34375 15.1398 0.34375ZM15.1398 28.2185C12.505 28.2185 9.92933 27.4411 7.73854 25.9847C5.54776 24.5282 3.84025 22.4581 2.83195 20.036C1.82364 17.614 1.55982 14.9489 2.07385 12.3777C2.58788 9.80649 3.85667 7.44469 5.71978 5.59095C7.58289 3.73722 9.95663 2.47481 12.5408 1.96336C15.125 1.45192 17.8036 1.71441 20.2379 2.71764C22.6722 3.72088 24.7528 5.4198 26.2166 7.59956C27.6804 9.77932 28.4618 12.342 28.4618 14.9636C28.4609 18.4788 27.0571 21.8498 24.559 24.3354C22.0608 26.821 18.6728 28.2177 15.1398 28.2185Z" fill="#242424"/>
<path d="M21.2063 5.83398H20.2003V10.8387H10.1097V5.83398H9.07323C7.55511 6.83047 6.30919 8.18616 5.44714 9.77954C4.58509 11.3729 4.13385 13.1542 4.13385 14.9638C4.13385 16.7734 4.58509 18.5547 5.44714 20.1481C6.30919 21.7415 7.55511 23.0971 9.07323 24.0936H10.1097V19.095H20.2003V24.0997H21.2063C22.725 23.1037 23.9716 21.7482 24.8341 20.1547C25.6966 18.5613 26.1481 16.7797 26.1481 14.9699C26.1481 13.16 25.6966 11.3785 24.8341 9.78502C23.9716 8.19157 22.725 6.83605 21.2063 5.84005V5.83398ZM8.70741 22.1281C7.76196 21.2923 6.99124 20.2794 6.43927 19.1471C5.8873 18.0149 5.56488 16.7856 5.49043 15.5294C5.41598 14.2732 5.59095 13.0147 6.00536 11.8258C6.41976 10.6369 7.06549 9.54083 7.90566 8.60023C8.15748 8.32035 8.42517 8.05503 8.70741 7.80554V22.1281ZM20.2003 17.6997H10.1097V12.2036H20.2003V17.6997ZM21.5721 22.0978V19.0646V10.8387V7.80554C22.5152 8.64817 23.2822 9.66744 23.8293 10.8051C24.3764 11.9428 24.6928 13.1766 24.7605 14.436C24.8281 15.6954 24.6457 16.9557 24.2236 18.1449C23.8016 19.3341 23.1481 20.429 22.3007 21.3668C22.0702 21.6204 21.827 21.8624 21.5721 22.0917V22.0978Z" fill="#242424"/>
</svg>
