<svg width="121" height="44" viewBox="0 0 121 44" fill="none" xmlns="http://www.w3.org/2000/svg">
<path d="M18.8228 20.5052C18.8276 20.5022 18.8332 20.5007 18.839 20.5007C18.8447 20.5008 18.8502 20.5024 18.8551 20.5055C18.8599 20.5086 18.8637 20.5129 18.8662 20.5181C18.8686 20.5232 18.8696 20.529 18.8689 20.5347L18.7491 21.3732C18.7452 21.4017 18.7344 21.429 18.7177 21.4528C18.7009 21.4765 18.6787 21.496 18.6529 21.5097C15.7043 23.0699 11.6767 24.8706 10.3079 28.1746C9.93973 29.0632 9.85725 30.1158 10.1283 31.0309C10.8008 33.2971 13.4519 33.7389 15.398 32.8425C19.3471 31.024 20.1493 26.4436 20.4124 22.5809C20.4137 22.5632 20.419 22.5461 20.4281 22.5309C20.4371 22.5157 20.4496 22.5029 20.4645 22.4935L25.961 18.9489C25.9944 18.928 26.0245 18.9319 26.0513 18.9607L26.668 19.6127C26.6987 19.6454 26.6945 19.6726 26.6552 19.6942C23.1862 21.6049 21.4257 25.2369 22.8514 29.1212C23.3829 30.5704 24.3239 31.6538 25.6743 32.3712C27.6508 33.4208 30.4629 33.3511 32.3138 32.0422C34.1479 30.7472 35.17 28.3602 34.6447 26.1922C34.2903 24.7312 33.1552 23.3703 31.651 23.0276C30.2993 22.7193 29.1312 22.9573 28.1467 23.7415C27.0646 24.6026 26.613 26.2011 27.1952 27.4775C27.4859 28.1128 28.0829 28.7589 28.8212 28.8266C29.7206 28.9091 30.1939 28.2463 29.6067 27.4471C29.158 26.8373 28.8055 26.3326 29.106 25.5746C29.4221 24.7773 30.3873 24.4877 31.1581 24.744C32.1027 25.0591 32.6319 26.1746 32.6957 27.1113C32.9372 30.6706 28.5944 32.4684 26.1358 30.1129C24.7199 28.7559 24.3458 26.7224 24.7435 24.8117C25.1627 22.7979 26.8575 20.4797 29.1708 20.6377C29.9229 20.6888 31.8071 20.9637 32.0428 19.866C32.1527 19.3535 31.6971 18.8959 31.2298 18.783C30.4924 18.6033 29.5851 18.7594 28.8222 18.8547C28.2586 18.9254 27.914 18.3009 27.8295 17.8384C27.823 17.8057 27.8289 17.7753 27.8472 17.7471C27.8871 17.6843 27.9274 17.6362 27.968 17.6028C29.7245 16.1633 32.5543 14.1466 31.9465 11.6104C31.5302 9.87049 29.4447 9.72812 28.1879 10.6295C26.0356 12.171 25.1686 14.7465 25.5368 17.321C25.5387 17.3335 25.5371 17.3462 25.5322 17.358C25.5274 17.3697 25.5195 17.38 25.5094 17.3877C23.9521 18.5215 22.3405 19.5724 20.6746 20.5405C20.6678 20.5444 20.6601 20.5464 20.6522 20.5462C20.6444 20.546 20.6368 20.5437 20.6303 20.5395C20.6238 20.5354 20.6186 20.5295 20.6153 20.5225C20.612 20.5156 20.6108 20.5079 20.6117 20.5003L20.817 18.782C20.8233 18.7254 20.8482 18.6725 20.8877 18.6318C21.5514 17.9464 22.441 16.8801 22.497 15.909C22.5372 15.1952 21.9255 15.0067 21.3648 15.2816C20.3732 15.7676 19.7703 16.9047 19.4846 17.9317C19.1861 19.0088 16.371 20.625 15.8202 18.942C15.8094 18.9096 15.8103 18.8743 15.8226 18.8423C15.835 18.8103 15.8581 18.7834 15.8879 18.7663C18.3318 17.3701 20.5587 15.4083 20.8955 12.4342C20.9966 11.5338 20.6962 10.5853 19.7664 10.2623C18.0147 9.65251 16.4083 11.0212 15.4697 12.3694C14.531 13.7165 13.9582 15.1477 13.7514 16.6631C13.7245 16.8575 13.6401 17.0444 13.4981 17.2238C13.4758 17.2519 13.4486 17.2578 13.4166 17.2414C11.9958 16.5335 12.3777 14.7151 12.5761 13.4671C12.5813 13.4311 12.5744 13.3977 12.5554 13.367C12.4546 13.2079 12.3044 13.1316 12.1048 13.1382C12.0701 13.1388 12.04 13.1513 12.0144 13.1755C11.0591 14.0739 10.9707 15.6901 11.3527 16.8448C11.7395 18.0112 12.5967 18.7908 13.7936 19.055C13.8263 19.0622 13.8473 19.0818 13.8564 19.1139C14.0666 19.8594 14.4943 20.4482 15.1397 20.8803C16.2866 21.6461 17.7741 21.1631 18.8228 20.5052Z" stroke="#242424" stroke-width="0.196375"/>
<path d="M44.2947 21.9615C44.2996 24.7749 43.7374 27.5617 42.6402 30.1629C41.5429 32.764 39.9321 35.1286 37.8997 37.1215C35.8673 39.1144 33.4531 40.6967 30.795 41.778C28.1369 42.8592 25.2869 43.4183 22.4077 43.4233C16.593 43.4335 11.0126 41.1861 6.89398 37.1756C2.77537 33.1651 0.455992 27.7199 0.446077 22.0381C0.441158 19.2247 1.00338 16.4378 2.10065 13.8367C3.19791 11.2355 4.80873 8.87098 6.84113 6.87805C8.87353 4.88513 11.2877 3.30287 13.9458 2.22159C16.6039 1.14032 19.4539 0.581217 22.3331 0.576206C28.1478 0.56607 33.7282 2.81346 37.8468 6.82397C41.9654 10.8345 44.2848 16.2796 44.2947 21.9615ZM43.8323 22.0383C43.8371 19.2843 43.2867 16.5564 42.2126 14.0102C41.1385 11.464 39.5617 9.14939 37.5722 7.19858C35.5826 5.24776 33.2194 3.69892 30.6174 2.64049C28.0153 1.58205 25.2254 1.03475 22.407 1.02983C19.5886 1.02491 16.7969 1.56246 14.1911 2.6118C11.5854 3.66113 9.21679 5.20171 7.22047 7.14555C5.22415 9.0894 3.63925 11.3985 2.55624 13.9409C1.47324 16.4833 0.91335 19.2093 0.908541 21.9632C0.903723 24.7172 1.45408 27.4451 2.5282 29.9913C3.60231 32.5375 5.17914 34.8521 7.16866 36.8029C9.15818 38.7538 11.5214 40.3026 14.1235 41.361C16.7255 42.4195 19.5154 42.9668 22.3338 42.9717C25.1522 42.9766 27.944 42.4391 30.5497 41.3897C33.1554 40.3404 35.524 38.7998 37.5203 36.856C39.5167 34.9121 41.1016 32.6031 42.1846 30.0606C43.2676 27.5182 43.8275 24.7922 43.8323 22.0383Z" fill="#242424"/>
<path d="M25.8443 38.5152C25.5409 37.2858 24.1761 37.0551 23.256 37.7896C22.5432 38.3584 22.0415 38.7374 21.7508 38.9266C20.3654 39.8309 18.3575 39.7278 16.8022 39.5265C13.2281 39.0621 9.75228 37.4017 7.23377 34.8125C4.07802 31.5694 2.58655 27.4435 2.39999 22.9475C2.34828 21.6907 2.42421 20.463 2.62779 19.2645C2.62941 19.257 2.63363 19.2503 2.6397 19.2457C2.64577 19.241 2.6533 19.2387 2.66094 19.239C2.66859 19.2394 2.67586 19.2424 2.68147 19.2476C2.68709 19.2528 2.69068 19.2598 2.69161 19.2674C2.85656 21.2714 2.61404 23.572 4.32447 25.0409C4.92734 25.5593 5.93671 25.6928 6.51995 25.0988C7.88279 23.7114 5.87092 22.2327 5.2543 21.1084C4.26556 19.3067 4.30974 16.7607 4.76533 14.8097C5.85521 10.1527 9.4155 6.28112 13.6543 4.24275C17.0879 2.59221 21.0586 1.78609 24.8319 2.49599C24.8417 2.49798 24.8503 2.50342 24.8564 2.51129C24.8624 2.51917 24.8654 2.52896 24.8648 2.53886C24.8642 2.54877 24.8601 2.55813 24.8531 2.56522C24.8462 2.57232 24.8369 2.57667 24.827 2.57748C22.9929 2.68549 20.4164 2.67371 19.2755 4.3429C18.8562 4.95657 18.7895 5.79608 19.2362 6.396C19.7301 7.05975 20.8809 7.01753 21.4553 6.54819C22.7288 5.50642 23.6193 4.80733 25.3366 4.63844C27.7216 4.40476 30.1537 5.01156 32.3639 5.8707C35.1426 6.9488 37.2998 8.77411 39.0868 11.0727C41.0555 13.602 42.0904 16.9728 42.4576 20.1482C42.6291 21.6288 42.5699 23.0621 42.2799 24.4478C42.2675 24.5074 42.2583 24.507 42.2524 24.4468C42.1424 23.3078 42.2023 22.217 41.9333 21.0908C41.6957 20.0942 40.9465 18.804 39.8615 18.588C38.1717 18.2522 37.3116 20.159 38.425 21.3323C39.2076 22.1571 39.8733 23.0064 40.054 24.114C40.3525 25.9403 40.0991 27.635 39.6308 29.4348C38.3779 34.244 35.395 37.8043 30.9697 39.9428C27.7246 41.5099 24.1535 42.3867 20.547 41.7711C20.4148 41.7482 20.4155 41.7298 20.549 41.7161C20.6786 41.7023 20.8521 41.6928 21.0694 41.6876C21.7934 41.6699 22.587 41.5544 23.4504 41.341C24.6896 41.0347 26.2125 40.0066 25.8443 38.5152ZM18.8229 20.5056C18.8277 20.5026 18.8333 20.501 18.839 20.5011C18.8448 20.5011 18.8503 20.5028 18.8552 20.5059C18.86 20.5089 18.8638 20.5133 18.8663 20.5185C18.8687 20.5236 18.8697 20.5294 18.869 20.535L18.7492 21.3736C18.7453 21.4021 18.7345 21.4294 18.7178 21.4531C18.701 21.4769 18.6788 21.4964 18.653 21.51C15.7044 23.0702 11.6768 24.871 10.308 28.175C9.93982 29.0636 9.85734 30.1162 10.1283 31.0313C10.8009 33.2975 13.452 33.7393 15.3981 32.8429C19.3472 31.0244 20.1494 26.444 20.4125 22.5813C20.4137 22.5636 20.4191 22.5464 20.4281 22.5313C20.4372 22.5161 20.4497 22.5033 20.4646 22.4939L25.9611 18.9493C25.9945 18.9284 26.0246 18.9323 26.0514 18.9611L26.6681 19.613C26.6988 19.6458 26.6946 19.6729 26.6553 19.6945C23.1863 21.6053 21.4258 25.2372 22.8515 29.1215C23.383 30.5708 24.324 31.6541 25.6744 32.3716C27.6509 33.4212 30.463 33.3515 32.3138 32.0426C34.148 30.7475 35.1701 28.3606 34.6448 26.1926C34.2904 24.7316 33.1553 23.3707 31.6511 23.028C30.2994 22.7197 29.1313 22.9576 28.1468 23.7418C27.0647 24.6029 26.6131 26.2014 27.1953 27.4779C27.486 28.1132 28.0829 28.7592 28.8213 28.827C29.7207 28.9095 30.194 28.2467 29.6068 27.4474C29.1581 26.8377 28.8056 26.333 29.1061 25.575C29.4222 24.7777 30.3874 24.4881 31.1582 24.7443C32.1027 25.0595 32.632 26.1749 32.6958 27.1116C32.9373 30.6709 28.5945 32.4688 26.1359 30.1132C24.72 28.7563 24.3459 26.7228 24.7436 24.8121C25.1628 22.7983 26.8576 20.48 29.1709 20.6381C29.923 20.6892 31.8072 20.9641 32.0429 19.8664C32.1528 19.3538 31.6972 18.8963 31.2299 18.7834C30.4925 18.6037 29.5852 18.7598 28.8223 18.855C28.2587 18.9257 27.9141 18.3013 27.8296 17.8388C27.8231 17.8061 27.829 17.7756 27.8473 17.7475C27.8872 17.6846 27.9275 17.6365 27.9681 17.6031C29.7246 16.1637 32.5544 14.1469 31.9466 11.6108C31.5303 9.87087 29.4448 9.7285 28.188 10.6299C26.0357 12.1714 25.1687 14.7469 25.5369 17.3213C25.5388 17.3338 25.5372 17.3466 25.5323 17.3583C25.5275 17.3701 25.5196 17.3804 25.5094 17.3881C23.9522 18.5219 22.3406 19.5728 20.6747 20.5409C20.6679 20.5448 20.6601 20.5468 20.6523 20.5466C20.6445 20.5464 20.6369 20.5441 20.6304 20.5399C20.6238 20.5357 20.6187 20.5298 20.6154 20.5229C20.6121 20.516 20.6109 20.5083 20.6118 20.5007L20.8171 18.7824C20.8234 18.7257 20.8483 18.6729 20.8877 18.6322C21.5515 17.9468 22.4411 16.8805 22.497 15.9094C22.5373 15.1956 21.9256 15.0071 21.3649 15.282C20.3732 15.768 19.7704 16.905 19.4846 17.9321C19.1862 19.0092 16.3711 20.6254 15.8203 18.9424C15.8095 18.9099 15.8104 18.8747 15.8227 18.8427C15.8351 18.8106 15.8581 18.7838 15.888 18.7667C18.3319 17.3704 20.5588 15.4087 20.8956 12.4345C20.9967 11.5342 20.6963 10.5857 19.7664 10.2626C18.0148 9.65289 16.4084 11.0216 15.4698 12.3697C14.5311 13.7169 13.9583 15.1481 13.7515 16.6635C13.7246 16.8579 13.6402 17.0448 13.4981 17.2241C13.4759 17.2523 13.4487 17.2582 13.4166 17.2418C11.9959 16.5339 12.3778 14.7154 12.5762 13.4675C12.5814 13.4315 12.5745 13.3981 12.5555 13.3673C12.4547 13.2083 12.3045 13.132 12.1049 13.1386C12.0702 13.1392 12.0401 13.1516 12.0145 13.1759C11.0592 14.0743 10.9708 15.6905 11.3527 16.8451C11.7396 18.0116 12.5968 18.7912 13.7937 19.0553C13.8264 19.0625 13.8474 19.0822 13.8565 19.1143C14.0666 19.8598 14.4944 20.4486 15.1398 20.8807C16.2867 21.6465 17.7742 21.1634 18.8229 20.5056Z" fill="#242424"/>
<path d="M94.8084 20.8549L90.6639 20.8372C90.6421 20.8369 90.6209 20.8442 90.6038 20.8577C90.5866 20.8713 90.5746 20.8904 90.5696 20.9118C89.665 24.7634 88.7479 28.6094 87.8184 32.4499C87.6286 33.234 87.4636 33.867 87.3236 34.3488C86.5106 37.1373 85.5071 41.055 81.5531 40.2165C81.2526 40.153 80.9328 39.9566 80.5938 39.6274C80.2197 39.2641 80.0037 38.402 80.4995 38.0318C80.8167 37.7952 81.3331 37.8737 81.61 38.1683C81.9438 38.5228 81.8712 39.0873 82.2207 39.4398C83.0337 40.2636 83.7898 39.3161 84.1541 38.5944C84.7422 37.4309 85.0456 36.0779 85.3834 34.6129C86.4399 30.0413 87.4898 25.4681 88.5332 20.8932C88.5404 20.8611 88.5273 20.8451 88.4939 20.8451L86.0658 20.8411C86.0186 20.8411 85.999 20.8179 86.0069 20.7714L86.0903 20.2373C86.0962 20.1987 86.1188 20.1793 86.1581 20.1793H88.6471C88.6805 20.1793 88.7008 20.163 88.708 20.1302C89.2686 17.6294 90.3772 13.9641 92.6277 12.448C94.0651 11.4789 96.7525 11.1618 97.8355 12.8506C98.1929 13.4073 98.0024 14.1683 97.2837 14.2223C96.0515 14.3166 96.7702 12.0494 94.8398 12.2625C93.0489 12.4608 92.1681 14.3951 91.7567 15.9514C91.3902 17.3358 91.0622 18.7301 90.7729 20.1342C90.7663 20.1643 90.7785 20.1793 90.8092 20.1793H97.1443C97.1888 20.1793 97.2045 20.2006 97.1914 20.2432C96.13 23.7907 95.1157 27.3353 94.1525 30.9103C94.0474 31.2971 94.0406 31.8578 94.5207 31.9707C95.7893 32.2712 97.3308 29.1282 97.7629 28.2464C97.7792 28.2137 97.8034 28.2059 97.8355 28.2229L98.1703 28.4055C98.1978 28.4206 98.2057 28.4428 98.1939 28.4723C97.6824 29.7222 96.9764 31.0458 95.9847 31.9795C95.2316 32.6885 93.91 33.0851 93.0302 32.3968C92.2172 31.7606 92.3134 30.4527 92.5442 29.516C93.257 26.6332 94.0258 23.7655 94.8506 20.9128C94.8618 20.8748 94.8477 20.8555 94.8084 20.8549ZM101.161 29.0918C100.989 29.7094 100.315 32.1995 101.657 32.0335C102.892 31.8814 104.142 29.247 104.573 28.1757C104.586 28.143 104.607 28.1352 104.637 28.1522L105.023 28.3692C105.049 28.3836 105.057 28.4052 105.047 28.434C104.483 29.9736 103.454 32.115 101.744 32.6315C100.668 32.9565 99.1306 32.6786 98.95 31.3217C98.838 30.4845 98.9205 29.5805 99.1974 28.6097C100.58 23.7704 101.966 18.9317 103.357 14.0937C103.796 12.5659 102.213 12.6287 101.289 12.724C101.243 12.7285 101.226 12.7086 101.238 12.6641L101.359 12.2094C101.366 12.1839 101.383 12.1698 101.41 12.1672L105.983 11.6783C105.985 11.678 105.988 11.6783 105.99 11.6791C105.992 11.68 105.994 11.6814 105.995 11.6831C105.997 11.6849 105.998 11.687 105.998 11.6892C105.999 11.6914 105.999 11.6937 105.998 11.6959C104.382 17.5054 102.77 23.304 101.161 29.0918ZM30.0811 11.9188C30.4621 13.2198 28.6211 15.1688 27.5439 15.6922C27.5294 15.6992 27.5133 15.7022 27.4972 15.7009C27.4811 15.6997 27.4656 15.6942 27.4524 15.685C27.4391 15.6758 27.4285 15.6633 27.4216 15.6487C27.4148 15.6341 27.4119 15.6179 27.4134 15.6018C27.5083 14.5211 27.8886 13.5422 28.5543 12.665C28.839 12.29 29.4684 11.6822 30.0134 11.8511C30.0481 11.8615 30.0706 11.8841 30.0811 11.9188ZM17.6947 12.4343C18.0826 12.0798 18.6766 11.5722 19.0919 12.0563C19.1122 12.0805 19.123 12.108 19.1244 12.1388C19.1793 13.9052 17.2421 15.9023 15.8635 16.7811C15.8521 16.7885 15.8388 16.7926 15.8251 16.7928C15.8114 16.793 15.798 16.7894 15.7863 16.7823C15.7746 16.7752 15.7652 16.765 15.759 16.7528C15.7529 16.7406 15.7503 16.7269 15.7516 16.7133C15.893 15.1708 16.5175 13.5075 17.6947 12.4343ZM56.2933 23.2369C55.7402 25.2877 55.1884 27.3506 54.6379 29.4257C54.1292 31.3452 54.7969 31.7851 56.6222 31.8057C56.6648 31.8064 56.6792 31.8267 56.6654 31.8666L56.471 32.4479C56.4592 32.4839 56.4347 32.5003 56.3974 32.497C53.8867 32.3075 51.597 32.3428 48.9086 32.4842C48.87 32.4862 48.8553 32.4685 48.8644 32.4312L49.0117 31.8617C49.0209 31.8257 49.0441 31.8084 49.0814 31.8097C50.6721 31.8676 51.377 31.194 51.7855 29.7301C52.9448 25.5767 54.1011 21.4224 55.2545 17.2671C55.4705 16.4894 55.7572 15.6156 55.7327 14.8046C55.7022 13.7785 54.4287 13.7579 53.5686 13.7353C53.528 13.7346 53.5139 13.715 53.5264 13.6764L53.7031 13.1138C53.7155 13.0745 53.7421 13.0558 53.7826 13.0578C55.7274 13.1409 57.6715 13.1491 59.615 13.0823C62.7246 12.9763 67.3453 13.0401 67.5063 17.3211C67.581 19.3133 66.6344 20.955 64.9682 21.9978C62.5184 23.5325 59.1555 23.4588 56.3993 23.1642C56.3761 23.1618 56.3526 23.1678 56.3332 23.1811C56.3138 23.1944 56.2997 23.2141 56.2933 23.2369ZM56.5505 22.5054C57.6031 22.6026 58.6478 22.6507 59.7554 22.5329C62.2572 22.2668 64.2573 20.7125 64.6442 18.1164C65.0654 15.2984 63.5543 13.5743 60.6813 13.7274C59.7632 13.7765 59.0916 13.8403 58.7293 14.7083C58.5611 15.1102 58.4305 15.4794 58.3376 15.8159C57.7281 18.0218 57.1191 20.2324 56.5103 22.4475C56.5085 22.454 56.5082 22.4608 56.5094 22.4674C56.5105 22.474 56.5131 22.4803 56.517 22.4858C56.5208 22.4913 56.5258 22.4959 56.5316 22.4993C56.5374 22.5027 56.5439 22.5048 56.5505 22.5054Z" fill="#242424"/>
<path d="M96.7112 18.2549C97.3852 18.2549 97.9317 17.7085 97.9317 17.0344C97.9317 16.3604 97.3852 15.814 96.7112 15.814C96.0372 15.814 95.4907 16.3604 95.4907 17.0344C95.4907 17.7085 96.0372 18.2549 96.7112 18.2549Z" fill="#242424"/>
<path d="M120.446 19.4293C120.446 19.8184 120.292 20.1915 120.017 20.4666C119.741 20.7417 119.368 20.8962 118.979 20.8962C118.59 20.8962 118.217 20.7417 117.942 20.4666C117.667 20.1915 117.512 19.8184 117.512 19.4293C117.512 19.0403 117.667 18.6672 117.942 18.3921C118.217 18.117 118.59 17.9624 118.979 17.9624C119.368 17.9624 119.741 18.117 120.017 18.3921C120.292 18.6672 120.446 19.0403 120.446 19.4293ZM120.241 19.4303C120.241 19.0954 120.108 18.7742 119.871 18.5374C119.634 18.3006 119.313 18.1676 118.978 18.1676C118.643 18.1676 118.322 18.3006 118.085 18.5374C117.849 18.7742 117.716 19.0954 117.716 19.4303C117.716 19.7652 117.849 20.0864 118.085 20.3232C118.322 20.56 118.643 20.693 118.978 20.693C119.313 20.693 119.634 20.56 119.871 20.3232C120.108 20.0864 120.241 19.7652 120.241 19.4303Z" fill="#242424"/>
<path d="M119.379 19.504C119.596 19.6723 119.674 19.8984 119.613 20.1825C119.603 20.2244 119.578 20.2414 119.536 20.2336L119.399 20.208C119.351 20.1995 119.332 20.1711 119.343 20.1226C119.454 19.6209 119.074 19.6111 118.719 19.5944C118.685 19.5931 118.668 19.6094 118.668 19.6435V20.1668C118.668 20.208 118.648 20.2287 118.607 20.2287H118.441C118.4 20.2287 118.379 20.208 118.379 20.1668L118.385 18.6675C118.385 18.6328 118.403 18.6145 118.437 18.6125C118.812 18.5919 119.976 18.5369 119.559 19.3273C119.541 19.362 119.514 19.3882 119.479 19.4058L119.384 19.453C119.354 19.4674 119.353 19.4844 119.379 19.504ZM118.668 18.8746V19.3243C118.668 19.3332 118.669 19.3421 118.673 19.3503C118.676 19.3586 118.681 19.3662 118.687 19.3725C118.693 19.3789 118.701 19.384 118.709 19.3875C118.717 19.3911 118.726 19.393 118.735 19.3931H118.958C119.01 19.3932 119.062 19.3865 119.11 19.3732C119.159 19.36 119.203 19.3405 119.24 19.3159C119.277 19.2912 119.306 19.262 119.327 19.2297C119.347 19.1975 119.357 19.1629 119.357 19.128V19.075C119.357 19.0044 119.316 18.9366 119.241 18.8865C119.167 18.8364 119.065 18.8082 118.96 18.8079H118.737C118.728 18.8078 118.719 18.8094 118.711 18.8127C118.702 18.8159 118.695 18.8208 118.688 18.827C118.682 18.8332 118.677 18.8406 118.673 18.8488C118.67 18.857 118.668 18.8658 118.668 18.8746Z" fill="#242424"/>
<path d="M71.2444 24.6881C71.2432 24.6937 71.2441 24.6995 71.247 24.7044C71.2499 24.7093 71.2546 24.713 71.2601 24.7146C71.2655 24.7162 71.2714 24.7157 71.2765 24.7131C71.2816 24.7106 71.2856 24.7062 71.2876 24.7009C71.6129 23.8859 71.9815 23.0948 72.3932 22.3277C73.0619 21.0826 73.9249 19.6059 75.4095 19.3909C76.3119 19.2603 77.1337 19.706 77.0964 20.7046C77.084 21.0443 76.9923 21.3144 76.8215 21.5147C76.4464 21.9545 75.5146 21.9585 75.2819 21.3428C75.1267 20.9334 75.4409 20.3089 74.8224 20.3246C73.489 20.358 71.8198 24.9228 71.4319 26.0686C70.7243 28.1587 70.0344 30.2553 69.3621 32.3585C69.3523 32.3886 69.3317 32.4037 69.3003 32.4037H67.3424C67.2986 32.4037 67.2835 32.3827 67.2973 32.3408C68.4785 28.8925 69.8285 25.2429 69.8963 21.5539C69.9169 20.4012 69.2915 19.7139 68.3616 20.8185C67.5869 21.7395 67.0155 22.9266 66.5461 23.9752C66.533 24.0047 66.5108 24.0145 66.4794 24.0047L66.0729 23.8731C66.0447 23.864 66.0362 23.8456 66.0473 23.8181C66.6011 22.4416 67.3257 20.9452 68.3704 19.9839C69.1216 19.2927 70.456 19.0344 71.1128 20.0144C71.8816 21.1582 71.5036 23.4264 71.2444 24.6881ZM75.275 30.0943C74.4954 27.1163 75.9221 23.556 77.9094 21.3703C79.1691 19.9839 81.0897 18.9736 82.9268 19.5165C84.8434 20.0821 85.5769 22.4131 85.5317 24.1648C85.4617 26.8584 84.5338 29.1684 82.7481 31.0948C80.6959 33.309 76.2363 33.7646 75.275 30.0943ZM82.7628 27.5287C83.2714 25.9518 84.4065 21.6453 82.8698 20.3502C82.1256 19.7227 81.0003 19.8995 80.3268 20.5259C79.3478 21.4361 78.7793 22.582 78.2442 23.9252C77.5549 25.6552 76.2147 29.9765 77.5353 31.5593C78.1067 32.2446 79.0199 32.3516 79.8388 32.064C81.4196 31.5102 82.2856 29.0074 82.7628 27.5287ZM108.487 27.6043C108.151 28.7223 108.002 29.7732 108.04 30.7571C108.08 31.7763 108.83 32.2171 109.761 32.117C111.387 31.9432 112.961 29.8979 113.793 28.6284C113.805 28.6101 113.823 28.5971 113.845 28.592C113.866 28.5869 113.888 28.5901 113.907 28.6009L114.257 28.8071C114.297 28.8306 114.306 28.8624 114.283 28.9023C113.256 30.7237 111.629 32.6668 109.387 32.8318C106.88 33.0154 105.762 31.1459 105.983 28.8434C106.208 26.4957 107.163 24.3582 108.64 22.5348C109.607 21.3409 110.613 20.358 111.958 19.7041C112.864 19.2632 114.08 19.1955 114.864 19.8671C116.174 20.9903 115.409 23.1132 114.401 24.1638C112.821 25.8104 110.67 26.7962 108.547 27.5414C108.516 27.5519 108.496 27.5728 108.487 27.6043ZM108.706 26.8433C110.601 26.0804 112.203 24.8187 113.397 23.1338C113.901 22.4219 114.337 21.3095 113.974 20.4837C113.655 19.7581 112.873 19.8091 112.271 20.1499C110.423 21.1936 109.166 24.9345 108.661 26.8031C108.649 26.8469 108.664 26.8603 108.706 26.8433Z" fill="#242424"/>
<path d="M12.2197 30.2023C11.7239 27.3843 16.0864 24.6792 18.1905 23.7543C18.2226 23.7399 18.237 23.7504 18.2337 23.7857C17.9863 26.4005 16.9534 29.3814 14.7432 30.8867C13.8889 31.4689 12.4367 31.4394 12.2197 30.2023Z" fill="#242424"/>
</svg>
