<svg width="163" height="24" viewBox="0 0 163 24" fill="none" xmlns="http://www.w3.org/2000/svg">
<path fill-rule="evenodd" clip-rule="evenodd" d="M55.6719 7.99513C55.6198 7.99513 55.5682 8.00538 55.5201 8.02531C55.472 8.04524 55.4283 8.07446 55.3914 8.11128C55.3546 8.14811 55.3254 8.19182 55.3055 8.23993C55.2855 8.28804 55.2753 8.33962 55.2753 8.3917V10.203C55.2753 10.4234 55.4533 10.6014 55.6719 10.6014H56.3285C56.5461 10.6014 56.7251 10.4234 56.7251 10.203V8.3917C56.7251 8.28652 56.6833 8.18565 56.6089 8.11128C56.5345 8.03691 56.4337 7.99513 56.3285 7.99513H55.6719ZM57.2526 4.94063C61.1325 4.92956 63.7581 7.32649 63.7517 10.9583L63.7351 12.4699C63.6687 12.7383 63.5811 12.8757 63.4686 12.8904H55.5317C55.4623 12.9288 55.4038 12.9843 55.3618 13.0516C55.3199 13.1189 55.2958 13.1958 55.2919 13.275V15.6526C55.3361 15.8582 55.5224 16.063 55.6202 16.0436H56.5554C56.6974 16.0122 56.7693 15.8158 56.7712 15.6775V14.1419H63.7323C63.7323 17.3458 60.3855 19.2466 57.6141 19.2466H55.0862C52.0889 19.2466 48.4516 17.5976 48.4562 13.5757V10.7407C48.4755 7.27946 50.8577 4.95078 54.5366 4.94063H57.2526ZM39.7188 7.99513C39.6666 7.99501 39.6149 8.00517 39.5666 8.02503C39.5183 8.0449 39.4744 8.07407 39.4374 8.11089C39.4004 8.14772 39.3711 8.19147 39.351 8.23965C39.3309 8.28783 39.3205 8.3395 39.3204 8.3917V10.203C39.3204 10.4234 39.4983 10.6014 39.7188 10.6014H40.3736C40.4259 10.6015 40.4778 10.5913 40.5262 10.5713C40.5746 10.5513 40.6185 10.522 40.6556 10.485C40.6926 10.448 40.7219 10.404 40.7419 10.3556C40.7619 10.3072 40.7721 10.2553 40.772 10.203V8.3917C40.7719 8.3395 40.7615 8.28783 40.7414 8.23965C40.7213 8.19147 40.6919 8.14772 40.6549 8.11089C40.6179 8.07407 40.574 8.0449 40.5257 8.02503C40.4775 8.00517 40.4258 7.99501 40.3736 7.99513H39.7188ZM41.2986 4.94063C45.1785 4.92956 47.8032 7.32649 47.7968 10.9583L47.7802 12.4699C47.7165 12.7383 47.6261 12.8757 47.5145 12.8904H39.5786C39.5089 12.9286 39.4503 12.984 39.4081 13.0514C39.366 13.1187 39.3418 13.1957 39.3379 13.275V15.6526C39.3821 15.8582 39.5684 16.063 39.668 16.0436H40.6004C40.7452 16.0122 40.8172 15.8158 40.819 15.6775V14.1419H47.7783C47.7783 17.3458 44.4315 19.2466 41.6619 19.2466H39.1331C36.1349 19.2466 32.4966 17.5976 32.5003 13.5757V10.7407C32.5197 7.27946 34.9046 4.95078 38.5807 4.94063H41.2986ZM24.0728 9.15809C23.9676 9.15809 23.8667 9.19986 23.7924 9.27423C23.718 9.3486 23.6762 9.44948 23.6762 9.55465V14.6077C23.6762 14.8281 23.8542 15.007 24.0728 15.007H24.7414C24.96 15.007 25.138 14.829 25.138 14.6077V9.55465C25.1377 9.44955 25.0959 9.34883 25.0216 9.27451C24.9473 9.20019 24.8465 9.15833 24.7414 9.15809H24.0728ZM23.7131 23.4336H16.8857V5.31691L23.7814 5.32705L23.7952 5.98739C26.3913 4.80783 29.2964 4.39005 30.9519 6.75193C31.9995 8.24967 32.2098 12.362 32.0032 14.3965C31.7238 17.1688 30.2233 19.0824 27.3689 19.0474C26.0815 19.0326 24.3356 18.838 23.7131 17.8152C23.691 17.782 23.7131 23.4336 23.7131 23.4336ZM16.0529 6.80635H8.94789C8.94789 5.76328 9.01798 5.01902 8.01088 5.06514C7.24265 5.09926 7.31182 6.63019 7.62631 6.73625C9.40994 7.3311 11.0082 7.80145 12.7798 8.40737C16.3619 9.6312 17.2924 13.7905 15.4405 16.5702C13.9889 18.7725 10.9722 19.3047 8.31984 19.3047C5.5411 19.3047 4.2398 19.3895 1.91297 17.9112C0.242771 16.8616 0.0509431 15.1481 0.0371094 13.1929V13.097V13.0011V12.9052H7.27677C7.27677 13.9307 7.13659 15.3741 7.83381 15.3704C8.95066 15.3621 8.94881 15.0254 8.94881 14.1936C8.94881 12.5547 8.14184 12.7235 6.58416 12.2061C2.19149 10.7444 -0.242333 9.59707 0.556336 4.96185C1.48504 -0.435163 11.2572 -0.202757 14.2084 1.9673C15.1104 2.6304 16.0529 4.30244 16.0529 6.80635ZM71.8841 15.4072C72.1017 15.4072 72.1681 15.2293 72.1681 15.0088V9.95583C72.1681 9.73726 72.1017 9.55926 71.8841 9.55926H71.1029C70.8825 9.55926 70.8189 9.73726 70.8189 9.95583V15.0088C70.8189 15.2283 70.8825 15.4072 71.1029 15.4072H71.8841ZM72.2382 1.38813H78.9485V18.9524L72.1681 18.9441L72.1534 17.9785C69.9132 19.3342 66.7665 19.8792 65.1102 17.5164C64.0625 16.0196 63.8531 11.9073 64.0588 9.87467C64.3392 7.10239 65.7244 5.18595 68.5797 5.22192C69.8671 5.23852 71.6129 5.43311 72.2373 6.45312C72.2576 6.48817 72.2382 1.38813 72.2382 1.38813ZM100.227 5.78173H106.634V14.5228C106.634 15.2431 106.738 15.4174 107.69 15.3906C108.465 15.3694 108.424 15.0347 108.445 14.544V5.78173H114.893V19.0132H108.486V18.008C104.716 20.6143 100.226 19.0972 100.226 15.4524L100.227 5.78173ZM162.12 18.9754H155.715V10.2334C155.715 9.51039 155.609 9.33792 154.656 9.36467C153.88 9.38496 153.923 9.72158 153.902 10.2122V18.9754H147.453V5.74299H153.86V6.74824C157.628 4.14104 162.121 5.65907 162.121 9.30103V18.9754H162.12ZM138.791 7.99513C138.686 7.99537 138.586 8.03723 138.511 8.11155C138.437 8.18587 138.395 8.28659 138.395 8.3917V10.203C138.395 10.4234 138.573 10.6014 138.791 10.6014H139.449C139.667 10.6014 139.846 10.4234 139.846 10.203V8.3917C139.846 8.28652 139.804 8.18565 139.729 8.11128C139.655 8.03691 139.554 7.99513 139.449 7.99513H138.791ZM140.373 4.94063C144.253 4.92956 146.88 7.32649 146.872 10.9583L146.856 12.4699C146.791 12.7383 146.703 12.8757 146.591 12.8904H138.655C138.585 12.929 138.527 12.9844 138.484 13.0516C138.442 13.1188 138.417 13.1956 138.412 13.275V15.6526C138.459 15.8582 138.642 16.063 138.743 16.0436H139.678C139.82 16.0122 139.892 15.8158 139.894 15.6775V14.1419H146.854C146.854 17.3458 143.507 19.2466 140.737 19.2466H138.208C135.209 19.2466 131.572 17.5976 131.578 13.5757V10.7407C131.597 7.27946 133.979 4.95078 137.655 4.94063H140.373ZM122.839 7.99513C122.734 7.99513 122.633 8.03685 122.558 8.11117C122.484 8.18549 122.441 8.28635 122.441 8.3917V10.203C122.441 10.4234 122.619 10.6014 122.839 10.6014H123.495C123.601 10.6014 123.702 10.5594 123.777 10.4847C123.851 10.41 123.893 10.3087 123.893 10.203V8.3917C123.893 8.3395 123.883 8.28783 123.863 8.23965C123.843 8.19147 123.813 8.14772 123.776 8.11089C123.739 8.07407 123.695 8.0449 123.647 8.02503C123.599 8.00517 123.547 7.99501 123.495 7.99513H122.839ZM124.419 4.94063C128.299 4.92956 130.924 7.32649 130.918 10.9583L130.902 12.4699C130.837 12.7383 130.747 12.8757 130.635 12.8904H122.699C122.63 12.9291 122.572 12.9847 122.53 13.0519C122.488 13.1192 122.464 13.1959 122.459 13.275V15.6526C122.503 15.8582 122.69 16.063 122.79 16.0436H123.722C123.866 16.0122 123.94 15.8158 123.941 15.6775V14.1419H130.9C130.9 17.3458 127.553 19.2466 124.783 19.2466H122.254C119.256 19.2466 115.618 17.5976 115.622 13.5757V10.7407C115.641 7.27946 118.026 4.95078 121.703 4.94063H124.419ZM90.6777 4.30243C90.6255 4.30243 90.5738 4.31276 90.5255 4.3328C90.4773 4.35285 90.4335 4.38222 90.3966 4.41924C90.3598 4.45626 90.3306 4.5002 90.3108 4.54852C90.291 4.59685 90.2809 4.64862 90.2811 4.70085V14.9415C90.2808 14.9938 90.2908 15.0457 90.3105 15.0941C90.3303 15.1426 90.3594 15.1866 90.3963 15.2237C90.4332 15.2608 90.477 15.2903 90.5253 15.3104C90.5736 15.3305 90.6254 15.3408 90.6777 15.3408H91.2735C91.4911 15.3408 91.67 15.1629 91.67 14.9415V4.69993C91.6702 4.64773 91.66 4.59602 91.6401 4.54774C91.6203 4.49947 91.5911 4.45558 91.5543 4.41859C91.5174 4.38159 91.4737 4.35221 91.4255 4.33213C91.3773 4.31204 91.3257 4.30163 91.2735 4.30151L90.6777 4.30243ZM91.7641 0.433594H90.4831C87.9718 0.536886 85.5657 1.25901 84.6453 2.52526C83.7 3.82656 83.1337 4.90651 83.1503 7.22413C83.1844 9.17653 83.0996 10.5581 83.1503 12.4496C83.2185 15.126 84.1685 17.6871 87.3926 18.5761C89.7591 19.2309 92.1118 18.9164 99.8541 18.9367V15.3731H98.6404C98.9558 13.0011 98.9521 11.2691 98.9558 8.06798C98.9558 6.62281 98.6819 3.69929 96.9693 2.08812C95.8783 1.06257 93.8678 0.525819 91.7641 0.433594Z" fill="#242424"/>
</svg>
