<svg width="170" height="60" viewBox="0 0 170 60" fill="none" xmlns="http://www.w3.org/2000/svg">
<rect width="32" height="32" rx="4.12903" fill="#3098EE"/>
<path d="M14.9135 5.63091C15.2556 4.57798 16.7452 4.57798 17.0873 5.63091L18.8229 10.9723C18.9759 11.4432 19.4147 11.762 19.9098 11.762H25.5261C26.6332 11.762 27.0936 13.1787 26.1979 13.8295L21.6542 17.1307C21.2536 17.4217 21.086 17.9376 21.239 18.4084L22.9746 23.7499C23.3167 24.8028 22.1115 25.6784 21.2159 25.0276L16.6722 21.7264C16.2716 21.4354 15.7292 21.4354 15.3287 21.7264L10.785 25.0276C9.88929 25.6784 8.68417 24.8028 9.02629 23.7499L10.7618 18.4084C10.9148 17.9376 10.7472 17.4217 10.3467 17.1307L5.80296 13.8295C4.90728 13.1787 5.3676 11.762 6.47471 11.762H12.091C12.5862 11.762 13.025 11.4432 13.178 10.9723L14.9135 5.63091Z" fill="white"/>
<rect x="34.2861" width="32" height="32" rx="4.12903" fill="#3098EE"/>
<path d="M49.1996 5.63091C49.5417 4.57798 51.0314 4.57798 51.3735 5.63091L53.109 10.9723C53.262 11.4432 53.7008 11.762 54.1959 11.762H59.8123C60.9194 11.762 61.3797 13.1787 60.484 13.8295L55.9403 17.1307C55.5398 17.4217 55.3721 17.9376 55.5251 18.4084L57.2607 23.7499C57.6028 24.8028 56.3977 25.6784 55.502 25.0276L50.9583 21.7264C50.5577 21.4354 50.0154 21.4354 49.6148 21.7264L45.0711 25.0276C44.1754 25.6784 42.9703 24.8028 43.3124 23.7499L45.048 18.4084C45.201 17.9376 45.0333 17.4217 44.6328 17.1307L40.0891 13.8295C39.1934 13.1787 39.6537 11.762 40.7608 11.762H46.3772C46.8723 11.762 47.3111 11.4432 47.4641 10.9723L49.1996 5.63091Z" fill="white"/>
<rect x="68.5713" width="32" height="32" rx="4.12903" fill="#3098EE"/>
<path d="M83.4838 5.63091C83.8259 4.57798 85.3155 4.57798 85.6577 5.63091L87.3932 10.9723C87.5462 11.4432 87.985 11.762 88.4801 11.762H94.0964C95.2036 11.762 95.6639 13.1787 94.7682 13.8295L90.2245 17.1307C89.8239 17.4217 89.6563 17.9376 89.8093 18.4084L91.5449 23.7499C91.887 24.8028 90.6819 25.6784 89.7862 25.0276L85.2425 21.7264C84.8419 21.4354 84.2995 21.4354 83.899 21.7264L79.3553 25.0276C78.4596 25.6784 77.2545 24.8028 77.5966 23.7499L79.3321 18.4084C79.4851 17.9376 79.3175 17.4217 78.917 17.1307L74.3733 13.8295C73.4776 13.1787 73.9379 11.762 75.045 11.762H80.6613C81.1565 11.762 81.5953 11.4432 81.7483 10.9723L83.4838 5.63091Z" fill="white"/>
<rect x="102.857" width="32" height="32" rx="4.12903" fill="#3098EE"/>
<path d="M117.77 5.63091C118.112 4.57798 119.602 4.57798 119.944 5.63091L121.679 10.9723C121.832 11.4432 122.271 11.762 122.766 11.762H128.383C129.49 11.762 129.95 13.1787 129.054 13.8295L124.511 17.1307C124.11 17.4217 123.942 17.9376 124.095 18.4084L125.831 23.7499C126.173 24.8028 124.968 25.6784 124.072 25.0276L119.529 21.7264C119.128 21.4354 118.586 21.4354 118.185 21.7264L113.641 25.0276C112.746 25.6784 111.541 24.8028 111.883 23.7499L113.618 18.4084C113.771 17.9376 113.604 17.4217 113.203 17.1307L108.659 13.8295C107.764 13.1787 108.224 11.762 109.331 11.762H114.947C115.443 11.762 115.881 11.4432 116.034 10.9723L117.77 5.63091Z" fill="white"/>
<rect x="137.143" width="32" height="32" rx="4.12903" fill="#3098EE"/>
<path d="M152.056 5.63091C152.398 4.57798 153.888 4.57798 154.23 5.63091L155.965 10.9723C156.118 11.4432 156.557 11.762 157.052 11.762H162.669C163.776 11.762 164.236 13.1787 163.34 13.8295L158.797 17.1307C158.396 17.4217 158.229 17.9376 158.382 18.4084L160.117 23.7499C160.459 24.8028 159.254 25.6784 158.358 25.0276L153.815 21.7264C153.414 21.4354 152.872 21.4354 152.471 21.7264L147.928 25.0276C147.032 25.6784 145.827 24.8028 146.169 23.7499L147.904 18.4084C148.057 17.9376 147.89 17.4217 147.489 17.1307L142.946 13.8295C142.05 13.1787 142.51 11.762 143.617 11.762H149.234C149.729 11.762 150.168 11.4432 150.321 10.9723L152.056 5.63091Z" fill="white"/>
<path d="M14.0229 55.18C13.2929 55.18 12.6529 55.01 12.1029 54.67C11.5529 54.33 11.1279 53.85 10.8279 53.23C10.5279 52.6 10.3779 51.865 10.3779 51.025C10.3779 50.175 10.5279 49.44 10.8279 48.82C11.1279 48.2 11.5529 47.72 12.1029 47.38C12.6529 47.04 13.2929 46.87 14.0229 46.87C14.7529 46.87 15.3879 47.04 15.9279 47.38C16.4779 47.72 16.9029 48.2 17.2029 48.82C17.5029 49.44 17.6529 50.175 17.6529 51.025C17.6529 51.865 17.5029 52.6 17.2029 53.23C16.9029 53.85 16.4779 54.33 15.9279 54.67C15.3879 55.01 14.7529 55.18 14.0229 55.18ZM14.0229 53.98C14.7529 53.98 15.3179 53.72 15.7179 53.2C16.1279 52.67 16.3329 51.945 16.3329 51.025C16.3329 50.105 16.1279 49.385 15.7179 48.865C15.3179 48.335 14.7529 48.07 14.0229 48.07C13.2929 48.07 12.7229 48.335 12.3129 48.865C11.9029 49.385 11.6979 50.105 11.6979 51.025C11.6979 51.945 11.9029 52.67 12.3129 53.2C12.7229 53.72 13.2929 53.98 14.0229 53.98ZM21.9801 55.18C21.1901 55.18 20.5551 54.915 20.0751 54.385C19.6051 53.845 19.3701 53.105 19.3701 52.165V47.05H20.6301V51.82C20.6301 52.59 20.7651 53.16 21.0351 53.53C21.3151 53.89 21.7401 54.07 22.3101 54.07C22.9401 54.07 23.4351 53.87 23.7951 53.47C24.1551 53.06 24.3351 52.5 24.3351 51.79V47.05H25.5951V55H24.3951V53.035L24.5901 53.14C24.4301 53.79 24.1251 54.295 23.6751 54.655C23.2251 55.005 22.6601 55.18 21.9801 55.18ZM27.998 55V47.05H29.108L29.168 49.06L29.048 49.015C29.148 48.335 29.363 47.84 29.693 47.53C30.033 47.21 30.483 47.05 31.043 47.05H31.823V48.25H31.058C30.658 48.25 30.323 48.325 30.053 48.475C29.793 48.615 29.593 48.83 29.453 49.12C29.323 49.4 29.258 49.76 29.258 50.2V55H27.998ZM37.4316 55V47.05H38.5416L38.6016 49.06L38.4816 49.015C38.5816 48.335 38.7966 47.84 39.1266 47.53C39.4666 47.21 39.9166 47.05 40.4766 47.05H41.2566V48.25H40.4916C40.0916 48.25 39.7566 48.325 39.4866 48.475C39.2266 48.615 39.0266 48.83 38.8866 49.12C38.7566 49.4 38.6916 49.76 38.6916 50.2V55H37.4316ZM44.6596 55.18C43.8396 55.18 43.1846 54.99 42.6946 54.61C42.2146 54.23 41.9746 53.7 41.9746 53.02C41.9746 52.34 42.1746 51.805 42.5746 51.415C42.9746 51.025 43.6096 50.75 44.4796 50.59L47.2996 50.065C47.2996 49.395 47.1396 48.895 46.8196 48.565C46.5096 48.235 46.0396 48.07 45.4096 48.07C44.8596 48.07 44.4246 48.195 44.1046 48.445C43.7846 48.685 43.5646 49.035 43.4446 49.495L42.1096 49.39C42.2596 48.64 42.6196 48.035 43.1896 47.575C43.7696 47.105 44.5096 46.87 45.4096 46.87C46.4296 46.87 47.2096 47.16 47.7496 47.74C48.2896 48.31 48.5596 49.1 48.5596 50.11V53.395C48.5596 53.575 48.5896 53.705 48.6496 53.785C48.7196 53.855 48.8296 53.89 48.9796 53.89H49.2946V55C49.2546 55.01 49.1896 55.015 49.0996 55.015C49.0096 55.025 48.9146 55.03 48.8146 55.03C48.4546 55.03 48.1596 54.975 47.9296 54.865C47.7096 54.745 47.5496 54.565 47.4496 54.325C47.3496 54.075 47.2996 53.75 47.2996 53.35L47.4496 53.38C47.3796 53.72 47.2096 54.03 46.9396 54.31C46.6696 54.58 46.3346 54.795 45.9346 54.955C45.5346 55.105 45.1096 55.18 44.6596 55.18ZM44.7796 54.07C45.3096 54.07 45.7596 53.97 46.1296 53.77C46.5096 53.56 46.7996 53.28 46.9996 52.93C47.1996 52.57 47.2996 52.17 47.2996 51.73V51.16L44.7196 51.64C44.1796 51.74 43.8046 51.895 43.5946 52.105C43.3946 52.305 43.2946 52.57 43.2946 52.9C43.2946 53.27 43.4246 53.56 43.6846 53.77C43.9546 53.97 44.3196 54.07 44.7796 54.07ZM53.2322 55C52.5122 55 51.9772 54.835 51.6272 54.505C51.2872 54.175 51.1172 53.66 51.1172 52.96V45.19H52.3772V52.93C52.3772 53.29 52.4572 53.54 52.6172 53.68C52.7772 53.82 53.0222 53.89 53.3522 53.89H54.4922V55H53.2322ZM49.9472 48.16V47.05H54.4922V48.16H49.9472ZM56.1083 55V47.05H57.3683V55H56.1083ZM56.0783 45.805V44.335H57.3983V45.805H56.0783ZM59.9169 55V47.05H61.0719L61.1169 49.075L60.9669 48.94C61.0669 48.47 61.2419 48.085 61.4919 47.785C61.7419 47.475 62.0419 47.245 62.3919 47.095C62.7519 46.945 63.1369 46.87 63.5469 46.87C64.1569 46.87 64.6569 47.005 65.0469 47.275C65.4469 47.545 65.7419 47.91 65.9319 48.37C66.1319 48.82 66.2319 49.325 66.2319 49.885V55H64.9719V50.245C64.9719 49.755 64.9119 49.345 64.7919 49.015C64.6819 48.675 64.5019 48.42 64.2519 48.25C64.0019 48.07 63.6769 47.98 63.2769 47.98C62.6669 47.98 62.1619 48.175 61.7619 48.565C61.3719 48.945 61.1769 49.505 61.1769 50.245V55H59.9169ZM71.472 57.43C70.902 57.43 70.387 57.335 69.927 57.145C69.467 56.955 69.082 56.685 68.772 56.335C68.462 55.985 68.252 55.58 68.142 55.12L69.462 55.03C69.582 55.4 69.792 55.69 70.092 55.9C70.402 56.12 70.862 56.23 71.472 56.23C72.192 56.23 72.742 56.085 73.122 55.795C73.512 55.505 73.707 55.07 73.707 54.49V53.2C73.517 53.62 73.212 53.955 72.792 54.205C72.372 54.455 71.902 54.58 71.382 54.58C70.712 54.58 70.112 54.415 69.582 54.085C69.062 53.755 68.652 53.3 68.352 52.72C68.062 52.14 67.917 51.475 67.917 50.725C67.917 49.965 68.062 49.3 68.352 48.73C68.642 48.15 69.042 47.695 69.552 47.365C70.072 47.035 70.662 46.87 71.322 46.87C71.882 46.87 72.382 47 72.822 47.26C73.272 47.52 73.587 47.87 73.767 48.31V47.05H74.967V54.46C74.967 55.08 74.827 55.61 74.547 56.05C74.267 56.5 73.867 56.84 73.347 57.07C72.827 57.31 72.202 57.43 71.472 57.43ZM71.442 53.38C72.122 53.38 72.667 53.145 73.077 52.675C73.487 52.195 73.697 51.545 73.707 50.725C73.717 50.175 73.627 49.705 73.437 49.315C73.257 48.915 72.992 48.61 72.642 48.4C72.302 48.18 71.902 48.07 71.442 48.07C70.742 48.07 70.197 48.31 69.807 48.79C69.427 49.26 69.237 49.905 69.237 50.725C69.237 51.545 69.432 52.195 69.822 52.675C70.222 53.145 70.762 53.38 71.442 53.38ZM84.2182 55.18C83.4882 55.18 82.8482 55.01 82.2982 54.67C81.7482 54.33 81.3232 53.85 81.0232 53.23C80.7232 52.6 80.5732 51.865 80.5732 51.025C80.5732 50.175 80.7232 49.44 81.0232 48.82C81.3232 48.2 81.7482 47.72 82.2982 47.38C82.8482 47.04 83.4882 46.87 84.2182 46.87C84.9482 46.87 85.5832 47.04 86.1232 47.38C86.6732 47.72 87.0982 48.2 87.3982 48.82C87.6982 49.44 87.8482 50.175 87.8482 51.025C87.8482 51.865 87.6982 52.6 87.3982 53.23C87.0982 53.85 86.6732 54.33 86.1232 54.67C85.5832 55.01 84.9482 55.18 84.2182 55.18ZM84.2182 53.98C84.9482 53.98 85.5132 53.72 85.9132 53.2C86.3232 52.67 86.5282 51.945 86.5282 51.025C86.5282 50.105 86.3232 49.385 85.9132 48.865C85.5132 48.335 84.9482 48.07 84.2182 48.07C83.4882 48.07 82.9182 48.335 82.5082 48.865C82.0982 49.385 81.8932 50.105 81.8932 51.025C81.8932 51.945 82.0982 52.67 82.5082 53.2C82.9182 53.72 83.4882 53.98 84.2182 53.98ZM89.5654 55V47.05H90.7204L90.7654 49.075L90.6154 48.94C90.7154 48.47 90.8904 48.085 91.1404 47.785C91.3904 47.475 91.6904 47.245 92.0404 47.095C92.4004 46.945 92.7854 46.87 93.1954 46.87C93.8054 46.87 94.3054 47.005 94.6954 47.275C95.0954 47.545 95.3904 47.91 95.5804 48.37C95.7804 48.82 95.8804 49.325 95.8804 49.885V55H94.6204V50.245C94.6204 49.755 94.5604 49.345 94.4404 49.015C94.3304 48.675 94.1504 48.42 93.9004 48.25C93.6504 48.07 93.3254 47.98 92.9254 47.98C92.3154 47.98 91.8104 48.175 91.4104 48.565C91.0204 48.945 90.8254 49.505 90.8254 50.245V55H89.5654ZM102.376 57.25V56.14H103.291C103.571 56.14 103.776 56.095 103.906 56.005C104.046 55.925 104.151 55.79 104.221 55.6L104.506 54.85H104.071L101.161 47.05H102.541L104.911 53.68L107.176 47.05H108.556L105.331 56.005C105.181 56.435 104.956 56.75 104.656 56.95C104.356 57.15 103.941 57.25 103.411 57.25H102.376ZM112.797 55.18C112.047 55.18 111.397 55.01 110.847 54.67C110.307 54.33 109.887 53.85 109.587 53.23C109.297 52.6 109.152 51.865 109.152 51.025C109.152 50.185 109.297 49.455 109.587 48.835C109.887 48.215 110.302 47.735 110.832 47.395C111.372 47.045 112.007 46.87 112.737 46.87C113.427 46.87 114.037 47.035 114.567 47.365C115.097 47.685 115.507 48.155 115.797 48.775C116.097 49.395 116.247 50.15 116.247 51.04V51.415H110.472C110.522 52.265 110.747 52.905 111.147 53.335C111.557 53.765 112.107 53.98 112.797 53.98C113.317 53.98 113.742 53.86 114.072 53.62C114.412 53.37 114.647 53.045 114.777 52.645L116.127 52.75C115.917 53.46 115.517 54.045 114.927 54.505C114.347 54.955 113.637 55.18 112.797 55.18ZM110.472 50.305H114.867C114.807 49.535 114.582 48.97 114.192 48.61C113.812 48.25 113.327 48.07 112.737 48.07C112.127 48.07 111.622 48.26 111.222 48.64C110.832 49.01 110.582 49.565 110.472 50.305ZM119.587 55C119.127 55 118.752 54.88 118.462 54.64C118.172 54.4 118.027 54.02 118.027 53.5V44.35H119.287V53.395C119.287 53.555 119.327 53.68 119.407 53.77C119.497 53.85 119.622 53.89 119.782 53.89H120.472V55H119.587ZM121.968 57.25V47.05H123.138L123.168 48.76L122.988 48.67C123.188 48.08 123.518 47.635 123.978 47.335C124.448 47.025 124.988 46.87 125.598 46.87C126.388 46.87 127.033 47.065 127.533 47.455C128.043 47.845 128.418 48.355 128.658 48.985C128.908 49.615 129.033 50.295 129.033 51.025C129.033 51.755 128.908 52.435 128.658 53.065C128.418 53.695 128.043 54.205 127.533 54.595C127.033 54.985 126.388 55.18 125.598 55.18C125.188 55.18 124.803 55.11 124.443 54.97C124.093 54.83 123.793 54.635 123.543 54.385C123.303 54.135 123.138 53.84 123.048 53.5L123.228 53.29V57.25H121.968ZM125.478 53.98C126.168 53.98 126.713 53.72 127.113 53.2C127.513 52.68 127.713 51.955 127.713 51.025C127.713 50.095 127.513 49.37 127.113 48.85C126.713 48.33 126.168 48.07 125.478 48.07C125.018 48.07 124.618 48.18 124.278 48.4C123.948 48.62 123.688 48.95 123.498 49.39C123.318 49.83 123.228 50.375 123.228 51.025C123.228 51.675 123.318 52.22 123.498 52.66C123.678 53.1 123.938 53.43 124.278 53.65C124.618 53.87 125.018 53.98 125.478 53.98ZM138.119 55.24C137.369 55.24 136.719 55.115 136.169 54.865C135.629 54.615 135.199 54.265 134.879 53.815C134.569 53.365 134.389 52.845 134.339 52.255L135.689 52.165C135.769 52.765 136.024 53.22 136.454 53.53C136.894 53.83 137.449 53.98 138.119 53.98C138.869 53.98 139.464 53.77 139.904 53.35C140.344 52.92 140.564 52.33 140.564 51.58C140.564 51.08 140.464 50.65 140.264 50.29C140.074 49.92 139.794 49.635 139.424 49.435C139.054 49.235 138.609 49.135 138.089 49.135C137.599 49.135 137.154 49.24 136.754 49.45C136.354 49.66 136.069 49.955 135.899 50.335H134.519L135.224 44.35H141.194V45.61H136.409L135.929 49.54L135.689 49.3C135.849 48.99 136.059 48.735 136.319 48.535C136.589 48.325 136.894 48.17 137.234 48.07C137.584 47.96 137.949 47.905 138.329 47.905C139.039 47.905 139.664 48.065 140.204 48.385C140.744 48.695 141.164 49.13 141.464 49.69C141.764 50.24 141.914 50.87 141.914 51.58C141.914 52.29 141.754 52.925 141.434 53.485C141.114 54.035 140.669 54.465 140.099 54.775C139.529 55.085 138.869 55.24 138.119 55.24ZM143.428 56.65L147.853 43.75H149.053L144.628 56.65H143.428ZM154.715 55.24C153.965 55.24 153.315 55.115 152.765 54.865C152.225 54.615 151.795 54.265 151.475 53.815C151.165 53.365 150.985 52.845 150.935 52.255L152.285 52.165C152.365 52.765 152.62 53.22 153.05 53.53C153.49 53.83 154.045 53.98 154.715 53.98C155.465 53.98 156.06 53.77 156.5 53.35C156.94 52.92 157.16 52.33 157.16 51.58C157.16 51.08 157.06 50.65 156.86 50.29C156.67 49.92 156.39 49.635 156.02 49.435C155.65 49.235 155.205 49.135 154.685 49.135C154.195 49.135 153.75 49.24 153.35 49.45C152.95 49.66 152.665 49.955 152.495 50.335H151.115L151.82 44.35H157.79V45.61H153.005L152.525 49.54L152.285 49.3C152.445 48.99 152.655 48.735 152.915 48.535C153.185 48.325 153.49 48.17 153.83 48.07C154.18 47.96 154.545 47.905 154.925 47.905C155.635 47.905 156.26 48.065 156.8 48.385C157.34 48.695 157.76 49.13 158.06 49.69C158.36 50.24 158.51 50.87 158.51 51.58C158.51 52.29 158.35 52.925 158.03 53.485C157.71 54.035 157.265 54.465 156.695 54.775C156.125 55.085 155.465 55.24 154.715 55.24Z" fill="black"/>
<path d="M100.831 56.875H101.625V57.625H100.831V56.875ZM105.508 56.875H121.219V57.625H105.508V56.875ZM123.977 56.875H129.689V57.625H123.977V56.875Z" fill="black"/>
</svg>
